<svg width="42" height="24" viewBox="0 0 42 24" fill="none" xmlns="http://www.w3.org/2000/svg">
<path d="M2.77216 3.77216C0.40928 6.13503 0.409282 9.96602 2.77216 12.3289L11.937 21.4937L12 21.4307L12.0631 21.4938L21.2279 12.329C23.5908 9.96609 23.5908 6.13511 21.2279 3.77223C18.865 1.40936 15.034 1.40936 12.6712 3.77224L12.3536 4.08978C12.1584 4.28505 11.8418 4.28505 11.6465 4.08978L11.3289 3.77216C8.96601 1.40928 5.13503 1.40928 2.77216 3.77216Z" fill="#FD6F96" stroke="#FD6F96" stroke-opacity="0.7" stroke-width="1.5" stroke-linecap="round" stroke-linejoin="round"/>
<path d="M34.0488 10.436C34.0488 11.012 33.8888 11.472 33.5688 11.816C33.2488 12.152 32.8168 12.376 32.2728 12.488V12.536C32.9608 12.616 33.4728 12.832 33.8088 13.184C34.1448 13.536 34.3128 13.996 34.3128 14.564C34.3128 15.06 34.1968 15.504 33.9648 15.896C33.7328 16.28 33.3728 16.58 32.8848 16.796C32.4048 17.012 31.7848 17.12 31.0248 17.12C30.5768 17.12 30.1608 17.084 29.7768 17.012C29.3928 16.948 29.0248 16.828 28.6728 16.652V15.668C29.0328 15.844 29.4208 15.984 29.8368 16.088C30.2528 16.184 30.6528 16.232 31.0368 16.232C31.8048 16.232 32.3568 16.084 32.6928 15.788C33.0368 15.484 33.2088 15.068 33.2088 14.54C33.2088 14.004 32.9968 13.62 32.5728 13.388C32.1568 13.148 31.5688 13.028 30.8088 13.028H29.9808V12.128H30.8208C31.5248 12.128 32.0568 11.98 32.4168 11.684C32.7848 11.388 32.9688 10.996 32.9688 10.508C32.9688 10.092 32.8288 9.772 32.5488 9.548C32.2688 9.316 31.8888 9.2 31.4088 9.2C30.9448 9.2 30.5488 9.268 30.2208 9.404C29.8928 9.54 29.5688 9.712 29.2488 9.92L28.7208 9.2C29.0248 8.96 29.4008 8.752 29.8488 8.576C30.3048 8.4 30.8208 8.312 31.3968 8.312C32.2928 8.312 32.9568 8.512 33.3888 8.912C33.8288 9.312 34.0488 9.82 34.0488 10.436ZM41.276 12.704C41.276 13.624 41.18 14.416 40.988 15.08C40.796 15.736 40.492 16.24 40.076 16.592C39.66 16.944 39.108 17.12 38.42 17.12C37.452 17.12 36.736 16.732 36.272 15.956C35.816 15.172 35.588 14.088 35.588 12.704C35.588 11.776 35.68 10.984 35.864 10.328C36.056 9.672 36.36 9.172 36.776 8.828C37.192 8.476 37.74 8.3 38.42 8.3C39.38 8.3 40.096 8.688 40.568 9.464C41.04 10.232 41.276 11.312 41.276 12.704ZM36.644 12.704C36.644 13.88 36.776 14.76 37.04 15.344C37.312 15.928 37.772 16.22 38.42 16.22C39.06 16.22 39.516 15.932 39.788 15.356C40.068 14.772 40.208 13.888 40.208 12.704C40.208 11.536 40.068 10.66 39.788 10.076C39.516 9.492 39.06 9.2 38.42 9.2C37.772 9.2 37.312 9.492 37.04 10.076C36.776 10.66 36.644 11.536 36.644 12.704Z" fill="#25396F" fill-opacity="0.7"/>
</svg>
