<svg width="49" height="24" viewBox="0 0 49 24" fill="none" xmlns="http://www.w3.org/2000/svg">
<path d="M32.4592 17H31.4272V11.012C31.4272 10.668 31.4312 10.392 31.4392 10.184C31.4472 9.976 31.4592 9.76 31.4752 9.536C31.3472 9.664 31.2312 9.772 31.1272 9.86C31.0232 9.948 30.8912 10.06 30.7312 10.196L29.8192 10.94L29.2672 10.232L31.5832 8.432H32.4592V17ZM41.3064 17H35.6424V16.124L37.8864 13.856C38.3184 13.424 38.6824 13.04 38.9784 12.704C39.2744 12.368 39.4984 12.04 39.6504 11.72C39.8024 11.392 39.8784 11.036 39.8784 10.652C39.8784 10.18 39.7384 9.824 39.4584 9.584C39.1784 9.336 38.8144 9.212 38.3664 9.212C37.9504 9.212 37.5824 9.284 37.2624 9.428C36.9504 9.572 36.6304 9.772 36.3024 10.028L35.7384 9.32C36.0744 9.04 36.4584 8.804 36.8904 8.612C37.3304 8.412 37.8224 8.312 38.3664 8.312C39.1664 8.312 39.7984 8.516 40.2624 8.924C40.7264 9.324 40.9584 9.88 40.9584 10.592C40.9584 11.04 40.8664 11.46 40.6824 11.852C40.4984 12.244 40.2424 12.632 39.9144 13.016C39.5864 13.392 39.2024 13.796 38.7624 14.228L36.9744 15.992V16.04H41.3064V17ZM45.2336 11.744C46.1136 11.744 46.8136 11.964 47.3336 12.404C47.8536 12.844 48.1136 13.464 48.1136 14.264C48.1136 15.152 47.8296 15.852 47.2616 16.364C46.7016 16.868 45.9176 17.12 44.9096 17.12C44.4696 17.12 44.0536 17.08 43.6616 17C43.2776 16.92 42.9536 16.804 42.6896 16.652V15.656C42.9776 15.832 43.3256 15.972 43.7336 16.076C44.1496 16.172 44.5456 16.22 44.9216 16.22C45.5536 16.22 46.0616 16.072 46.4456 15.776C46.8376 15.472 47.0336 15.004 47.0336 14.372C47.0336 13.812 46.8616 13.384 46.5176 13.088C46.1736 12.784 45.6296 12.632 44.8856 12.632C44.6616 12.632 44.4056 12.652 44.1176 12.692C43.8296 12.732 43.5976 12.772 43.4216 12.812L42.8936 12.476L43.2176 8.432H47.5136V9.392H44.1176L43.9136 11.876C44.0496 11.852 44.2336 11.824 44.4656 11.792C44.6976 11.76 44.9536 11.744 45.2336 11.744Z" fill="#25396F" fill-opacity="0.7"/>
<path d="M14.2176 2.31413L14.1688 2.30054C13.8471 2.21087 13.57 2.27957 13.3254 2.44395C13.0639 2.61967 12.8558 2.89872 12.7489 3.16496L14.2176 2.31413ZM14.2176 2.31413C14.8571 2.50433 15.2455 2.88091 15.4783 3.38704L15.4787 3.38786C15.7168 3.90377 15.7927 4.5567 15.8058 5.28012L15.8058 5.28201C15.8203 5.98683 15.6701 6.87578 15.4775 7.70052C15.3876 8.08054 15.2905 8.44561 15.1952 8.77182L14.9148 9.73207H15.9152H17.9912H17.9916C18.3414 9.73186 18.6864 9.81322 18.9993 9.96969C19.3122 10.1262 19.5843 10.3534 19.7939 10.6334C20.0036 10.9134 20.1451 11.2385 20.2072 11.5827C20.2693 11.927 20.2502 12.281 20.1516 12.6166L20.1515 12.6168L18.1055 19.5858L18.1055 19.5858C17.9932 19.9684 17.8058 20.3248 17.5542 20.6341C17.3025 20.9434 16.9918 21.1994 16.6401 21.3873C16.2884 21.5751 15.9027 21.6909 15.5057 21.7279C15.1087 21.765 14.7083 21.7225 14.3279 21.603L6.29399 19.0786L6.29375 19.0785C5.96789 18.9762 5.66959 18.8011 5.42146 18.5664C5.17333 18.3317 4.98188 18.0436 4.86163 17.724L4.08174 15.6483C3.89557 15.1528 3.89006 14.6075 4.0662 14.1083C4.24233 13.6091 4.58882 13.188 5.04474 12.919L5.0449 12.9189L7.8529 11.2614L7.88855 11.2404L7.92166 11.2156L7.94366 11.1991C8.00813 11.1513 8.07101 11.1015 8.1322 11.0496L8.13222 11.0496L8.13749 11.0451C8.37966 10.8359 8.60686 10.6099 8.81741 10.3689C9.38412 9.73102 10.1318 8.70046 10.8727 7.12651L10.8729 7.12619C11.1761 6.48135 11.4305 5.97242 11.6636 5.50921L11.6639 5.50854C11.6774 5.4817 11.6908 5.45498 11.7042 5.42838C12.0663 4.70721 12.3888 4.06497 12.7487 3.1653L14.2176 2.31413Z" stroke="#6F69AC" stroke-width="1.5"/>
</svg>
