<svg width="42" height="24" viewBox="0 0 42 24" fill="none" xmlns="http://www.w3.org/2000/svg">
<path d="M14 19C17.771 19 19.657 19 20.828 17.828C22 16.657 22 14.771 22 11C22 7.229 22 5.343 20.828 4.172C19.657 3 17.771 3 14 3H10C6.229 3 4.343 3 3.172 4.172C2 5.343 2 7.229 2 11C2 14.771 2 16.657 3.172 17.828C3.825 18.482 4.7 18.771 6 18.898" stroke="#25396F" stroke-opacity="0.7" stroke-width="1.5" stroke-linecap="round" stroke-linejoin="round"/>
<path d="M14.0002 19C12.7642 19 11.4022 19.5 10.1592 20.145C8.16124 21.182 7.16224 21.701 6.67024 21.37C6.17824 21.04 6.27124 20.015 6.45824 17.966L6.50024 17.5" stroke="#25396F" stroke-opacity="0.7" stroke-width="1.5" stroke-linecap="round"/>
<path d="M32.3928 17H31.3608V11.012C31.3608 10.668 31.3648 10.392 31.3728 10.184C31.3808 9.976 31.3928 9.76 31.4088 9.536C31.2808 9.664 31.1648 9.772 31.0608 9.86C30.9568 9.948 30.8248 10.06 30.6648 10.196L29.7528 10.94L29.2008 10.232L31.5168 8.432H32.3928V17ZM41.24 17H35.576V16.124L37.82 13.856C38.252 13.424 38.616 13.04 38.912 12.704C39.208 12.368 39.432 12.04 39.584 11.72C39.736 11.392 39.812 11.036 39.812 10.652C39.812 10.18 39.672 9.824 39.392 9.584C39.112 9.336 38.748 9.212 38.3 9.212C37.884 9.212 37.516 9.284 37.196 9.428C36.884 9.572 36.564 9.772 36.236 10.028L35.672 9.32C36.008 9.04 36.392 8.804 36.824 8.612C37.264 8.412 37.756 8.312 38.3 8.312C39.1 8.312 39.732 8.516 40.196 8.924C40.66 9.324 40.892 9.88 40.892 10.592C40.892 11.04 40.8 11.46 40.616 11.852C40.432 12.244 40.176 12.632 39.848 13.016C39.52 13.392 39.136 13.796 38.696 14.228L36.908 15.992V16.04H41.24V17Z" fill="#25396F" fill-opacity="0.7"/>
</svg>
