<svg width="80" height="80" viewBox="0 0 80 80" fill="none" xmlns="http://www.w3.org/2000/svg">
<path d="M31.5997 40.4001H8.19971V63.8002H31.5997V40.4001Z" fill="#6F69AC"/>
<path d="M31.5997 40.4001H8.19971V41.5002H31.5997V40.4001Z" fill="#4C4874"/>
<path d="M43.9996 40.4001H31.5996V63.8002H43.9996V40.4001Z" fill="#4C4874"/>
<path d="M64.7999 40.4001H41.3999V63.8002H64.7999V40.4001Z" fill="#EDDB98"/>
<path d="M77.1998 40.4001H64.7998V63.8002H77.1998V40.4001Z" fill="#CABB85"/>
<path d="M26.0665 17H2.6665V40.4H26.0665V17Z" fill="#95DAC1"/>
<path d="M37.7999 17H25.3999V40.4H37.7999V17Z" fill="#77AA98"/>
<path d="M10.6665 33.9999V23.8181H12.511V28.4964H12.6353L16.6076 23.8181H18.8597L14.9222 28.387L18.8945 33.9999H16.6772L13.6395 29.6349L12.511 30.9673V33.9999H10.6665Z" fill="white"/>
<path d="M20.8484 47.8184V58.0002H19.0039V47.8184H20.8484Z" fill="white"/>
<path d="M52.4542 57.0002H49.0039V46.8184H52.5238C53.5347 46.8184 54.4031 47.0222 55.1289 47.4299C55.8581 47.8342 56.4182 48.4159 56.8093 49.1749C57.2004 49.9339 57.396 50.842 57.396 51.8993C57.396 52.9599 57.1987 53.8714 56.8043 54.6337C56.4132 55.396 55.8481 55.981 55.109 56.3887C54.3732 56.7963 53.4883 57.0002 52.4542 57.0002ZM50.8484 55.4043H52.3647C53.074 55.4043 53.6656 55.275 54.1396 55.0165C54.6135 54.7547 54.9698 54.3652 55.2085 53.8482C55.4471 53.3278 55.5664 52.6782 55.5664 51.8993C55.5664 51.1204 55.4471 50.4741 55.2085 49.9604C54.9698 49.4434 54.6168 49.0572 54.1495 48.802C53.6855 48.5435 53.1088 48.4142 52.4194 48.4142H50.8484V55.4043Z" fill="white"/>
</svg>
