<svg width="106" height="82" viewBox="0 0 106 82" fill="none" xmlns="http://www.w3.org/2000/svg">
<path d="M86.8628 61.4947H16.8059C14.0897 61.4947 11.8896 59.2947 11.8896 56.5784V13.5242C11.8896 10.8079 14.0897 8.60791 16.8059 8.60791H86.8628C89.579 8.60791 91.779 10.8079 91.779 13.5242V56.5784C91.779 59.2947 89.579 61.4947 86.8628 61.4947Z" fill="#00E7E9"/>
<path d="M89.5423 9.40674C89.6652 9.8492 89.7389 10.304 89.7389 10.7833V53.8375C89.7389 56.5538 87.5389 58.7538 84.8226 58.7538H14.7658C13.7825 58.7538 12.8607 58.4588 12.0864 57.9672C12.6887 60.0074 14.5691 61.5069 16.806 61.5069H86.8629C89.5791 61.5069 91.7792 59.3069 91.7792 56.5906V13.5241C91.7792 11.8034 90.8819 10.2794 89.5423 9.40674Z" fill="#00D3DE"/>
<path d="M86.8628 61.4947H16.8059C14.0897 61.4947 11.8896 59.2947 11.8896 56.5784V13.5242C11.8896 10.8079 14.0897 8.60791 16.8059 8.60791H86.8628C89.579 8.60791 91.779 10.8079 91.779 13.5242V56.5784C91.779 59.2947 89.579 61.4947 86.8628 61.4947Z" stroke="#171819" stroke-miterlimit="10" stroke-linecap="round" stroke-linejoin="round"/>
<path d="M99.1658 23.4304H80.7298C77.3376 23.4304 74.5845 26.1835 74.5845 29.5758C74.5845 32.968 77.3376 35.7211 80.7298 35.7211H84.1589V38.6463L87.0841 35.7211H99.1535C102.546 35.7211 105.299 32.968 105.299 29.5758C105.311 26.1835 102.558 23.4304 99.1658 23.4304Z" fill="#00A8FF"/>
<path d="M84.3185 35.5856C84.3185 34.8113 83.6917 34.1845 82.9174 34.1845H79.7956C77.8782 34.1845 76.1698 33.3119 75.0391 31.9353C75.9609 34.1599 78.1609 35.7208 80.7174 35.7208H84.3062V35.5856H84.3185Z" fill="#008AEE"/>
<path d="M103.91 25.6794C104.217 26.4046 104.377 27.2035 104.377 28.0393C104.377 31.4315 101.624 34.1846 98.2316 34.1846H87.0225C86.494 34.1846 86.0024 34.4796 85.7688 34.9589L84.3063 37.8103L84.1465 38.6584L87.0717 35.7332H99.1411C102.533 35.7332 105.286 32.9801 105.286 29.5879C105.311 28.1007 104.783 26.7364 103.91 25.6794Z" fill="#008AEE"/>
<path d="M84.1588 31.0996C85.0413 31.0996 85.7566 30.3843 85.7566 29.5018C85.7566 28.6194 85.0413 27.9041 84.1588 27.9041C83.2764 27.9041 82.561 28.6194 82.561 29.5018C82.561 30.3843 83.2764 31.0996 84.1588 31.0996Z" stroke="white" stroke-miterlimit="10" stroke-linecap="round" stroke-linejoin="round"/>
<path d="M89.9479 31.0996C90.8303 31.0996 91.5457 30.3843 91.5457 29.5018C91.5457 28.6194 90.8303 27.9041 89.9479 27.9041C89.0655 27.9041 88.3501 28.6194 88.3501 29.5018C88.3501 30.3843 89.0655 31.0996 89.9479 31.0996Z" stroke="white" stroke-miterlimit="10" stroke-linecap="round" stroke-linejoin="round"/>
<path d="M95.8595 31.0996C96.7419 31.0996 97.4573 30.3843 97.4573 29.5018C97.4573 28.6194 96.7419 27.9041 95.8595 27.9041C94.9771 27.9041 94.2617 28.6194 94.2617 29.5018C94.2617 30.3843 94.9771 31.0996 95.8595 31.0996Z" stroke="white" stroke-miterlimit="10" stroke-linecap="round" stroke-linejoin="round"/>
<path d="M99.1658 23.4304H80.7298C77.3376 23.4304 74.5845 26.1835 74.5845 29.5758C74.5845 32.968 77.3376 35.7211 80.7298 35.7211H84.1589V38.6463L87.0841 35.7211H99.1535C102.546 35.7211 105.299 32.968 105.299 29.5758C105.311 26.1835 102.558 23.4304 99.1658 23.4304Z" stroke="#171819" stroke-miterlimit="10" stroke-linecap="round" stroke-linejoin="round"/>
<path d="M7.13309 1H25.5691C28.9613 1 31.7144 3.75311 31.7144 7.14534C31.7144 10.5376 28.9613 13.2907 25.5691 13.2907H22.14V16.2281L19.2148 13.303H7.14538C3.75315 13.303 1.00004 10.5499 1.00004 7.15763C0.98775 3.75311 3.74086 1 7.13309 1Z" fill="#FFE870"/>
<path d="M21.9805 13.1555C21.9805 12.3811 22.6073 11.7543 23.3816 11.7543H26.5034C28.4208 11.7543 30.1292 10.8817 31.2599 9.50513C30.3381 11.7297 28.1381 13.2907 25.5816 13.2907H21.9928V13.1555H21.9805Z" fill="#FFAC73"/>
<path d="M2.37677 3.24927C2.0695 3.97442 1.90972 4.77331 1.90972 5.60908C1.90972 9.0013 4.66283 11.7544 8.05506 11.7544H19.2642C19.7927 11.7544 20.2843 12.0494 20.5178 12.5287L21.9804 15.3802L22.1402 16.2282L19.215 13.303H7.14555C3.75332 13.303 1.00021 10.5499 1.00021 7.1577C0.987919 5.67053 1.51642 4.30627 2.37677 3.24927Z" fill="#FFAC73"/>
<path d="M22.1403 8.66945C23.0227 8.66945 23.7381 7.9541 23.7381 7.07166C23.7381 6.18923 23.0227 5.47388 22.1403 5.47388C21.2578 5.47388 20.5425 6.18923 20.5425 7.07166C20.5425 7.9541 21.2578 8.66945 22.1403 8.66945Z" stroke="white" stroke-miterlimit="10" stroke-linecap="round" stroke-linejoin="round"/>
<path d="M16.3512 8.66945C17.2336 8.66945 17.949 7.9541 17.949 7.07166C17.949 6.18923 17.2336 5.47388 16.3512 5.47388C15.4688 5.47388 14.7534 6.18923 14.7534 7.07166C14.7534 7.9541 15.4688 8.66945 16.3512 8.66945Z" stroke="white" stroke-miterlimit="10" stroke-linecap="round" stroke-linejoin="round"/>
<path d="M10.4396 8.66945C11.322 8.66945 12.0374 7.9541 12.0374 7.07166C12.0374 6.18923 11.322 5.47388 10.4396 5.47388C9.55715 5.47388 8.8418 6.18923 8.8418 7.07166C8.8418 7.9541 9.55715 8.66945 10.4396 8.66945Z" stroke="white" stroke-miterlimit="10" stroke-linecap="round" stroke-linejoin="round"/>
<path d="M7.13309 1H25.5691C28.9613 1 31.7144 3.75311 31.7144 7.14534C31.7144 10.5376 28.9613 13.2907 25.5691 13.2907H22.14V16.2281L19.2148 13.303H7.14538C3.75315 13.303 1.00004 10.5499 1.00004 7.15763C0.98775 3.75311 3.74086 1 7.13309 1Z" stroke="#171819" stroke-miterlimit="10" stroke-linecap="round" stroke-linejoin="round"/>
<path d="M49.0948 28.9436H31.3091V46.6422H49.0948V28.9436Z" fill="#F9F9F9"/>
<path d="M49.0948 28.9436H31.3091V46.6422H49.0948V28.9436Z" stroke="#333333" stroke-miterlimit="10" stroke-linecap="round" stroke-linejoin="round"/>
<path d="M47.1758 44.7231V30.8569L33.2225 30.8569V44.7231H47.1758Z" fill="#B7F2A7"/>
<path d="M65.8179 16.1052H52.3872V33.8038H65.8179V16.1052Z" fill="#F9F9F9"/>
<path d="M65.8179 16.1052H52.3872V33.8038H65.8179V16.1052Z" stroke="#333333" stroke-miterlimit="10" stroke-linecap="round" stroke-linejoin="round"/>
<path d="M63.8857 31.8857V18.0195H54.2874V31.8857H63.8857Z" fill="#9FD3ED"/>
<path d="M70.6955 37.793H52.3872V51.5024H70.6955V37.793Z" fill="#F9F9F9"/>
<path d="M70.6955 37.793H52.3872V51.5024H70.6955V37.793Z" stroke="#333333" stroke-miterlimit="10" stroke-linecap="round" stroke-linejoin="round"/>
<path d="M68.7749 49.5961V39.719H54.299V49.5961H68.7749Z" fill="#F97D7D"/>
<path d="M34.793 38.2632L39.566 33.5076" stroke="#333333" stroke-miterlimit="10" stroke-linecap="round" stroke-linejoin="round"/>
<path d="M39.0781 37.7929L43.3808 33.5076" stroke="#333333" stroke-miterlimit="10" stroke-linecap="round" stroke-linejoin="round"/>
<path d="M35.7339 41.1373L37.4933 39.3779" stroke="#333333" stroke-miterlimit="10" stroke-linecap="round" stroke-linejoin="round"/>
<path d="M56.3589 24.3448L59.6164 21.1047" stroke="#333333" stroke-miterlimit="10" stroke-linecap="round" stroke-linejoin="round"/>
<path d="M61.2363 23.5609L62.4906 22.3066" stroke="#333333" stroke-miterlimit="10" stroke-linecap="round" stroke-linejoin="round"/>
<path d="M55.8364 28.9437L59.843 24.9546" stroke="#333333" stroke-miterlimit="10" stroke-linecap="round" stroke-linejoin="round"/>
<path d="M58.6758 47.3913L64.5463 41.5034" stroke="#333333" stroke-miterlimit="10" stroke-linecap="round" stroke-linejoin="round"/>
<path d="M57.77 44.6564L60.4178 42.0085" stroke="#333333" stroke-miterlimit="10" stroke-linecap="round" stroke-linejoin="round"/>
<path d="M45.8046 67.4802H32.834C31.7925 67.4802 30.9404 68.3323 30.9404 69.3737V76.4176C30.9404 77.4591 31.7925 78.3112 32.834 78.3112H37.1701L39.3287 81L41.4873 78.3112H45.814C46.8555 78.3112 47.7076 77.4591 47.7076 76.4176V69.3737C47.6981 68.3323 46.8555 67.4802 45.8046 67.4802Z" fill="#FF4F7C"/>
<path d="M45.8046 67.4802H32.834C31.7925 67.4802 30.9404 68.3323 30.9404 69.3737V76.4176C30.9404 77.4591 31.7925 78.3112 32.834 78.3112H37.1701L39.3287 81L41.4873 78.3112H45.814C46.8555 78.3112 47.7076 77.4591 47.7076 76.4176V69.3737C47.6981 68.3323 46.8555 67.4802 45.8046 67.4802Z" stroke="#171819" stroke-miterlimit="10" stroke-linecap="round" stroke-linejoin="round"/>
<path d="M35.8446 74.1075C36.3518 74.1075 36.763 73.6963 36.763 73.1891C36.763 72.6819 36.3518 72.2708 35.8446 72.2708C35.3374 72.2708 34.9263 72.6819 34.9263 73.1891C34.9263 73.6963 35.3374 74.1075 35.8446 74.1075Z" fill="white"/>
<path d="M43.0497 74.1075C43.5569 74.1075 43.9681 73.6963 43.9681 73.1891C43.9681 72.6819 43.5569 72.2708 43.0497 72.2708C42.5425 72.2708 42.1313 72.6819 42.1313 73.1891C42.1313 73.6963 42.5425 74.1075 43.0497 74.1075Z" fill="white"/>
<path d="M39.4516 74.1075C39.9588 74.1075 40.3699 73.6963 40.3699 73.1891C40.3699 72.6819 39.9588 72.2708 39.4516 72.2708C38.9444 72.2708 38.5332 72.6819 38.5332 73.1891C38.5332 73.6963 38.9444 74.1075 39.4516 74.1075Z" fill="white"/>
<path fill-rule="evenodd" clip-rule="evenodd" d="M63.7961 74.1318C63.8013 74.1289 63.8064 74.1259 63.8115 74.1228H63.8124L63.8151 74.121L63.8196 74.1174L63.8341 74.1084C63.897 74.064 63.958 74.0169 64.0167 73.9672C64.1325 73.8691 64.2899 73.7225 64.4744 73.5156C64.8452 73.1009 65.3209 72.446 65.7857 71.4619C65.9476 71.1192 66.095 70.8268 66.2352 70.5489C66.4879 70.0643 66.7187 69.5687 66.927 69.0637C66.9612 68.9747 67.0209 68.8978 67.0989 68.8424C67.1585 68.8037 67.2047 68.8001 67.2436 68.8109C67.5158 68.8865 67.6541 69.0241 67.7428 69.2175C67.8459 69.4388 67.8902 69.7519 67.8992 70.1729C67.9065 70.5399 67.826 71.0292 67.712 71.5132C67.5999 71.9909 67.4624 72.4307 67.372 72.6844C67.3478 72.7523 67.3404 72.8249 67.3503 72.8961C67.3601 72.9674 67.3871 73.0353 67.4288 73.0941C67.4706 73.1529 67.5259 73.2008 67.5901 73.234C67.6543 73.2671 67.7256 73.2844 67.7979 73.2844H69.6664C69.807 73.2843 69.9457 73.3169 70.0714 73.3794C70.1972 73.442 70.3065 73.5328 70.3908 73.6448C70.4751 73.7567 70.532 73.8867 70.5569 74.0243C70.5819 74.162 70.5742 74.3035 70.5346 74.4377L69.3019 78.617C69.2511 78.7891 69.1663 78.9495 69.0524 79.0886C68.9385 79.2278 68.7979 79.3429 68.6387 79.4274C68.4795 79.5118 68.305 79.5638 68.1254 79.5804C67.9458 79.5969 67.7647 79.5777 67.5926 79.5237L62.7506 78.0107C62.6195 77.9698 62.4994 77.8996 62.3996 77.8057C62.2998 77.7117 62.2228 77.5963 62.1745 77.4683L61.7043 76.2233C61.6294 76.0252 61.6272 75.8072 61.698 75.6076C61.7688 75.408 61.9081 75.2396 62.0913 75.1321L63.7961 74.1318Z" fill="#00A8FF"/>
<path d="M66.0503 69.1052C66.2278 68.6658 66.7221 68.1926 67.3567 68.3692C67.8552 68.5078 68.1788 68.8086 68.3647 69.2108C68.5371 69.5852 68.5793 70.0262 68.5878 70.4462C68.5962 70.8983 68.5016 71.4399 68.3909 71.9148C68.3415 72.1246 68.2865 72.3331 68.2261 72.5401H69.3964C69.659 72.5401 69.918 72.6013 70.1528 72.7188C70.3876 72.8363 70.5918 73.007 70.7491 73.2172C70.9065 73.4273 71.0127 73.6713 71.0594 73.9297C71.1061 74.1881 71.0919 74.4538 71.018 74.7058L69.8654 78.6316C69.7863 78.901 69.6544 79.1519 69.4772 79.3697C69.3 79.5875 69.0812 79.7678 68.8335 79.9C68.5858 80.0323 68.3143 80.1138 68.0348 80.1399C67.7552 80.166 67.4733 80.1361 67.2054 80.052L62.6797 78.6307C62.4348 78.5538 62.2107 78.4222 62.0243 78.2457C61.838 78.0693 61.6942 77.8528 61.604 77.6125L61.1646 76.4431C61.0248 76.0709 61.0206 75.6613 61.1529 75.2864C61.2852 74.9114 61.5455 74.5951 61.8879 74.3931L63.4697 73.4603C63.6291 73.3342 63.777 73.1942 63.9117 73.042C64.2023 72.7133 64.602 72.1666 65.0034 71.314C65.1766 70.9456 65.3219 70.6558 65.4538 70.393C65.6675 69.9679 65.8467 69.6122 66.0503 69.1052ZM63.9243 74.1726C63.9196 74.1755 63.9148 74.1783 63.91 74.181L62.3172 75.1207C62.146 75.2217 62.0158 75.3798 61.9497 75.5673C61.8835 75.7547 61.8856 75.9595 61.9555 76.1456L62.3949 77.3151C62.44 77.4353 62.5119 77.5437 62.6052 77.632C62.6985 77.7203 62.8106 77.7862 62.9332 77.8246L67.4572 79.2459C67.618 79.2965 67.7872 79.3146 67.955 79.299C68.1228 79.2835 68.2859 79.2346 68.4346 79.1553C68.5833 79.076 68.7147 78.9679 68.8211 78.8371C68.9275 78.7064 69.0067 78.5558 69.0542 78.3941L70.2059 74.4683C70.243 74.3423 70.2501 74.2093 70.2268 74.0801C70.2035 73.9508 70.1504 73.8287 70.0716 73.7236C69.9929 73.6184 69.8907 73.5331 69.7732 73.4743C69.6557 73.4155 69.5261 73.385 69.3948 73.3851H67.649C67.5814 73.385 67.5148 73.3688 67.4548 73.3376C67.3948 73.3065 67.3431 73.2615 67.3041 73.2063C67.2651 73.1511 67.24 73.0873 67.2307 73.0203C67.2215 72.9534 67.2285 72.8852 67.251 72.8214C67.3355 72.5832 67.464 72.17 67.5687 71.7213C67.6752 71.2667 67.7504 70.807 67.7437 70.4623C67.7352 70.0668 67.6938 69.7727 67.5975 69.5649C67.5147 69.3832 67.3854 69.2539 67.131 69.1829C67.0947 69.1728 67.0516 69.1762 66.9958 69.2125C66.923 69.2645 66.8672 69.3368 66.8353 69.4204C66.6407 69.8948 66.425 70.3603 66.1889 70.8155C66.0579 71.0766 65.9202 71.3512 65.7689 71.6731C65.3346 72.5975 64.8901 73.2127 64.5437 73.6022C64.3713 73.7966 64.2243 73.9343 64.1161 74.0264C64.0612 74.0731 64.0043 74.1174 63.9455 74.1591L63.9319 74.1675L63.9277 74.1709L63.9252 74.1726H63.9243ZM63.4655 73.4628L63.4647 73.4636L63.4655 73.4628Z" fill="black"/>
</svg>
