
<svg width="112" height="97" viewBox="0 0 112 97" fill="none" xmlns="http://www.w3.org/2000/svg">
<path opacity="0.32" d="M89.5139 95.5373L12.9663 75.0264C11.2286 74.5608 10.2294 72.7649 10.6831 71.0718L25.32 16.4458C25.7857 14.7081 27.5816 13.7089 29.2747 14.1626L105.822 34.6735C107.56 35.1391 108.559 36.935 108.105 38.6281L93.4804 93.2095C93.0148 94.9472 91.2515 96.0029 89.5139 95.5373Z" fill="#848484"/>
<path d="M86.7612 91.5523L10.2136 71.0414C8.4759 70.5758 7.4767 68.7799 7.93037 67.0867L22.5554 12.5054C23.021 10.7677 24.8169 9.76852 26.51 10.2222L103.058 30.733C104.795 31.1987 105.795 32.9946 105.341 34.6877L90.7158 89.269C90.2947 91.0187 88.4988 92.0179 86.7612 91.5523Z" fill="#AFB1B2"/>
<path d="M86.7612 91.5523L10.2136 71.0414C8.4759 70.5758 7.4767 68.7799 7.93037 67.0867L22.5554 12.5054C23.021 10.7677 24.8169 9.76852 26.51 10.2222L103.058 30.733C104.795 31.1987 105.795 32.9946 105.341 34.6877L90.7158 89.269C90.2947 91.0187 88.4988 92.0179 86.7612 91.5523Z" stroke="#444E59" stroke-width="4" stroke-miterlimit="10" stroke-linecap="round" stroke-linejoin="round"/>
<path d="M81.9831 84.2548L5.43553 63.7439C3.69784 63.2783 2.69864 61.4824 3.15232 59.7893L17.7893 5.16337C18.2549 3.42568 20.0508 2.42648 21.7439 2.88015L98.2915 23.391C100.029 23.8566 101.028 25.6525 100.575 27.3457L85.9497 81.927C85.5286 83.6766 83.7208 84.7204 81.9831 84.2548Z" fill="white"/>
<path d="M81.9831 84.2548L5.43553 63.7439C3.69784 63.2783 2.69864 61.4824 3.15232 59.7893L17.7893 5.16337C18.2549 3.42568 20.0508 2.42648 21.7439 2.88015L98.2915 23.391C100.029 23.8566 101.028 25.6525 100.575 27.3457L85.9497 81.927C85.5286 83.6766 83.7208 84.7204 81.9831 84.2548Z" stroke="#444E59" stroke-width="4" stroke-miterlimit="10" stroke-linecap="round" stroke-linejoin="round"/>
<path d="M98.9357 33.6401L16.1057 11.4459L17.7532 5.29717C18.2308 3.51492 20.1071 2.39398 21.9339 2.88347L98.3923 23.3704C100.085 23.8241 101.097 25.5755 100.643 27.2686L98.9357 33.6401Z" fill="#BBBFC2"/>
<path d="M98.9357 33.6401L16.1057 11.4459L17.7532 5.29717C18.2308 3.51492 20.1071 2.39398 21.9339 2.88347L98.3923 23.3704C100.085 23.8241 101.097 25.5755 100.643 27.2686L98.9357 33.6401Z" stroke="#444E59" stroke-width="4" stroke-miterlimit="10" stroke-linecap="round" stroke-linejoin="round"/>
<path d="M24.9407 10.375C25.7527 10.5926 26.5874 10.1106 26.805 9.29859C27.0226 8.48654 26.5407 7.65185 25.7287 7.43426C24.9166 7.21667 24.0819 7.69858 23.8643 8.51063C23.6467 9.32269 24.1286 10.1574 24.9407 10.375Z" fill="#444E59"/>
<path d="M29.7976 11.6762C30.6097 11.8938 31.4444 11.4119 31.662 10.5999C31.8796 9.78781 31.3976 8.95312 30.5856 8.73553C29.7735 8.51794 28.9388 8.99985 28.7213 9.8119C28.5037 10.624 28.9856 11.4586 29.7976 11.6762Z" fill="#444E59"/>
<path d="M34.6097 12.9658C35.4217 13.1834 36.2564 12.7015 36.474 11.8894C36.6916 11.0774 36.2097 10.2427 35.3976 10.0251C34.5856 9.8075 33.7509 10.2894 33.5333 11.1015C33.3157 11.9135 33.7976 12.7482 34.6097 12.9658Z" fill="#444E59"/>
<path d="M86.7688 47.8584L18.9097 29.6756C18.4196 29.5442 18.126 29.0358 18.2573 28.5457L20.8003 19.0552C20.9316 18.5651 21.4401 18.2715 21.9302 18.4028L89.7893 36.5856C90.2794 36.717 90.573 37.2254 90.4416 37.7155L87.8987 47.206C87.7673 47.6961 87.2589 47.9897 86.7688 47.8584Z" fill="#6567C3"/>
<path opacity="0.2" d="M35.2375 46.8014L15.6773 41.5603C15.1872 41.4289 14.8937 40.9205 15.025 40.4304L16.3979 35.3064C16.5293 34.8163 17.0377 34.5227 17.5278 34.6541L37.088 39.8952C37.5781 40.0265 37.8717 40.535 37.7404 41.0251L36.3674 46.1491C36.2361 46.6392 35.7722 46.9447 35.2375 46.8014Z" fill="#444E59"/>
<path opacity="0.2" d="M16.6006 47.2041L32.2844 51.4066" stroke="#444E59" stroke-width="4" stroke-miterlimit="10" stroke-linecap="round" stroke-linejoin="round"/>
<path opacity="0.2" d="M15.2515 52.2388L30.9352 56.4412" stroke="#444E59" stroke-width="4" stroke-miterlimit="10" stroke-linecap="round" stroke-linejoin="round"/>
<path opacity="0.2" d="M59.7434 53.3676L40.1832 48.1264C39.6931 47.9951 39.3995 47.4867 39.5308 46.9965L40.9038 41.8726C41.0351 41.3825 41.5436 41.0889 42.0337 41.2202L61.5939 46.4614C62.084 46.5927 62.3775 47.1011 62.2462 47.5913L60.8733 52.7152C60.7419 53.2053 60.2335 53.4989 59.7434 53.3676Z" fill="#444E59"/>
<path opacity="0.2" d="M41.062 53.7583L56.122 57.7936" stroke="#444E59" stroke-width="4" stroke-miterlimit="10" stroke-linecap="round" stroke-linejoin="round"/>
<path opacity="0.2" d="M39.7129 58.7932L54.7729 62.8285" stroke="#444E59" stroke-width="4" stroke-miterlimit="10" stroke-linecap="round" stroke-linejoin="round"/>
<g opacity="0.2">
<path opacity="0.2" d="M81.3397 70.6156L61.7795 65.3745C61.2894 65.2432 60.9958 64.7347 61.1272 64.2446L65.3535 48.4717C65.4848 47.9816 65.9933 47.688 66.4834 47.8193L86.0436 53.0605C86.5337 53.1918 86.8273 53.7003 86.6959 54.1904L82.4696 69.9633C82.3383 70.4534 81.8298 70.7469 81.3397 70.6156Z" fill="#444E59"/>
</g>
<g opacity="0.09">
<path opacity="0.09" d="M79.3666 75.4832L60.7421 70.4928C60.0292 70.3017 59.6497 69.5792 59.8288 68.9109C60.0079 68.2426 60.7423 67.8185 61.4107 67.9976L80.0352 72.988C80.7481 73.1791 81.1275 73.9015 80.9485 74.5699C80.7694 75.2382 80.0349 75.6623 79.3666 75.4832Z" fill="#444E59"/>
</g>
</svg>
