<svg width="17" height="26" viewBox="0 0 17 26" fill="none" xmlns="http://www.w3.org/2000/svg">
<path opacity="0.4" d="M6.18972 19.3564L9.85899 8.07024C10.1975 7.04177 11.2942 6.48693 12.3097 6.82524C13.3387 7.16356 13.8938 8.2597 13.5553 9.27464L9.3174 22.3201C8.73519 24.0928 6.83962 25.0672 5.06592 24.4853C3.29221 23.9034 2.31735 22.0088 2.89956 20.236L7.63847 5.68851C8.36961 3.4421 10.7932 2.21063 13.0408 2.94139C15.2884 3.67215 16.5205 6.09448 15.7894 8.34089L11.5515 21.3592" stroke="#2B5621" stroke-miterlimit="10" stroke-linecap="round" stroke-linejoin="round"/>
<path d="M4.61282 18.0666L8.44554 6.49054C8.79912 5.43565 9.94468 4.86657 11.0054 5.21357C12.0803 5.56057 12.6601 6.68487 12.3065 7.72588L7.87983 21.1063C7.27169 22.9246 5.29168 23.924 3.43897 23.3272C1.58625 22.7303 0.567966 20.7871 1.17611 18.9688L6.11197 4.03376C6.87569 1.72965 9.40725 0.466562 11.755 1.21609C14.1027 1.96562 15.3897 4.45016 14.626 6.75427L10.1993 20.107" stroke="#FDFFFF" stroke-miterlimit="10" stroke-linecap="round" stroke-linejoin="round"/>
</svg>
