<svg width="46" height="53" viewBox="0 0 46 53" fill="none" xmlns="http://www.w3.org/2000/svg">
<path d="M19.8886 51.2848L2.59557 41.3007C1.18232 40.4847 0.693604 38.6609 1.50954 37.2476L21.5223 2.58444C22.3383 1.17119 24.1622 0.682482 25.5754 1.49842L42.8684 11.4826C44.2817 12.2985 44.7704 14.1224 43.9545 15.5356L23.9417 50.1988C23.1109 51.6377 21.3018 52.1008 19.8886 51.2848Z" fill="white"/>
<path d="M38.8993 25.1222L16.1075 11.9633L21.552 2.53305C22.3531 1.1455 24.1365 0.667645 25.524 1.46875L43.1254 11.6309C44.59 12.4765 45.0748 14.3666 44.244 15.8056L38.8736 25.1073L38.8993 25.1222Z" fill="#6567C3"/>
<path d="M19.8886 51.2848L2.59556 41.3007C1.18232 40.4847 0.693603 38.6609 1.50954 37.2476L21.5223 2.58444C22.3383 1.17119 24.1622 0.682482 25.5754 1.49842L42.8684 11.4826C44.2817 12.2985 44.7704 14.1224 43.9545 15.5356L23.9417 50.1988C23.1109 51.6377 21.3019 52.1008 19.8886 51.2848Z" stroke="#444E59" stroke-width="2" stroke-miterlimit="10" stroke-linecap="round" stroke-linejoin="round"/>
<path d="M19.9138 51.2997L2.67219 41.3453C1.20755 40.4997 0.697129 38.5947 1.54274 37.1301L4.39111 32.1965L26.8489 45.1626L23.9264 50.2246C23.1104 51.6378 21.3014 52.1008 19.9138 51.2997Z" fill="#BBBFC2"/>
<path d="M19.9652 51.3294L2.67219 41.3453C1.20755 40.4997 0.697129 38.5947 1.54274 37.1301L4.39111 32.1965L26.8489 45.1626L23.8967 50.276C23.0956 51.6635 21.3271 52.1157 19.9652 51.3294Z" stroke="#444E59" stroke-width="2" stroke-miterlimit="10" stroke-linecap="round" stroke-linejoin="round"/>
<path d="M12.9516 43.7168C13.6612 44.1265 14.5685 43.8834 14.9782 43.1738C15.3878 42.4643 15.1447 41.5569 14.4352 41.1473C13.7256 40.7376 12.8183 40.9807 12.4086 41.6903C11.999 42.3999 12.2421 43.3072 12.9516 43.7168Z" fill="#444E59"/>
<path opacity="0.3" d="M18.8696 18.8687L31.5375 26.1824" stroke="#444E59" stroke-width="2" stroke-miterlimit="10" stroke-linecap="round" stroke-linejoin="round"/>
<path opacity="0.3" d="M19.0884 24.3052L27.054 28.9041" stroke="#444E59" stroke-width="2" stroke-miterlimit="10" stroke-linecap="round" stroke-linejoin="round"/>
<path opacity="0.3" d="M14.4785 26.4744L27.1464 33.7882" stroke="#444E59" stroke-width="2" stroke-miterlimit="10" stroke-linecap="round" stroke-linejoin="round"/>
<path opacity="0.62" d="M28.7516 16.3512C30.341 17.2688 32.3734 16.7242 33.291 15.1348C34.2087 13.5454 33.6641 11.513 32.0747 10.5954C30.4853 9.67774 28.4529 10.2223 27.5352 11.8117C26.6176 13.4011 27.1622 15.4335 28.7516 16.3512Z" fill="white"/>
<path d="M22.6628 36.5101C22.2029 37.3066 21.1896 37.5781 20.393 37.1182L14.9713 33.988C14.1747 33.5281 13.9032 32.5148 14.3631 31.7183C14.823 30.9217 15.8363 30.6502 16.6329 31.1101L22.0546 34.2403C22.866 34.6745 23.1375 35.6878 22.6628 36.5101Z" fill="#ED8B3B"/>
</svg>
