<svg width="232" height="531" viewBox="0 0 232 531" fill="none" xmlns="http://www.w3.org/2000/svg">
<g opacity="0.25">
<path d="M-1.0048 444.918C19.1009 434.366 37.2123 419.926 52.3623 402.013C83.0965 365.674 97.8415 319.51 93.8835 272.142C89.9176 224.68 67.7235 181.698 31.3848 150.963C-4.95394 120.229 -51.1181 105.484 -98.486 109.442C-122.644 111.461 -145.596 118.196 -166.436 129.096L-176.257 110.312C-152.998 98.1135 -127.251 90.5722 -100.251 88.3161C-47.1993 83.8831 4.45219 100.364 45.1023 134.744C85.7524 169.125 110.62 217.274 115.01 270.377C119.443 323.429 102.962 375.081 68.5813 415.731C51.6515 435.748 31.3931 451.893 8.91134 463.693L-1.0048 444.918Z" fill="#F5DA8D"/>
<path d="M-1.00479 444.918C19.1009 434.366 37.2123 419.926 52.3623 402.013C83.0965 365.674 97.8415 319.51 93.8835 272.142C89.9176 224.68 67.7235 181.698 31.3848 150.963C-4.95394 120.229 -51.1181 105.484 -98.486 109.442C-122.644 111.461 -145.596 118.196 -166.436 129.096L-176.257 110.312C-152.998 98.1135 -127.251 90.5722 -100.251 88.3161C-47.1993 83.8831 4.4522 100.364 45.1023 134.744C85.7524 169.125 110.62 217.274 115.01 270.377C119.443 323.429 102.962 375.081 68.5813 415.731C51.6515 435.748 31.3931 451.893 8.91134 463.693L-1.00479 444.918Z" stroke="#3D0938" stroke-width="2" stroke-miterlimit="10" stroke-linecap="round" stroke-linejoin="round"/>
<path d="M-10.8695 426.185C6.86009 416.881 22.8244 404.147 36.1513 388.39C63.239 356.363 76.205 315.737 72.7575 273.907C69.2665 232.129 49.6868 194.175 17.6594 167.087C-14.368 140 -54.9936 127.034 -96.8233 130.481C-118.139 132.262 -138.392 138.2 -156.666 147.835L-166.487 129.052C-145.648 118.153 -122.652 111.366 -98.5373 109.398C-51.0747 105.433 -5.00523 120.185 31.3335 150.92C67.6723 181.654 89.8742 224.731 93.8322 272.099C97.7981 319.561 83.0452 365.631 52.311 401.969C37.2044 419.831 19.093 434.271 -1.0561 444.874L-10.8695 426.185Z" fill="#E38980"/>
<path d="M-10.8695 426.185C6.86009 416.881 22.8244 404.147 36.1513 388.39C63.239 356.363 76.205 315.737 72.7575 273.907C69.2665 232.129 49.6868 194.175 17.6594 167.087C-14.368 140 -54.9935 127.034 -96.8234 130.481C-118.139 132.262 -138.392 138.2 -156.666 147.836L-166.487 129.052C-145.648 118.153 -122.652 111.366 -98.5373 109.398C-51.0747 105.433 -5.00523 120.185 31.3335 150.92C67.6723 181.654 89.8742 224.731 93.8322 272.099C97.7981 319.561 83.0452 365.631 52.311 401.969C37.2044 419.831 19.093 434.271 -1.0561 444.874L-10.8695 426.185Z" stroke="#3D0938" stroke-width="2" stroke-miterlimit="10" stroke-linecap="round" stroke-linejoin="round"/>
<path d="M-20.691 407.402C-5.33745 399.346 8.47991 388.318 19.9835 374.716C43.4249 347 54.6552 311.862 51.6313 275.673C48.6074 239.484 31.7012 206.696 3.98523 183.255C-23.7308 159.814 -58.8691 148.583 -95.0582 151.607C-113.437 153.143 -130.99 158.283 -146.845 166.619L-156.666 147.836C-138.297 138.192 -118.044 132.254 -96.8234 130.481C-55.0449 126.99 -14.368 140 17.6593 167.087C49.6867 194.175 69.2151 232.086 72.7574 273.907C76.2484 315.686 63.2389 356.363 36.1512 388.39C22.8244 404.147 6.86002 416.881 -10.8696 426.185L-20.691 407.402Z" fill="#CC5F7E"/>
<path d="M-20.691 407.402C-5.33745 399.346 8.47992 388.318 19.9835 374.716C43.4249 347 54.6552 311.862 51.6313 275.673C48.6074 239.484 31.7012 206.696 3.98522 183.255C-23.7308 159.814 -58.8691 148.583 -95.0582 151.607C-113.437 153.143 -130.99 158.283 -146.845 166.619L-156.666 147.836C-138.297 138.192 -118.044 132.254 -96.8234 130.481C-55.0449 126.99 -14.368 140 17.6593 167.087C49.6867 194.175 69.2151 232.086 72.7574 273.907C76.2484 315.686 63.2389 356.363 36.1512 388.39C22.8244 404.147 6.86002 416.881 -10.8696 426.185L-20.691 407.402Z" stroke="#3D0938" stroke-width="2" stroke-miterlimit="10" stroke-linecap="round" stroke-linejoin="round"/>
<path d="M-40.3773 369.886C-29.9574 364.436 -20.4261 356.914 -12.3518 347.368C20.9869 307.95 16.0553 248.929 -23.363 215.59C-53.286 190.282 -94.4818 187.047 -127.202 204.186L-137.023 185.403C-123.588 178.365 -108.83 174.032 -93.2929 172.733C-62.788 170.184 -33.0422 179.671 -9.68894 199.423C13.7157 219.218 27.9996 246.882 30.5052 277.438C33.0541 307.943 23.5673 337.689 3.81581 361.042C-5.908 372.539 -17.5784 381.861 -30.5559 388.67L-40.3773 369.886Z" fill="#36C2E3"/>
<path d="M-40.3773 369.886C-29.9574 364.436 -20.4261 356.914 -12.3518 347.368C20.9869 307.95 16.0553 248.929 -23.363 215.59C-53.2861 190.282 -94.4818 187.047 -127.202 204.186L-137.023 185.403C-123.588 178.365 -108.83 174.032 -93.2929 172.733C-62.788 170.184 -33.0422 179.671 -9.68894 199.423C13.7157 219.218 27.9996 246.882 30.5052 277.438C33.0541 307.943 23.5673 337.689 3.81581 361.042C-5.908 372.539 -17.5784 381.861 -30.5559 388.67L-40.3773 369.886Z" stroke="#3D0938" stroke-width="2" stroke-miterlimit="10" stroke-linecap="round" stroke-linejoin="round"/>
<path d="M-30.5124 388.618C-17.5349 381.81 -5.90792 372.539 3.8593 360.991C23.6542 337.586 33.1489 307.935 30.5486 277.387C27.9997 246.882 13.7078 219.123 -9.64546 199.371C-33.0501 179.576 -62.7011 170.082 -93.2495 172.682C-108.786 173.98 -123.588 178.365 -136.98 185.351L-146.801 166.568C-130.946 158.231 -113.393 153.092 -95.0147 151.556C-58.8257 148.532 -23.6873 159.762 4.02865 183.204C31.7446 206.645 48.6508 239.432 51.6747 275.621C54.6987 311.81 43.4683 346.949 20.027 374.665C8.47993 388.317 -5.294 399.294 -20.6476 407.35L-30.5124 388.618Z" fill="#6D4F8D"/>
<path d="M-30.5124 388.618C-17.5349 381.81 -5.90792 372.539 3.8593 360.991C23.6542 337.586 33.1489 307.935 30.5486 277.387C27.9997 246.882 13.7078 219.123 -9.64545 199.371C-33.0501 179.576 -62.7011 170.082 -93.2495 172.682C-108.786 173.98 -123.588 178.365 -136.98 185.351L-146.801 166.568C-130.946 158.231 -113.393 153.092 -95.0147 151.556C-58.8257 148.532 -23.6873 159.762 4.02865 183.204C31.7446 206.645 48.6508 239.432 51.6747 275.621C54.6987 311.81 43.4683 346.949 20.027 374.665C8.47994 388.317 -5.29401 399.294 -20.6476 407.35L-30.5124 388.618Z" stroke="#3D0938" stroke-width="2" stroke-miterlimit="10" stroke-linecap="round" stroke-linejoin="round"/>
<path opacity="0.43" d="M-40.3777 369.886L-30.5563 388.67L-10.8701 426.185L-1.04869 444.969L8.7727 463.752C31.3058 451.996 51.5562 435.756 68.4427 415.79C71.3511 412.351 74.1135 408.877 76.7219 405.272C76.26 404.882 75.7981 404.491 75.3361 404.1C72.6672 401.843 69.8325 399.886 66.8321 398.228C67.135 393.29 66.826 388.451 65.9486 383.659C64.3598 374.919 60.8053 366.631 55.6247 359.432C53.1963 356.057 50.4047 352.904 47.258 350.067C46.7448 349.632 46.2749 349.147 45.7103 348.67C43.7599 347.02 41.7227 345.473 39.6066 344.124C33.507 340.197 26.8906 337.507 20.0849 335.977C12.3082 334.241 4.14095 334.113 -3.71011 335.484C-6.22763 339.606 -9.0886 343.613 -12.3009 347.411C-20.4265 356.915 -29.9578 364.437 -40.3777 369.886Z" fill="#3D0938"/>
<path d="M-113.119 338.474C-103.991 328.41 -88.4582 327.637 -78.3943 336.765C-77.4625 337.641 -76.5741 338.568 -75.7291 339.547C-62.0571 331.918 -44.5698 333.414 -32.2909 344.503C-29.6574 346.906 -27.4818 349.539 -25.6693 352.392C-5.65555 336.744 23.3461 337.326 42.7989 354.923C56.4715 367.279 62.2545 385.112 59.7636 402.111C64.268 404.071 68.5002 406.77 72.2707 410.224C91.3642 427.517 92.8274 457.015 75.5342 476.109C58.241 495.202 28.7424 496.666 9.64894 479.372C8.51185 478.323 7.41816 477.221 6.36789 476.069C-12.2659 484.256 -34.7431 481.269 -50.7925 466.727C-67.3552 451.75 -72.3341 428.698 -65.0714 408.869C-71.3796 407.583 -77.4948 404.612 -82.6077 399.936C-88.7985 394.348 -92.6962 387.089 -94.19 379.487C-100.285 379.615 -106.467 377.556 -111.367 373.147C-121.423 364.114 -122.196 348.581 -113.119 338.474Z" fill="white"/>
<path d="M-107.898 334.174C-111.744 343.51 -109.579 354.586 -101.678 361.796C-96.7785 366.204 -90.6399 368.315 -84.5017 368.136C-83.0079 375.738 -79.1102 382.997 -72.9194 388.585C-67.763 393.21 -61.6913 396.232 -55.383 397.518C-62.6023 417.296 -57.6748 440.304 -41.1042 455.375C-25.0547 469.918 -2.5855 472.81 16.0563 464.718C17.1065 465.87 18.2002 466.971 19.3373 468.021C36.9344 483.961 63.3583 483.947 80.9406 468.884C79.3898 471.446 77.5903 473.886 75.4988 476.255C58.2055 495.348 28.707 496.811 9.61347 479.518C8.47638 478.468 7.3827 477.367 6.33243 476.215C-12.3014 484.402 -34.7786 481.415 -50.828 466.872C-67.3907 451.896 -72.3696 428.844 -65.1068 409.015C-71.4151 407.729 -77.5303 404.758 -82.6432 400.082C-88.834 394.494 -92.7317 387.235 -94.2255 379.633C-100.32 379.76 -106.502 377.701 -111.402 373.293C-121.466 364.165 -122.239 348.632 -113.111 338.568C-111.592 336.772 -109.757 335.331 -107.898 334.174Z" fill="#CCFFFF"/>
<path d="M-113.119 338.474C-103.991 328.41 -88.4582 327.637 -78.3942 336.765C-77.4625 337.641 -76.5741 338.568 -75.7291 339.547C-62.0571 331.918 -44.5698 333.414 -32.2909 344.503C-29.6574 346.906 -27.4818 349.539 -25.6693 352.392C-5.65555 336.744 23.3461 337.326 42.7989 354.923C56.4715 367.279 62.2545 385.112 59.7636 402.111C64.268 404.071 68.5002 406.77 72.2707 410.224C91.3642 427.517 92.8274 457.015 75.5342 476.109C58.241 495.202 28.7424 496.666 9.64894 479.372C8.51185 478.323 7.41816 477.221 6.36789 476.069C-12.2659 484.256 -34.7431 481.269 -50.7925 466.727C-67.3552 451.75 -72.3341 428.698 -65.0714 408.869C-71.3796 407.583 -77.4948 404.612 -82.6077 399.936C-88.7985 394.348 -92.6962 387.089 -94.19 379.487C-100.285 379.615 -106.467 377.556 -111.367 373.147C-121.423 364.114 -122.196 348.581 -113.119 338.474Z" stroke="#3D0938" stroke-width="2" stroke-miterlimit="10" stroke-linecap="round" stroke-linejoin="round"/>
<path opacity="0.43" d="M105.512 343.959C104.166 343.26 102.95 342.408 101.77 341.41C100.846 340.628 100.06 339.788 99.2665 338.852C91.9026 330.071 93.0484 316.953 101.881 309.633C105.674 306.502 110.308 304.874 114.93 304.822C113.623 320.004 110.571 334.855 105.853 349.177C105.513 347.393 105.371 345.688 105.512 343.959Z" fill="#3D0938"/>
<path d="M106.13 314.811C112.106 309.828 120.948 310.616 125.879 316.547C125.982 316.634 126.041 316.772 126.093 316.816C134.346 312.263 144.937 314.001 151.243 321.535C156.652 328.047 157.301 336.96 153.498 343.956C156.119 344.5 158.571 345.869 160.379 348.103C164.722 353.273 164.029 360.963 158.859 365.306C153.689 369.649 145.999 368.956 141.656 363.786C140.223 362.046 139.342 360.068 138.978 358C132.068 363.777 121.686 362.832 115.909 355.921C111.985 351.193 111.075 344.877 113.154 339.504C109.827 339.067 106.637 337.426 104.256 334.619C99.4109 328.585 100.198 319.743 106.13 314.811Z" fill="white"/>
<path d="M107.298 329.357C109.627 332.12 112.868 333.804 116.196 334.242C114.117 339.615 114.975 345.887 118.951 350.658C124.779 357.612 135.11 358.514 142.02 352.737C142.384 354.806 143.265 356.783 144.698 358.524C149.041 363.694 156.731 364.387 161.901 360.044C162.256 359.728 162.611 359.412 162.872 359.104C162.253 361.397 160.911 363.608 158.902 365.255C153.732 369.598 146.042 368.905 141.699 363.735C140.266 361.994 139.385 360.017 139.021 357.949C132.111 363.725 121.729 362.78 115.952 355.87C112.028 351.141 111.118 344.826 113.197 339.453C109.87 339.016 106.68 337.374 104.299 334.568C99.7936 329.173 100.048 321.377 104.579 316.228C103.325 320.626 104.166 325.564 107.298 329.357Z" fill="#CCFFFF"/>
<path d="M106.13 314.811C112.106 309.828 120.948 310.616 125.879 316.547C125.982 316.634 126.041 316.772 126.093 316.816C134.346 312.263 144.937 314.001 151.243 321.535C156.652 328.047 157.301 336.96 153.498 343.956C156.119 344.5 158.571 345.869 160.379 348.103C164.722 353.273 164.029 360.963 158.859 365.306C153.689 369.649 145.999 368.956 141.656 363.786C140.223 362.046 139.342 360.068 138.978 358C132.068 363.777 121.686 362.832 115.909 355.921C111.985 351.193 111.075 344.877 113.154 339.504C109.827 339.067 106.637 337.426 104.256 334.619C99.4109 328.585 100.198 319.743 106.13 314.811Z" stroke="#3D0938" stroke-width="2" stroke-miterlimit="10" stroke-linecap="round" stroke-linejoin="round"/>
</g>
</svg>
