<svg width="153" height="166" viewBox="0 0 153 166" fill="none" xmlns="http://www.w3.org/2000/svg">
<g opacity="0.3">
<path d="M28 92.3184L34.8 101.385L38.2755 95.7939L28 92.3184Z" fill="#F0406F"/>
<path d="M28 92.3184L34.8 101.385L38.2755 95.7939L28 92.3184Z" stroke="#3D0938" stroke-width="2" stroke-miterlimit="10" stroke-linecap="round" stroke-linejoin="round"/>
<path d="M32.7349 83L38.2756 95.794L44.2696 92.4696L32.7349 83Z" fill="#F0406F"/>
<path d="M32.7349 83L38.2756 95.794L44.2696 92.4696L32.7349 83Z" stroke="#3D0938" stroke-width="2" stroke-miterlimit="10" stroke-linecap="round" stroke-linejoin="round"/>
<path d="M128.488 102.644C123.703 103.249 112.974 103.752 100.684 99.3199C84.0113 93.3259 75.4988 94.3333 71.8218 95.4414C70.5625 95.794 69.3033 96.2473 68.044 96.8014C57.1641 101.889 52.4797 114.884 57.6174 125.714C60.8411 132.615 67.2381 136.997 74.2395 138.004C74.2395 138.004 74.441 138.054 74.844 138.054C74.9447 138.054 75.0454 138.054 75.1462 138.105C77.7654 138.407 85.6232 139.062 90.9624 137.4C96.5031 134.78 88.4439 132.01 88.4439 132.01C88.4439 132.01 94.7401 133.773 99.4749 131.355C106.426 127.779 98.669 125.26 98.669 125.26C98.669 125.26 105.519 127.326 110.556 122.692C113.73 119.77 110.959 118.763 108.441 118.41C111.967 118.461 117.81 117.957 119.774 114.28C121.184 111.661 118.011 111.056 115.644 110.955C118.616 110.855 123.904 110.25 126.927 107.933C128.337 106.825 129.294 105.868 129.949 105.062C130.755 104.055 129.848 102.493 128.488 102.644Z" fill="#D4907F"/>
<path d="M128.488 102.644C123.703 103.249 112.974 103.752 100.684 99.3199C84.0113 93.3259 75.4988 94.3333 71.8218 95.4414C70.5625 95.794 69.3033 96.2473 68.044 96.8014C57.1641 101.889 52.4797 114.884 57.6174 125.714C60.8411 132.615 67.2381 136.997 74.2395 138.004C74.2395 138.004 74.441 138.054 74.844 138.054C74.9447 138.054 75.0454 138.054 75.1462 138.105C77.7654 138.407 85.6232 139.062 90.9624 137.4C96.5031 134.78 88.4439 132.01 88.4439 132.01C88.4439 132.01 94.7401 133.773 99.4749 131.355C106.426 127.779 98.669 125.26 98.669 125.26C98.669 125.26 105.519 127.326 110.556 122.692C113.73 119.77 110.959 118.763 108.441 118.41C111.967 118.461 117.81 117.957 119.774 114.28C121.184 111.661 116.701 111.006 114.384 110.905C117.356 110.804 123.904 110.25 126.927 107.933C128.337 106.825 129.294 105.868 129.949 105.062C130.755 104.055 129.848 102.493 128.488 102.644Z" stroke="#3D0938" stroke-width="2" stroke-miterlimit="10" stroke-linecap="round" stroke-linejoin="round"/>
<path d="M95.9492 141.782C95.9492 141.782 106.426 144.2 121.436 153.417C136.497 162.585 142.743 160.419 142.743 160.419" stroke="#3D0938" stroke-width="2" stroke-miterlimit="10" stroke-linecap="round" stroke-linejoin="round"/>
<path d="M125.013 164.599C125.013 164.599 118.112 164.348 111.262 155.432C104.411 146.517 101.691 142.235 98.8203 142.034" stroke="#3D0938" stroke-width="2" stroke-miterlimit="10" stroke-linecap="round" stroke-linejoin="round"/>
<path d="M150.601 124.203C151.054 123.699 151.457 122.843 151.306 121.987C151.256 121.785 151.104 121.231 150.601 120.878C150.097 120.475 149.392 120.324 148.636 120.475C150.147 120.123 151.104 118.763 150.903 117.453C150.651 116.144 149.241 115.187 147.73 115.388C148.485 115.287 149.09 114.884 149.442 114.33C149.744 113.827 149.744 113.273 149.694 113.021C149.593 112.164 148.888 111.51 148.284 111.207C146.974 110.553 145.312 111.258 143.901 111.862C141.131 113.021 139.419 114.784 138.21 116.043C137.303 117 136.044 118.41 134.885 120.375C136.648 121.785 138.31 122.692 139.469 123.246C141.03 124.001 143.247 125.009 146.269 125.16C147.78 125.21 149.593 125.261 150.601 124.203Z" fill="#F0406F"/>
<path d="M150.349 121.987C150.299 121.785 150.147 121.231 149.644 120.878C149.543 120.828 149.442 120.778 149.342 120.677C149.19 121.03 148.989 121.281 148.787 121.533C147.78 122.591 145.967 122.541 144.456 122.49C141.433 122.339 139.217 121.332 137.656 120.576C136.85 120.224 135.893 119.67 134.785 118.964C134.482 119.418 134.18 119.871 133.878 120.375C135.641 121.785 137.303 122.692 138.462 123.246C140.023 124.001 142.239 125.009 145.262 125.16C146.773 125.21 148.586 125.261 149.593 124.203C150.147 123.699 150.55 122.843 150.349 121.987Z" fill="#DB2C62"/>
<path d="M147.679 111.711C147.327 112.265 146.722 112.668 145.967 112.769C147.075 112.618 148.133 113.121 148.687 113.877C148.788 113.524 148.737 113.222 148.737 113.071C148.636 112.416 148.233 111.862 147.78 111.51C147.73 111.56 147.73 111.61 147.679 111.711Z" fill="#DB2C62"/>
<path d="M133.928 120.324C134.079 120.425 134.23 120.526 134.382 120.677C135.036 119.77 135.691 119.065 136.245 118.511C137.454 117.252 139.167 115.539 141.937 114.33C143.347 113.726 145.01 113.071 146.319 113.675C146.823 113.927 147.377 114.431 147.629 115.086C147.981 114.884 148.284 114.632 148.485 114.33C148.787 113.827 148.787 113.273 148.737 113.021C148.636 112.164 147.931 111.51 147.327 111.207C146.017 110.553 144.355 111.258 142.944 111.862C140.174 113.021 138.462 114.784 137.253 116.043C136.346 117 135.087 118.41 133.928 120.324Z" fill="#F96291"/>
<path d="M150.601 124.203C151.054 123.699 151.457 122.843 151.306 121.987C151.256 121.785 151.104 121.231 150.601 120.878C150.097 120.475 149.392 120.324 148.636 120.475C150.147 120.123 151.104 118.763 150.903 117.453C150.651 116.144 149.241 115.187 147.73 115.388C148.485 115.287 149.09 114.884 149.442 114.33C149.744 113.827 149.744 113.273 149.694 113.021C149.593 112.164 148.888 111.51 148.284 111.207C146.974 110.553 145.312 111.258 143.901 111.862C141.131 113.021 139.419 114.784 138.21 116.043C137.303 117 136.044 118.41 134.885 120.375C136.648 121.785 138.31 122.692 139.469 123.246C141.03 124.001 143.247 125.009 146.269 125.16C147.78 125.21 149.593 125.261 150.601 124.203Z" stroke="#3D0938" stroke-width="2" stroke-miterlimit="10" stroke-linecap="round" stroke-linejoin="round"/>
<path d="M134.835 120.375C134.835 120.375 111.917 122.44 88.4441 105.465C80.4353 99.6726 75.1968 95.9452 71.7716 93.6281C70.1094 92.117 68.1954 90.8074 66.0798 89.8504C65.3243 89.3971 65.3746 89.4978 65.3746 89.4978C62.5539 88.2889 59.3806 87.5837 56.1065 87.5837C43.2118 87.5837 32.7349 98.0607 32.7349 110.955C32.7349 119.72 37.5704 127.376 44.7229 131.355C44.7229 131.355 44.7733 131.406 44.874 131.406C45.7807 131.909 46.7377 132.312 47.6947 132.715C58.2725 137.148 95.647 149.489 134.835 120.375Z" fill="#F1CB9C"/>
<path d="M56.1065 90.3037C59.3806 90.3037 62.5539 91.0089 65.3746 92.2178C65.3746 92.2178 65.3243 92.117 66.0798 92.5703C68.145 93.5777 70.0591 94.837 71.7716 96.3481C75.1968 98.7155 80.3849 102.393 88.4441 108.185C106.678 121.332 125.718 121.886 132.82 121.986C133.878 121.231 133.777 121.684 134.835 120.878C134.835 120.878 111.917 122.943 88.4441 105.969C80.4353 100.176 75.1968 96.4488 71.7716 94.1318C70.1094 92.6207 68.1954 91.3111 66.0798 90.3541C65.3243 89.9007 65.3746 90.0015 65.3746 90.0015C62.5539 88.7926 59.3806 88.0874 56.1065 88.0874C43.2118 88.0874 32.7349 98.5644 32.7349 111.459C32.7349 111.812 32.7349 112.114 32.7852 112.416C33.44 100.075 43.6148 90.3037 56.1065 90.3037Z" fill="#F8E4C1"/>
<path d="M129.143 120.324C92.6249 143.142 59.0281 132.061 49.1052 127.829C48.1482 127.477 47.1911 127.023 46.2845 126.52C46.1837 126.469 46.1334 126.469 46.1334 126.469C38.9808 122.49 34.1453 114.834 34.1453 106.07C34.1453 104.659 34.2964 103.299 34.4979 101.939C33.3394 104.71 32.6846 107.732 32.6846 110.905C32.6846 119.669 37.5201 127.326 44.6726 131.305C44.6726 131.305 44.723 131.355 44.8238 131.355C45.7304 131.859 46.6874 132.262 47.6445 132.665C58.2222 137.148 95.5968 149.438 134.785 120.324C134.835 120.375 132.719 120.526 129.143 120.324Z" fill="#D4907F"/>
<path d="M134.835 120.375C134.835 120.375 111.917 122.44 88.4441 105.465C80.4353 99.6726 75.1968 95.9452 71.7716 93.6281C70.1094 92.117 68.1953 90.8074 66.0798 89.8504C65.3243 89.3971 65.3746 89.4978 65.3746 89.4978C62.5539 88.2889 59.3806 87.5837 56.1065 87.5837C43.2118 87.5837 32.7349 98.0607 32.7349 110.955C32.7349 119.72 37.5704 127.376 44.7229 131.355C44.7229 131.355 44.7733 131.406 44.874 131.406C45.7807 131.909 46.7377 132.312 47.6947 132.715C58.2725 137.148 95.647 149.489 134.835 120.375Z" stroke="#3D0938" stroke-width="2" stroke-miterlimit="10" stroke-linecap="round" stroke-linejoin="round"/>
<path d="M118.263 141.933C113.679 140.422 103.756 136.342 94.5387 127.124C81.9966 114.582 73.8367 111.862 70.0589 111.358C68.7493 111.106 67.4396 111.006 66.0797 111.006C54.0916 111.006 44.3198 120.727 44.3198 132.765C44.3198 140.371 48.2487 147.071 54.142 150.949C54.142 150.949 54.3435 151.05 54.6457 151.251C54.7464 151.302 54.7968 151.352 54.8975 151.402C57.1138 152.762 63.9641 156.742 69.5048 157.497C75.65 157.497 69.5048 151.554 69.5048 151.554C69.5048 151.554 74.4411 155.835 79.73 155.633C87.5373 155.382 81.5937 149.74 81.5937 149.74C81.5937 149.74 86.8825 154.525 93.4306 152.46C97.561 151.151 95.4454 149.085 93.3299 147.675C96.5032 149.236 101.993 151.302 105.368 148.783C107.736 147.02 105.116 145.106 103.051 143.998C105.822 145.157 110.808 146.869 114.536 146.063C116.299 145.66 117.558 145.207 118.515 144.754C119.724 144.199 119.573 142.386 118.263 141.933Z" fill="#EFAB89"/>
<path d="M69.9583 152.914C64.4175 152.158 57.5672 148.179 55.3509 146.819C55.2502 146.768 55.1998 146.718 55.0991 146.668C54.7969 146.466 54.5954 146.365 54.5954 146.365C48.7021 142.487 44.7732 135.788 44.7732 128.182C44.7732 128.131 44.7732 128.081 44.7732 128.031C44.4206 129.542 44.2695 131.103 44.2695 132.715C44.2695 140.321 48.1984 147.02 54.0917 150.899C54.0917 150.899 54.2932 151 54.5954 151.201C54.6961 151.251 54.7465 151.302 54.8472 151.352C57.0635 152.712 63.9138 156.691 69.4546 157.447C73.6856 157.447 72.0738 154.626 70.7138 152.863C70.462 152.914 70.2101 152.914 69.9583 152.914Z" fill="#D4907F"/>
<path d="M118.263 141.933C117.709 141.731 117.054 141.53 116.299 141.228C115.896 141.328 115.291 141.177 114.989 141.53C113.126 144.149 102.749 142.89 100.029 141.731C102.094 142.839 101.691 143.393 105.872 144.199C106.225 144.25 105.318 144.552 105.016 144.703C107.837 145.71 111.564 146.668 114.536 146.013C116.299 145.61 117.558 145.156 118.515 144.703C119.724 144.199 119.573 142.386 118.263 141.933Z" fill="#D4907F"/>
<path d="M80.1836 151.05C74.8443 151.251 67.3392 147.323 67.3392 147.323C66.1807 148.179 65.5763 147.071 71.1673 152.762C73.0814 154.022 76.2547 155.684 79.6295 155.583C85.3213 155.382 83.7095 152.36 82.3999 150.748C81.8962 150.949 81.1406 151.05 80.1836 151.05Z" fill="#D4907F"/>
<path d="M93.7332 147.977C87.2354 149.891 79.5288 146.315 79.5288 146.315C79.5288 146.315 79.9822 148.179 82.7525 150.647C84.6666 151.906 88.6962 153.921 93.3806 152.46C97.2591 151.251 95.6976 149.337 93.7332 147.977Z" fill="#D4907F"/>
<path d="M104.563 144.955C101.893 147.322 92.9272 145.559 90.1064 144.199C92.222 145.559 92.222 146.668 93.8842 147.927H93.8338C97.0575 149.438 102.145 151.151 105.318 148.783C107.132 147.474 106.124 146.063 104.563 144.955Z" fill="#D4907F"/>
<path d="M118.263 141.933C113.679 140.422 103.756 136.342 94.5387 127.124C81.9966 114.582 73.8367 111.862 70.0589 111.358C68.7493 111.106 67.4396 111.006 66.0797 111.006C54.0916 111.006 44.3198 120.727 44.3198 132.765C44.3198 140.371 48.2487 147.071 54.142 150.949C54.142 150.949 54.3435 151.05 54.6457 151.251C54.7464 151.302 54.7968 151.352 54.8975 151.402C57.1138 152.762 63.9641 156.742 69.5048 157.497C75.65 157.497 69.5048 151.554 69.5048 151.554C69.5048 151.554 74.4411 155.835 79.73 155.633C87.5373 155.382 81.5937 149.74 81.5937 149.74C81.5937 149.74 86.8825 154.525 93.4306 152.46C97.561 151.151 95.4454 149.085 93.3299 147.675C96.5032 149.236 101.993 151.302 105.368 148.783C107.736 147.02 105.116 145.106 103.051 143.998C105.822 145.157 110.808 146.869 114.536 146.063C116.299 145.66 117.558 145.207 118.515 144.754C119.724 144.199 119.573 142.386 118.263 141.933Z" stroke="#3D0938" stroke-width="2" stroke-miterlimit="10" stroke-linecap="round" stroke-linejoin="round"/>
<path d="M46.687 100.881C46.687 100.881 46.9893 106.422 52.127 106.422C56.6099 106.422 57.8692 104.307 57.8692 104.307" stroke="#3D0938" stroke-width="2" stroke-miterlimit="10" stroke-linecap="round" stroke-linejoin="round"/>
<path d="M44.9746 104.256L47.4931 103.652" stroke="#3D0938" stroke-width="2" stroke-miterlimit="10" stroke-linecap="round" stroke-linejoin="round"/>
<path d="M47.4932 107.077L48.702 105.264" stroke="#3D0938" stroke-width="2" stroke-miterlimit="10" stroke-linecap="round" stroke-linejoin="round"/>
<path d="M51.3213 106.422V108.487" stroke="#3D0938" stroke-width="2" stroke-miterlimit="10" stroke-linecap="round" stroke-linejoin="round"/>
<path d="M55.502 105.918L56.459 108.487" stroke="#3D0938" stroke-width="2" stroke-miterlimit="10" stroke-linecap="round" stroke-linejoin="round"/>
<path d="M59.1284 121.231C59.1284 121.231 60.841 123.195 62.7551 121.231" stroke="#3D0938" stroke-width="2" stroke-miterlimit="10" stroke-linecap="round" stroke-linejoin="round"/>
<path d="M53.3862 130.197C53.3862 130.197 56.8617 131.607 58.2721 128.333" stroke="#3D0938" stroke-width="2" stroke-miterlimit="10" stroke-linecap="round" stroke-linejoin="round"/>
<path d="M53.7393 138.709C53.7393 138.709 56.2074 139.666 57.1644 137.4" stroke="#3D0938" stroke-width="2" stroke-miterlimit="10" stroke-linecap="round" stroke-linejoin="round"/>
<path d="M74.3403 127.88C74.3403 127.88 76.4559 129.491 78.0173 127.577" stroke="#3D0938" stroke-width="2" stroke-miterlimit="10" stroke-linecap="round" stroke-linejoin="round"/>
<path d="M80.6367 140.22C80.6367 140.22 82.7523 141.832 84.3137 139.918" stroke="#3D0938" stroke-width="2" stroke-miterlimit="10" stroke-linecap="round" stroke-linejoin="round"/>
<path d="M85.2202 133.42C85.2202 133.42 87.3358 135.032 88.8973 133.118" stroke="#3D0938" stroke-width="2" stroke-miterlimit="10" stroke-linecap="round" stroke-linejoin="round"/>
<path d="M71.9731 134.529C71.9731 134.529 74.0887 136.14 75.6502 134.226" stroke="#3D0938" stroke-width="2" stroke-miterlimit="10" stroke-linecap="round" stroke-linejoin="round"/>
<path d="M90.207 101.687C90.207 101.687 92.3226 103.299 93.884 101.385" stroke="#3D0938" stroke-width="2" stroke-miterlimit="10" stroke-linecap="round" stroke-linejoin="round"/>
<path d="M104.562 113.071C104.562 113.071 106.678 114.683 108.24 112.769" stroke="#3D0938" stroke-width="2" stroke-miterlimit="10" stroke-linecap="round" stroke-linejoin="round"/>
<path d="M104.613 107.832C104.613 107.832 107.081 108.789 108.038 106.472" stroke="#3D0938" stroke-width="2" stroke-miterlimit="10" stroke-linecap="round" stroke-linejoin="round"/>
<path d="M97.1582 106.724C97.1582 106.724 99.7775 107.026 100.13 104.558" stroke="#3D0938" stroke-width="2" stroke-miterlimit="10" stroke-linecap="round" stroke-linejoin="round"/>
<path d="M65.0723 141.026C65.0723 141.026 67.5908 141.883 68.4471 139.616" stroke="#3D0938" stroke-width="2" stroke-miterlimit="10" stroke-linecap="round" stroke-linejoin="round"/>
<path d="M64.2158 127.124C64.2158 127.124 66.9358 129.089 68.8498 126.57" stroke="#3D0938" stroke-width="2" stroke-miterlimit="10" stroke-linecap="round" stroke-linejoin="round"/>
<path d="M62.7554 133.471C62.7554 133.471 65.4754 135.435 67.3894 132.917" stroke="#3D0938" stroke-width="2" stroke-miterlimit="10" stroke-linecap="round" stroke-linejoin="round"/>
<path d="M66.5835 147.675C66.5835 147.675 66.9865 149.035 69.4546 151.503" stroke="#3D0938" stroke-width="2" stroke-miterlimit="10" stroke-linecap="round" stroke-linejoin="round"/>
<path d="M81.5431 149.74C81.5431 149.74 80.4854 149.086 78.8735 146.718" stroke="#3D0938" stroke-width="2" stroke-miterlimit="10" stroke-linecap="round" stroke-linejoin="round"/>
<path d="M93.3297 147.675C93.3297 147.675 91.1638 146.164 89.4009 144.2" stroke="#3D0938" stroke-width="2" stroke-miterlimit="10" stroke-linecap="round" stroke-linejoin="round"/>
<path d="M103.051 144.048C103.051 144.048 99.6767 142.638 98.77 141.731" stroke="#3D0938" stroke-width="2" stroke-miterlimit="10" stroke-linecap="round" stroke-linejoin="round"/>
<path d="M13.6142 47.5006V58.3301C13.3623 58.2798 13.0601 58.2294 12.7579 58.2294C10.7935 58.2294 9.18164 59.5894 9.18164 61.302C9.18164 63.0145 10.7935 64.3745 12.7579 64.3745C14.7223 64.3745 16.3342 63.0145 16.3342 61.302V49.3643L24.1919 46.0398V54.6531C23.9401 54.6028 23.6378 54.5524 23.3356 54.5524C21.3712 54.5524 19.7593 55.9124 19.7593 57.6249C19.7593 59.3375 21.3712 60.6975 23.3356 60.6975C25.3 60.6975 26.9119 59.3375 26.9119 57.6249V44.8813V43.8236V41.8591L13.6142 47.5006Z" fill="#F0406F"/>
<path d="M13.6142 47.5006V58.3301C13.3623 58.2798 13.0601 58.2294 12.7579 58.2294C10.7935 58.2294 9.18164 59.5894 9.18164 61.302C9.18164 63.0145 10.7935 64.3745 12.7579 64.3745C14.7223 64.3745 16.3342 63.0145 16.3342 61.302V49.3643L24.1919 46.0398V54.6531C23.9401 54.6028 23.6378 54.5524 23.3356 54.5524C21.3712 54.5524 19.7593 55.9124 19.7593 57.6249C19.7593 59.3375 21.3712 60.6975 23.3356 60.6975C25.3 60.6975 26.9119 59.3375 26.9119 57.6249V44.8813V43.8236V41.8591L13.6142 47.5006Z" stroke="#3D0938" stroke-width="2" stroke-miterlimit="10" stroke-linecap="round" stroke-linejoin="round"/>
<path d="M12.9594 3.3261L9.33276 16.2712C9.18165 16.8756 8.52684 17.1779 7.9224 17.0268C5.35353 16.3216 2.73429 17.5305 2.12985 19.7467C1.52541 21.963 3.08688 24.3304 5.65575 25.0356C8.22462 25.7408 10.8439 24.5319 11.4483 22.3156L15.5787 7.40607C15.6794 7.00311 16.0824 6.65052 16.4853 6.60015L25.5519 5.44164C26.3578 5.3409 26.9623 6.04608 26.7608 6.852L24.3934 15.3142C24.2423 15.9186 23.5875 16.2208 22.983 16.0697C20.4142 15.3645 17.7949 16.5734 17.1905 18.7897C16.586 21.006 18.1475 23.3734 20.7164 24.0786C23.2852 24.7837 25.9045 23.5748 26.5089 21.3586L31.143 4.73645L31.4956 3.37647L31.7474 2.41944C31.9489 1.66389 31.3445 0.908331 30.5385 1.00907L12.9594 3.3261Z" fill="#21E8A6"/>
<path d="M12.9594 3.3261L9.33276 16.2712C9.18165 16.8756 8.52684 17.1779 7.9224 17.0268C5.35353 16.3216 2.73429 17.5305 2.12985 19.7467C1.52541 21.963 3.08688 24.3304 5.65575 25.0356C8.22462 25.7408 10.8439 24.5319 11.4483 22.3156L15.5787 7.40607C15.6794 7.00311 16.0824 6.65052 16.4853 6.60015L25.5519 5.44164C26.3578 5.3409 26.9623 6.04608 26.7608 6.852L24.3934 15.3142C24.2423 15.9186 23.5875 16.2208 22.983 16.0697C20.4142 15.3645 17.7949 16.5734 17.1905 18.7897C16.586 21.006 18.1475 23.3734 20.7164 24.0786C23.2852 24.7837 25.9045 23.5748 26.5089 21.3586L31.143 4.73645L31.4956 3.37647L31.7474 2.41944C31.9489 1.66389 31.3445 0.908331 30.5385 1.00907L12.9594 3.3261Z" stroke="#3D0938" stroke-width="2" stroke-miterlimit="10" stroke-linecap="round" stroke-linejoin="round"/>
<path d="M20.1623 70.1169L19.7594 70.7214C19.3564 71.3258 18.8023 71.7792 18.1979 72.1317L14.9238 73.9954L15.3772 75.5569L17.1401 81.3495C16.9386 81.3495 16.7875 81.3998 16.5861 81.4502C15.5283 81.7524 14.8735 82.7598 15.1253 83.7169C15.3772 84.6235 16.4853 85.1272 17.5935 84.825C18.6009 84.5228 18.8527 84.2206 18.7016 83.3643L18.752 82.8606L16.989 76.5643L19.2053 75.2547C19.9105 74.8517 20.5149 74.2977 20.9682 73.5925L21.1697 73.2903L20.1623 70.1169Z" fill="#E38980"/>
<path d="M20.6662 70.1169L20.2633 70.7214C19.8603 71.3258 19.3062 71.7792 18.7018 72.1317L15.4277 73.9954L15.8811 75.5569L17.644 81.3495C17.4425 81.3495 17.2915 81.3998 17.09 81.4502C16.0322 81.7524 15.3774 82.7598 15.6292 83.7169C15.8811 84.6235 16.9892 85.1272 18.0974 84.825C19.1048 84.5228 18.7018 84.1198 18.5507 83.2132L16.6366 76.8665L19.7092 75.2547C20.4144 74.8517 21.0188 74.2977 21.4721 73.5925L21.6736 73.2903L20.6662 70.1169Z" stroke="#3D0938" stroke-width="2" stroke-miterlimit="10" stroke-linecap="round" stroke-linejoin="round"/>
</g>
</svg>
