<svg width="246" height="246" viewBox="0 0 246 246" fill="none" xmlns="http://www.w3.org/2000/svg">
<path d="M123.069 23.4594C122.707 23.3967 122.334 23.4467 122.001 23.6026C121.667 23.7584 121.39 24.0127 121.206 24.3311C120.698 25.0541 120.152 25.7499 119.571 26.4155C118.936 27.0842 118.207 27.6553 117.405 28.1104C116.585 28.568 115.501 28.9985 114.623 28.4442C114.444 28.3378 114.295 28.1875 114.191 28.0073C114.086 27.8272 114.029 27.6233 114.026 27.4151C114.049 27.219 114.028 27.0202 113.964 26.8335C113.899 26.6467 113.794 26.477 113.655 26.3368C113.539 26.234 113.393 26.1725 113.238 26.1618C113.084 26.1511 112.93 26.1919 112.802 26.2777C112.454 26.5418 112.486 27.0838 112.438 27.4733C112.371 28.4429 112.487 29.4165 112.78 30.3433C112.96 30.8979 113.076 31.4712 113.126 32.0522C113.111 32.3249 113.075 32.5962 113.022 32.864C112.987 33.1796 112.935 33.493 112.866 33.8029C112.566 34.9528 112.151 36.0698 111.628 37.137C111.552 37.3059 111.596 37.5773 111.823 37.6134L114.792 38.0825C114.875 38.1018 114.962 38.0892 115.036 38.0473C115.11 38.0053 115.165 37.9371 115.191 37.8561C115.557 36.8158 116.134 35.8625 116.886 35.0567C117.243 34.7337 117.647 34.4666 118.084 34.2645C118.621 33.9775 119.159 33.7258 119.724 33.4872C120.726 33.1043 121.635 32.5126 122.39 31.7512C123.146 30.9898 123.73 30.0763 124.105 29.0715C124.534 27.8257 124.619 26.4877 124.351 25.1978C124.307 24.8217 124.165 24.4636 123.94 24.1588C123.715 23.854 123.415 23.613 123.069 23.4594ZM121.717 31.5307C120.876 32.2231 119.924 32.7674 118.9 33.1403C117.958 33.4828 117.092 34.0065 116.351 34.6819C115.628 35.4799 115.062 36.4072 114.684 37.415L112.375 37.0509C112.72 36.312 113.021 35.5536 113.277 34.7795C113.418 34.3402 113.526 33.8913 113.6 33.4363C113.686 33.0264 113.746 32.6115 113.779 32.194C113.705 31.2346 113.516 30.2876 113.216 29.3732C113.099 28.9289 113.035 28.4723 113.026 28.0129C113.032 27.7898 113.081 27.5602 113.108 27.3388C113.125 27.1953 113.094 26.7591 113.264 26.8591C113.473 26.9821 113.382 27.7152 113.452 27.9456C113.563 28.2948 113.775 28.6032 114.061 28.832C114.364 29.0642 114.715 29.2251 115.088 29.3027C115.462 29.3804 115.848 29.3728 116.218 29.2806C117.875 28.8013 119.341 27.8162 120.411 26.4631C120.714 26.1141 120.998 25.7498 121.264 25.3716C121.492 24.9996 121.762 24.6549 122.068 24.3442C122.93 23.5726 123.549 24.5795 123.728 25.3733C123.949 26.486 123.881 27.6368 123.528 28.7152C123.176 29.7936 122.552 30.7632 121.717 31.5307Z" fill="black"/>
<path d="M128.187 26.9131C127.851 29.6175 126.626 32.1338 124.706 34.0676C124.659 34.1307 124.636 34.2086 124.642 34.287C124.648 34.3654 124.681 34.4391 124.737 34.4948C124.793 34.5504 124.866 34.5842 124.945 34.5901C125.023 34.596 125.101 34.5735 125.164 34.5268C127.201 32.468 128.493 29.7888 128.836 26.9131C128.886 26.499 128.237 26.5023 128.187 26.9131Z" fill="black"/>
<path d="M129.734 32.8517C128.681 34.2729 127.331 35.4481 125.779 36.2957C125.413 36.4966 125.74 37.0575 126.107 36.8558C127.753 35.949 129.182 34.6939 130.294 33.1781C130.544 32.8435 129.979 32.5188 129.734 32.8517Z" fill="black"/>
<path d="M87.539 96.9445C87.3619 96.4689 87.161 95.9999 86.9552 95.5366C86.5308 94.5793 86.0537 93.6464 85.5259 92.742C84.4754 90.9461 83.2338 89.2691 81.8228 87.74C80.6879 86.51 78.8446 84.8602 77.0529 85.8368C75.4358 86.7183 76.9553 88.8306 76.9266 90.1123C76.9553 92.2328 76.4698 94.2984 76.3321 96.4058C76.1617 98.2538 76.421 100.116 77.0898 101.847C77.7515 103.426 79.034 105.026 80.7798 105.422C82.5255 105.819 83.8408 104.618 84.382 103.053C84.9946 101.281 84.5067 99.3734 84.8117 97.5726C84.9785 98.0354 85.3126 98.419 85.7481 98.6477C85.9873 98.8096 86.2746 98.8849 86.5624 98.8611C86.8503 98.8373 87.1213 98.7158 87.3306 98.5168C87.5399 98.3177 87.6748 98.0531 87.713 97.7668C87.7512 97.4806 87.6904 97.1898 87.5407 96.9429L87.539 96.9445ZM86.4271 98.1475C85.5161 98.1573 85.2635 97.0101 85.1012 96.3164C85.0192 95.9736 84.5854 96.0466 84.4755 96.3164C83.7375 98.1138 84.2836 100.02 84.0015 101.876C83.7859 103.299 82.9355 105.019 81.2398 104.848C79.5096 104.672 78.2181 102.97 77.6269 101.47C77.0547 99.8969 76.8309 98.2182 76.9709 96.5501C77.0955 94.3951 77.6039 92.2861 77.5744 90.118C77.5436 89.5325 77.4227 88.9553 77.216 88.4067C76.986 87.8974 76.9182 87.3297 77.0217 86.7806C77.289 86.1049 78.3157 86.1541 78.8757 86.3296C79.6198 86.6021 80.2871 87.0502 80.8208 87.6359C83.2213 90.0851 85.1477 92.9576 86.5025 96.1081C86.7325 96.5544 86.9134 97.0242 87.0421 97.5095C87.1184 97.9269 86.8174 98.1425 86.4279 98.1475H86.4271Z" fill="black"/>
<path d="M25.6748 122.001L24.2185 116.218C23.7331 114.292 23.296 112.346 22.7613 110.434C22.5974 109.848 22.034 109.463 21.5018 109.947C20.8598 110.531 21.4444 111.438 21.0188 112.122C20.002 113.753 17.6216 112.768 16.3383 112.064C15.6181 111.666 14.9427 111.192 14.3236 110.651C13.7143 110.12 13.1952 109.518 12.6409 108.934C12.4208 108.642 12.1373 108.403 11.8117 108.235C11.4861 108.067 11.1268 107.975 10.7607 107.966C10.4658 108.007 10.1871 108.126 9.95318 108.311C9.71923 108.495 9.53835 108.738 9.42897 109.015C8.91503 110.514 8.964 112.148 9.56673 113.613C9.98248 114.788 10.6592 115.853 11.5459 116.728C12.4326 117.603 13.5062 118.266 14.686 118.666C15.6748 118.925 16.6487 119.237 17.6036 119.601C18.3651 119.967 19.0265 120.512 19.5309 121.19C20.0354 121.867 20.3679 122.657 20.4998 123.492C20.5235 123.574 20.5786 123.644 20.6533 123.687C20.7279 123.729 20.8162 123.74 20.8991 123.718L25.4477 122.399C25.522 122.378 25.5854 122.33 25.6248 122.264L25.6363 122.249C25.6429 122.236 25.6484 122.222 25.6527 122.209C25.6847 122.144 25.6926 122.071 25.6748 122.001ZM21.059 123C20.7829 121.764 20.1119 120.652 19.1476 119.832C17.902 118.783 16.3522 118.556 14.8582 118.043C13.3654 117.521 12.0718 116.548 11.1564 115.259C10.241 113.969 9.74911 112.427 9.74877 110.846C9.68669 110.166 9.86293 109.486 10.2473 108.921C10.814 108.273 11.5823 108.793 12.0554 109.266C12.5933 109.803 13.069 110.391 13.6323 110.906C14.1727 111.401 14.7543 111.85 15.3707 112.246C16.6278 113.052 18.2735 113.857 19.8061 113.604C20.4789 113.499 21.0833 113.134 21.4879 112.586C21.6717 112.334 21.7931 112.043 21.8421 111.735C21.8651 111.557 21.8676 111.376 21.8495 111.198C21.8331 110.999 21.7405 110.666 21.8799 110.493C22.0849 110.237 22.1324 110.6 22.1726 110.757C22.2349 111.003 22.2956 111.244 22.3571 111.489L22.7441 113.026C22.9961 114.027 23.2482 115.027 23.5002 116.027C23.9922 117.974 24.4823 119.92 24.9704 121.866L21.059 123Z" fill="black"/>
<path d="M94.4753 36.2202C93.3642 31.1764 94.4557 25.4323 91.5233 21.1814C89.1248 17.7046 84.423 16.2614 80.2787 17.0814C76.1344 17.9014 72.5641 20.6549 70.0213 24.026C67.4785 27.397 67.0923 31.1436 64.9168 34.768C63.9623 36.3555 61.3957 38.6466 60.9365 41.0188C60.682 42.204 60.7251 43.4338 61.0619 44.5983C61.3987 45.7628 62.0188 46.8257 62.8668 47.692C64.6044 49.3263 67.1037 49.7945 69.4555 50.193C76.3074 51.3533 83.5333 52.4832 90.0539 50.0782C92.3819 49.2197 94.6967 47.7527 95.5684 45.4288C96.6721 42.4817 95.1518 39.2911 94.4753 36.2202ZM77.8851 43.9405C77.8433 44.3505 77.1938 44.3562 77.2357 43.9405C77.5501 40.7764 77.3667 37.5825 76.692 34.4752C76.7223 34.4531 76.7592 34.4416 76.7888 34.4186C77.0141 34.7333 77.2607 35.0322 77.5268 35.3133C78.0495 38.1581 78.1702 41.0622 77.8851 43.9405ZM86.1712 44.936C86.0482 45.3345 85.4217 45.1631 85.5447 44.763C86.2483 42.4523 86.6193 40.0532 86.6468 37.638C86.8707 37.5675 87.0929 37.4904 87.3126 37.4043C87.3023 39.9571 86.9178 42.4947 86.1712 44.936ZM91.8292 31.57C91.5576 32.9873 90.8114 34.2699 89.7136 35.2067C88.5761 36.2179 87.1942 36.9144 85.7047 37.2271C84.2151 37.5397 82.6698 37.4578 81.2217 36.9894C79.536 36.3951 78.0944 35.2597 77.1217 33.7602C77.0962 33.718 77.0614 33.682 77.0201 33.6551C76.9787 33.6281 76.9318 33.6109 76.8829 33.6046C76.834 33.5983 76.7842 33.6031 76.7374 33.6187C76.6906 33.6343 76.6479 33.6602 76.6125 33.6946C76.3137 34.0186 75.9075 34.2232 75.4693 34.2706C75.0311 34.3179 74.5907 34.2048 74.2295 33.9521C73.8856 33.6917 73.6089 33.353 73.4225 32.964C73.236 32.575 73.1453 32.1471 73.1578 31.7159C73.3063 31.2088 73.6306 30.7712 74.0726 30.4817C74.5145 30.1921 75.0452 30.0695 75.5694 30.1358C75.6246 30.15 75.6826 30.1495 75.7376 30.1345C75.7926 30.1195 75.8427 30.0904 75.883 30.0501C75.9233 30.0097 75.9525 29.9596 75.9675 29.9046C75.9825 29.8496 75.983 29.7917 75.9688 29.7364C75.9179 29.4839 75.8868 29.2272 75.8548 28.9714C78.8691 27.6266 81.8596 25.9669 83.8293 23.2511C84.514 23.8923 85.2151 24.5294 85.9457 25.1133C86.6922 25.746 87.5588 26.2215 88.4934 26.5114C89.5921 26.799 90.736 26.8709 91.862 26.7229C92.115 28.3297 92.1028 29.9671 91.8259 31.57H91.8292Z" fill="black"/>
<path d="M81.1194 28.782C80.4663 28.6226 79.7776 28.702 79.1779 29.006C78.5782 29.3099 78.107 29.8182 77.8493 30.4392C77.6853 30.8246 78.3158 30.9919 78.4749 30.6122C78.6821 30.155 79.0424 29.7845 79.4936 29.5646C79.9448 29.3446 80.4586 29.2891 80.9464 29.4076C81.0246 29.4175 81.1037 29.3988 81.1692 29.3551C81.2348 29.3114 81.2824 29.2456 81.3034 29.1696C81.3244 29.0937 81.3174 29.0127 81.2836 28.9415C81.2498 28.8703 81.1915 28.8137 81.1194 28.782Z" fill="black"/>
<path d="M89.7262 27.3937C89.3739 27.1915 88.9729 27.0899 88.5669 27.1001C88.1609 27.1102 87.7654 27.2316 87.4237 27.451C87.0735 27.6765 87.3991 28.2382 87.7517 28.0119C87.9933 27.8491 88.2758 27.7574 88.567 27.7471C88.8582 27.7368 89.1465 27.8084 89.399 27.9537C89.472 27.9827 89.5529 27.9846 89.6271 27.9591C89.7013 27.9335 89.7639 27.8822 89.8035 27.8144C89.8431 27.7466 89.8571 27.6669 89.8429 27.5897C89.8287 27.5125 89.7873 27.4429 89.7262 27.3937Z" fill="black"/>
<path d="M80.3821 30.832C80.3467 30.7974 80.304 30.7714 80.257 30.7557C80.2101 30.74 80.1603 30.7351 80.1112 30.7414C80.0622 30.7478 80.0152 30.7651 79.9738 30.7921C79.9324 30.8192 79.8976 30.8552 79.8721 30.8976C79.8236 30.9841 79.7955 31.0806 79.7901 31.1797C79.7677 31.2634 79.766 31.3514 79.7852 31.4359C79.8043 31.5205 79.8437 31.5991 79.9 31.6651C79.9082 31.6807 79.9114 31.6963 79.9205 31.711C79.9527 31.7648 80.0003 31.8076 80.0572 31.8339C80.1141 31.8603 80.1776 31.8689 80.2394 31.8586C80.3126 31.8619 80.3848 31.8409 80.4448 31.7989C80.5049 31.757 80.5494 31.6964 80.5715 31.6266C80.5781 31.6028 80.5781 31.5806 80.583 31.5577C80.5957 31.523 80.6021 31.4864 80.6019 31.4494C80.6117 31.3368 80.5972 31.2233 80.5592 31.1168C80.5213 31.0102 80.4609 30.9131 80.3821 30.832Z" fill="black"/>
<path d="M88.3305 29.6603C88.3166 29.6373 88.2961 29.6152 88.2797 29.5922C88.2633 29.5693 88.2633 29.566 88.2518 29.5553C88.2403 29.5447 88.2215 29.5094 88.2018 29.4881C88.165 29.448 88.1174 29.4193 88.0648 29.4055C88.0122 29.3917 87.9567 29.3933 87.905 29.4102C87.8918 29.4102 87.8812 29.4028 87.8681 29.402C87.8109 29.4014 87.7546 29.4164 87.7052 29.4453C87.6558 29.4741 87.6152 29.5159 87.5876 29.566C87.5445 29.6601 87.5229 29.7627 87.5245 29.8663C87.5261 29.9699 87.5507 30.0718 87.5966 30.1646C87.6001 30.2079 87.6122 30.2501 87.6324 30.2886C87.6525 30.3271 87.6802 30.3612 87.7138 30.3888C87.7474 30.4163 87.7863 30.4368 87.828 30.449C87.8697 30.4612 87.9134 30.4649 87.9566 30.4598C87.9722 30.4647 87.9812 30.4762 87.9976 30.4803C88.0807 30.5023 88.169 30.4908 88.2437 30.4483C88.3184 30.4058 88.3734 30.3358 88.397 30.2531C88.4235 30.1504 88.4302 30.0435 88.4166 29.9383C88.4136 29.8395 88.3838 29.7435 88.3305 29.6603Z" fill="black"/>
<path d="M85.858 30.4344C86.0868 30.9535 86.2033 31.844 85.4571 31.9875C85.0471 32.0695 85.2209 32.6919 85.6301 32.6131C85.9715 32.5228 86.2678 32.31 86.4624 32.0153C86.6571 31.7205 86.7364 31.3645 86.6854 31.015C86.6034 30.0957 85.9007 29.4086 85.6965 28.5295C85.6022 28.1195 84.9757 28.295 85.0708 28.7017C85.2773 29.3031 85.5409 29.8833 85.858 30.4344Z" fill="black"/>
<path d="M87.2653 32.6451C86.4914 33.2275 85.55 33.5443 84.5815 33.5483C83.6129 33.5522 82.6689 33.2432 81.8902 32.6672C81.8408 32.6396 81.785 32.6253 81.7283 32.6256C81.6716 32.6259 81.616 32.641 81.5668 32.6692C81.5177 32.6975 81.4767 32.738 81.4479 32.7868C81.4191 32.8356 81.4034 32.891 81.4023 32.9477C81.4025 33.85 81.7355 34.7205 82.3375 35.3925C82.9395 36.0646 83.7683 36.491 84.6651 36.5901C85.0751 36.6418 85.0751 35.9923 84.6651 35.9407C84.0467 35.8604 83.469 35.5884 83.013 35.1629C82.5571 34.7374 82.2459 34.1798 82.1231 33.5684C82.9751 34.0344 83.9424 34.2479 84.9114 34.1837C85.8804 34.1195 86.8111 33.7803 87.5942 33.206C87.9246 32.9641 87.6015 32.3966 87.2653 32.6451Z" fill="black"/>
<path d="M47.5379 122.695C48.1176 122.695 48.5875 122.225 48.5875 121.645C48.5875 121.066 48.1176 120.596 47.5379 120.596C46.9582 120.596 46.4883 121.066 46.4883 121.645C46.4883 122.225 46.9582 122.695 47.5379 122.695Z" fill="black"/>
<path d="M57.0144 120.278C57.5941 120.278 58.064 119.808 58.064 119.228C58.064 118.648 57.5941 118.178 57.0144 118.178C56.4348 118.178 55.9648 118.648 55.9648 119.228C55.9648 119.808 56.4348 120.278 57.0144 120.278Z" fill="black"/>
<path d="M47.2452 117.167C46.6632 117.314 46.1365 117.628 45.729 118.069C45.3215 118.51 45.0506 119.059 44.9492 119.651C44.8869 120.061 45.5125 120.236 45.5757 119.823C45.6483 119.341 45.8616 118.891 46.189 118.53C46.5163 118.169 46.9431 117.912 47.4157 117.792C47.8274 117.714 47.6535 117.089 47.2452 117.167Z" fill="black"/>
<path d="M58.9432 115.799C57.7059 115.262 56.521 114.917 55.245 115.545C54.8703 115.73 55.1983 116.29 55.573 116.105C56.0661 115.913 56.5967 115.836 57.1241 115.88C57.6516 115.924 58.162 116.088 58.6161 116.36C58.9949 116.522 59.3254 115.966 58.9432 115.799Z" fill="black"/>
<path d="M56.5888 122.274C54.2928 122.866 52.0411 123.586 49.7508 124.187C49.7032 124.201 49.6593 124.226 49.6224 124.259C49.5855 124.292 49.5566 124.333 49.5379 124.379C49.5192 124.425 49.5111 124.474 49.5144 124.524C49.5176 124.573 49.532 124.622 49.5565 124.665C49.9295 125.302 50.4519 125.838 51.0787 126.228C51.7055 126.617 52.4177 126.848 53.1538 126.901C53.6974 126.922 54.2383 126.814 54.7326 126.587C55.2269 126.36 55.6605 126.019 55.9984 125.593C56.6328 124.717 56.9823 123.667 56.9996 122.586C56.9989 122.536 56.9869 122.487 56.9644 122.443C56.942 122.399 56.9098 122.36 56.8702 122.33C56.8307 122.3 56.7848 122.279 56.736 122.269C56.6873 122.26 56.6369 122.261 56.5888 122.274ZM55.5573 125.107C55.2824 125.481 54.9191 125.782 54.4998 125.983C54.0804 126.183 53.6181 126.276 53.1538 126.255C52.6035 126.215 52.0685 126.055 51.5868 125.785C51.1051 125.516 50.6883 125.145 50.3658 124.697C52.3519 124.164 54.3174 123.556 56.3051 123.027C56.2359 123.772 55.9785 124.488 55.5573 125.107Z" fill="black"/>
<path d="M45.305 218.75C40.9608 215.835 36.9881 212.402 33.4748 208.526C32.7804 207.662 31.9962 206.874 31.1354 206.176C30.7899 205.874 30.3459 205.71 29.8873 205.713C29.4527 205.751 29.0354 205.901 28.6768 206.149C28.3181 206.398 28.0304 206.735 27.8423 207.129C26.7344 209.49 28.2523 212.747 30.0891 215.247C32.7245 218.839 40.9057 223.783 40.9057 223.783L45.305 218.75Z" fill="black"/>
<path d="M192.679 122.142C193.222 122.018 192.993 121.183 192.449 121.307C191.567 121.51 190.399 121.635 190.267 120.454C190.15 119.408 190.672 118.412 190.323 117.371C190.146 116.847 189.311 117.071 189.489 117.602C189.899 118.815 189.033 120.089 189.618 121.304C190.194 122.5 191.586 122.393 192.679 122.142Z" fill="black"/>
<path d="M189.112 117.543C189.114 117.51 189.112 117.476 189.106 117.444C189.106 117.438 189.106 117.434 189.106 117.428C189.097 117.405 189.086 117.382 189.074 117.361C189.068 117.344 189.06 117.329 189.052 117.313C188.998 117.182 188.901 117.073 188.777 117.006C188.652 116.939 188.508 116.917 188.369 116.944C188.23 116.971 188.104 117.046 188.014 117.155C187.924 117.264 187.875 117.402 187.875 117.543C187.875 117.685 187.924 117.822 188.014 117.932C188.104 118.041 188.23 118.116 188.369 118.143C188.508 118.17 188.652 118.148 188.777 118.081C188.901 118.013 188.998 117.905 189.052 117.773C189.061 117.757 189.069 117.74 189.076 117.723C189.088 117.702 189.098 117.68 189.107 117.658C189.107 117.652 189.107 117.648 189.107 117.642C189.113 117.609 189.114 117.576 189.112 117.543Z" fill="black"/>
<path d="M198.271 117.54C198.273 117.507 198.27 117.474 198.264 117.441C198.264 117.435 198.264 117.43 198.264 117.425C198.257 117.399 198.241 117.381 198.232 117.357C198.226 117.341 198.218 117.325 198.209 117.31C198.156 117.179 198.059 117.07 197.934 117.003C197.809 116.936 197.665 116.914 197.526 116.941C197.387 116.968 197.262 117.043 197.172 117.152C197.082 117.261 197.033 117.399 197.033 117.54C197.033 117.682 197.082 117.819 197.172 117.929C197.262 118.038 197.387 118.113 197.526 118.14C197.665 118.167 197.809 118.145 197.934 118.078C198.059 118.01 198.156 117.902 198.209 117.771C198.22 117.755 198.225 117.736 198.234 117.72C198.243 117.704 198.258 117.68 198.265 117.655C198.265 117.65 198.265 117.645 198.265 117.64C198.271 117.607 198.273 117.573 198.271 117.54Z" fill="black"/>
<path d="M194.456 114.254C194.094 114.675 194.702 115.29 195.067 114.866C195.423 114.456 195.918 114.193 196.457 114.129C196.996 114.065 197.539 114.204 197.981 114.519C198.434 114.847 198.867 114.093 198.418 113.772C197.811 113.359 197.075 113.181 196.346 113.27C195.618 113.358 194.946 113.708 194.456 114.254Z" fill="black"/>
<path d="M189.711 113.778C190.245 113.942 190.473 113.107 189.942 112.944C189.322 112.757 188.661 112.756 188.041 112.94C187.421 113.124 186.868 113.486 186.45 113.98C186.098 114.407 186.707 115.022 187.062 114.592C187.371 114.207 187.789 113.924 188.262 113.779C188.734 113.633 189.239 113.633 189.711 113.778Z" fill="black"/>
<path d="M214.636 113.604C213.885 111.75 212.772 110.065 211.361 108.647C211.928 107.75 212.21 106.702 212.17 105.642C212.131 104.582 211.772 103.558 211.14 102.706C210.509 101.853 209.634 101.212 208.631 100.865C207.629 100.519 206.545 100.484 205.521 100.764C204.998 98.9347 204.058 97.251 202.777 95.8441C202.13 95.1481 201.33 94.6126 200.441 94.2802C199.551 93.9478 198.596 93.8276 197.651 93.9294C196.71 94.0655 195.846 94.5243 195.206 95.2274C194.566 95.9304 194.19 96.8339 194.143 97.7834C191.707 97.0841 189.105 97.2397 186.769 98.2243C184.433 99.2088 182.505 100.963 181.304 103.195C180.632 104.378 180.394 105.758 180.631 107.098C180.767 107.76 181.116 108.36 181.624 108.805C182.132 109.251 182.773 109.518 183.447 109.566C182.221 110.184 181.219 111.171 180.582 112.387C179.945 113.603 179.704 114.988 179.893 116.348C180.083 117.708 180.693 118.974 181.638 119.97C182.583 120.966 183.816 121.641 185.164 121.901C185.246 122.155 185.328 122.406 185.421 122.654C185.804 123.673 186.317 124.637 186.948 125.524C186.861 125.514 186.773 125.533 186.698 125.577C184.768 126.723 183.001 128.122 181.444 129.737C181.057 130.138 181.668 130.751 182.056 130.349C183.561 128.786 185.269 127.433 187.135 126.325C187.19 126.295 187.236 126.251 187.271 126.199C187.306 126.147 187.328 126.087 187.335 126.024C187.903 126.736 188.568 127.365 189.309 127.893C191.022 129.103 193.146 129.584 195.213 129.23C196.727 128.954 198.139 128.278 199.303 127.272C197.095 130.149 194.256 132.48 191.005 134.086C190.506 134.332 190.943 135.079 191.442 134.833C195.314 132.914 198.609 130.003 200.99 126.396C202.089 127.068 203.395 127.319 204.665 127.101C205.999 126.8 207.176 126.02 207.974 124.908C208.772 123.797 209.135 122.432 208.994 121.071C209.925 121.436 210.954 121.465 211.903 121.154C212.853 120.842 213.665 120.209 214.199 119.364C214.703 118.5 215.004 117.532 215.08 116.534C215.155 115.536 215.004 114.534 214.636 113.604ZM203.074 117.591C202.724 121.75 200.532 126.433 196.394 128.005C195.52 128.345 194.586 128.505 193.648 128.476C192.71 128.447 191.788 128.23 190.936 127.836C189.143 126.928 187.695 125.46 186.812 123.654C185.777 121.595 185.276 119.308 185.355 117.004C185.314 114.853 185.962 112.744 187.203 110.987C189.484 108.065 193.661 107.543 197.077 108.31C198.72 108.623 200.219 109.457 201.353 110.688C202.505 112.146 203.128 113.954 203.118 115.813C203.136 116.405 203.121 116.998 203.072 117.588L203.074 117.591ZM205.398 119.319C205.269 119.807 204.994 120.243 204.61 120.57C204.227 120.897 203.752 121.099 203.25 121.148C203.42 120.619 203.559 120.081 203.669 119.536C203.796 118.893 203.886 118.244 203.939 117.591C203.969 117.204 203.981 116.813 203.984 116.421C204.527 116.656 204.967 117.077 205.227 117.609C205.486 118.14 205.546 118.747 205.396 119.319H205.398Z" fill="black"/>
<path d="M196.068 122.154C196.003 122.139 195.935 122.144 195.873 122.168C195.811 122.191 195.757 122.233 195.719 122.287C195.245 122.881 194.637 123.354 193.945 123.668C193.254 123.981 192.497 124.126 191.738 124.091C191.181 124.064 191.183 124.93 191.738 124.956C192.493 124.988 193.246 124.868 193.953 124.602C194.66 124.337 195.306 123.933 195.854 123.413C195.819 124.615 195.365 125.766 194.569 126.668C194.292 126.979 194.749 127.44 195.028 127.126C195.599 126.486 196.021 125.728 196.264 124.906C196.507 124.084 196.566 123.218 196.436 122.37C196.432 122.329 196.418 122.289 196.395 122.254C196.373 122.219 196.343 122.19 196.307 122.169C196.271 122.148 196.231 122.135 196.189 122.133C196.148 122.13 196.106 122.137 196.068 122.154Z" fill="black"/>
<path d="M146.11 49.5116C146.493 51.6736 146.876 53.836 147.258 55.9986C147.331 56.4086 147.956 56.2356 147.884 55.8264C147.501 53.6638 147.119 51.5012 146.736 49.3386C146.664 48.9286 146.042 49.1024 146.11 49.5116Z" fill="#84D0AB"/>
<path d="M148.325 29.2011L148.699 42.9393C148.71 43.0175 148.749 43.0891 148.808 43.1408C148.868 43.1926 148.944 43.2211 149.023 43.2211C149.102 43.2211 149.179 43.1926 149.238 43.1408C149.298 43.0891 149.337 43.0175 149.348 42.9393L148.973 29.2011C148.962 29.1235 148.922 29.0526 148.863 29.0014C148.803 28.9503 148.728 28.9221 148.649 28.9221C148.571 28.9221 148.495 28.9503 148.435 29.0014C148.376 29.0526 148.336 29.1235 148.325 29.2011Z" fill="#84D0AB"/>
<path d="M151.096 49.8036L151.889 59.7256C151.921 60.1356 152.571 60.143 152.537 59.7256C152.273 56.4194 152.009 53.112 151.746 49.8036C151.712 49.3903 151.063 49.3871 151.096 49.8036Z" fill="#84D0AB"/>
<path d="M153.516 35.3068C153.533 38.9951 153.551 42.6838 153.569 46.3727C153.58 46.4503 153.62 46.5211 153.679 46.5723C153.739 46.6235 153.814 46.6516 153.893 46.6516C153.971 46.6516 154.047 46.6235 154.107 46.5723C154.166 46.5211 154.205 46.4503 154.217 46.3727C154.2 42.6843 154.183 38.9957 154.165 35.3068C154.153 35.2292 154.114 35.1583 154.054 35.1072C153.995 35.056 153.919 35.0278 153.84 35.0278C153.762 35.0278 153.686 35.056 153.627 35.1072C153.567 35.1583 153.528 35.2292 153.516 35.3068Z" fill="#84D0AB"/>
<path d="M154.843 16.2269C155.144 20.8031 155.444 25.3792 155.745 29.9553C155.772 30.3703 156.422 30.3735 156.395 29.9553C156.093 25.3797 155.792 20.8036 155.493 16.2269C155.465 15.812 154.816 15.8095 154.843 16.2269Z" fill="#84D0AB"/>
<path d="M158.31 45.227V58.2019C158.321 58.2801 158.36 58.3516 158.42 58.4034C158.479 58.4551 158.556 58.4836 158.635 58.4836C158.714 58.4836 158.79 58.4551 158.85 58.4034C158.909 58.3516 158.948 58.2801 158.959 58.2019V45.227C158.948 45.1489 158.909 45.0773 158.85 45.0256C158.79 44.9738 158.714 44.9453 158.635 44.9453C158.556 44.9453 158.479 44.9738 158.42 45.0256C158.36 45.0773 158.321 45.1489 158.31 45.227Z" fill="#84D0AB"/>
<path d="M151.581 26.1581L150.816 15.0881C150.787 14.6781 150.138 14.6707 150.167 15.0881L150.933 26.1581C150.962 26.5681 151.611 26.573 151.581 26.1581Z" fill="#84D0AB"/>
<path d="M144.554 8.59282L144.936 20.8051C144.949 21.2216 145.597 21.2233 145.585 20.8051L145.204 8.59282C145.191 8.17626 144.542 8.17462 144.554 8.59282Z" fill="#84D0AB"/>
<path d="M142.579 26.9164C142.972 31.8763 143.365 36.8365 143.758 41.797C143.79 42.207 144.44 42.2143 144.407 41.797L143.229 26.9164C143.196 26.5031 142.547 26.4999 142.579 26.9164Z" fill="#84D0AB"/>
<path d="M151.301 11.649C151.014 9.236 150.728 6.82273 150.443 4.4092C150.394 3.9992 149.745 3.99428 149.794 4.4092C150.08 6.82219 150.365 9.23545 150.651 11.649C150.7 12.0582 151.35 12.0631 151.301 11.649Z" fill="#84D0AB"/>
<path d="M161.212 7.8236L160.908 15.4586C160.892 15.876 161.54 15.876 161.557 15.4586L161.862 7.8236C161.878 7.4054 161.229 7.40622 161.212 7.8236Z" fill="#84D0AB"/>
<path d="M159.572 28.0677L160.1 39.127C160.12 39.5428 160.769 39.5452 160.749 39.127L160.222 28.0677C160.202 27.6511 159.553 27.6495 159.572 28.0677Z" fill="#84D0AB"/>
<path d="M120.574 230.475C117.479 227.593 111.565 229.992 107.499 231.263C103.432 232.534 100.372 233.59 96.7567 235.84C95.8547 236.4 94.8215 237.298 95.1593 238.3C95.5168 239.361 96.9928 239.38 98.0974 239.194L116.268 236.12C117.629 236.023 118.932 235.526 120.013 234.691C120.993 233.76 121.688 231.247 120.574 230.475Z" fill="black"/>
<path d="M185.238 208.585C185.053 208.21 184.493 208.539 184.677 208.913C185.175 209.925 185.646 210.949 186.091 211.986C186.255 212.368 186.814 212.038 186.652 211.658C186.205 210.622 185.734 209.597 185.238 208.585Z" fill="black"/>
<path d="M188.398 205.776C188.584 207.845 188.82 209.908 189.108 211.965C189.165 212.375 189.791 212.201 189.733 211.792C189.455 209.793 189.226 207.788 189.048 205.776C189.01 205.364 188.362 205.36 188.398 205.776Z" fill="black"/>
<path d="M192.618 205.036L192.03 211.952C191.994 212.369 192.644 212.362 192.679 211.952L193.267 205.036C193.302 204.62 192.653 204.622 192.618 205.036Z" fill="black"/>
<path d="M195.992 205.115L194.11 212.077C194.101 212.156 194.12 212.234 194.163 212.3C194.207 212.365 194.273 212.413 194.349 212.433C194.425 212.454 194.506 212.447 194.577 212.414C194.648 212.38 194.704 212.322 194.736 212.25L196.618 205.288C196.628 205.21 196.609 205.131 196.565 205.065C196.522 204.999 196.456 204.952 196.38 204.931C196.304 204.91 196.223 204.917 196.152 204.951C196.081 204.984 196.024 205.043 195.992 205.115Z" fill="black"/>
<path d="M199.408 206.358L197.15 212.065C196.996 212.453 197.624 212.622 197.776 212.237L200.034 206.53C200.187 206.142 199.56 205.973 199.408 206.358Z" fill="black"/>
<path d="M201.708 208.831L200.051 212.067C199.861 212.438 200.421 212.767 200.611 212.395C201.164 211.316 201.716 210.237 202.268 209.158C202.458 208.788 201.899 208.459 201.708 208.831Z" fill="black"/>
<path d="M206.751 217.546C206.592 217.166 205.964 217.333 206.124 217.718L207.103 220.067C207.262 220.446 207.891 220.28 207.73 219.894L206.751 217.546Z" fill="black"/>
<path d="M208.89 216.583C208.858 216.51 208.802 216.452 208.73 216.418C208.659 216.385 208.578 216.378 208.502 216.399C208.426 216.42 208.361 216.467 208.317 216.533C208.273 216.598 208.254 216.677 208.264 216.756C208.569 217.891 208.873 219.027 209.178 220.163C209.209 220.235 209.266 220.293 209.337 220.327C209.408 220.361 209.489 220.368 209.565 220.347C209.641 220.326 209.707 220.278 209.751 220.213C209.795 220.147 209.813 220.068 209.803 219.99C209.498 218.853 209.194 217.717 208.89 216.583Z" fill="black"/>
<path d="M211.1 216.19V220.26C211.112 220.338 211.151 220.409 211.211 220.46C211.27 220.511 211.346 220.539 211.424 220.539C211.503 220.539 211.579 220.511 211.638 220.46C211.698 220.409 211.737 220.338 211.749 220.26V216.19C211.737 216.112 211.698 216.041 211.638 215.99C211.579 215.939 211.503 215.911 211.424 215.911C211.346 215.911 211.27 215.939 211.211 215.99C211.151 216.041 211.112 216.112 211.1 216.19Z" fill="black"/>
<path d="M214.741 215.578C214.438 217.098 214.134 218.617 213.83 220.136C213.748 220.546 214.373 220.718 214.455 220.308C214.759 218.789 215.063 217.27 215.367 215.751C215.449 215.339 214.823 215.168 214.741 215.578Z" fill="black"/>
<path d="M218.246 216.08L216.708 220.004C216.555 220.394 217.183 220.562 217.333 220.177L218.872 216.252C219.022 215.863 218.397 215.695 218.246 216.08Z" fill="black"/>
<path d="M221.99 217.704L220.596 219.952C220.375 220.308 220.936 220.633 221.156 220.28L222.55 218.033C222.772 217.676 222.21 217.35 221.99 217.704Z" fill="black"/>
<path d="M14.7012 92.688C14.5019 92.3206 13.941 92.6478 14.1403 93.016L18.1583 100.423C18.3576 100.79 18.9176 100.463 18.7184 100.095C17.379 97.6263 16.04 95.1573 14.7012 92.688Z" fill="black"/>
<path d="M22.0401 93.726C21.6137 95.9302 21.1876 98.1346 20.7618 100.339C20.6798 100.749 21.3087 100.922 21.3882 100.512C21.8141 98.3074 22.2399 96.1029 22.6658 93.8982C22.7445 93.4882 22.1197 93.316 22.0401 93.726Z" fill="black"/>
<path d="M31.4527 94.3664L26.3687 102.002C26.1366 102.351 26.6967 102.676 26.9296 102.33L32.0136 94.6936C32.2456 94.3451 31.6831 94.0196 31.4527 94.3664Z" fill="black"/>
<path d="M229.212 104.247C229.028 103.763 228.745 103.322 228.38 102.954C228.015 102.586 227.576 102.298 227.093 102.111C226.571 101.985 226.023 102.025 225.524 102.223C225.025 102.421 224.599 102.769 224.305 103.218C223.615 104.363 223.284 105.688 223.354 107.023C223.426 107.745 223.28 108.473 222.937 109.112C222.329 109.822 221.589 108.688 221.324 108.224C221.202 107.931 221.022 107.665 220.795 107.442C220.567 107.219 220.298 107.044 220.002 106.927C219.754 106.843 219.485 106.842 219.236 106.926C218.988 107.009 218.774 107.172 218.627 107.39C218.599 107.44 218.583 107.496 218.583 107.554C218.583 107.611 218.599 107.668 218.627 107.718C220.569 111.286 221.684 115.245 221.892 119.303C221.912 119.718 222.562 119.721 222.54 119.303C222.332 115.211 221.224 111.216 219.296 107.601C219.624 107.336 220.178 107.693 220.394 107.965C220.695 108.485 221.032 108.984 221.402 109.458C221.575 109.646 221.792 109.789 222.034 109.873C222.276 109.957 222.535 109.979 222.787 109.938C223.008 109.872 223.209 109.753 223.373 109.591C223.537 109.429 223.658 109.229 223.727 109.009C223.9 108.457 223.988 107.881 223.988 107.302C224.002 106.588 224.063 105.876 224.172 105.17C224.374 104.133 225.002 102.896 226.151 102.689C227.207 102.498 228 103.353 228.463 104.193C228.967 105.225 229.3 106.333 229.447 107.472C230.349 112.737 229.226 118.148 226.304 122.619C226.074 122.969 226.632 123.294 226.864 122.947C229.774 118.468 230.944 113.08 230.153 107.798C230.008 106.576 229.691 105.381 229.212 104.247Z" fill="black"/>
<path d="M229.422 97.0192C229.204 96.6633 228.642 96.9897 228.862 97.3472C231.388 101.471 232.742 106.205 232.778 111.041C232.789 112.402 232.692 113.762 232.489 115.108C232.427 115.518 233.052 115.692 233.115 115.281C233.856 110.363 233.238 105.337 231.328 100.745C230.791 99.4555 230.153 98.2097 229.422 97.0192Z" fill="black"/>
<path d="M235.923 101.614C235.891 101.542 235.835 101.484 235.763 101.45C235.692 101.416 235.611 101.409 235.535 101.43C235.459 101.451 235.394 101.499 235.35 101.565C235.306 101.63 235.288 101.709 235.297 101.787C236.712 106.733 236.606 111.991 234.993 116.875C234.862 117.272 235.485 117.443 235.619 117.048C237.264 112.05 237.37 106.673 235.923 101.614Z" fill="black"/>
<path d="M216.857 172.871C218.314 173.025 219.728 173.458 221.021 174.147C221.622 174.459 222.415 174.789 223.021 174.315C223.239 174.098 223.387 173.821 223.447 173.52C223.507 173.218 223.476 172.905 223.358 172.621C222.972 171.209 222.414 169.849 221.695 168.573C221.042 167.325 220.046 166.29 218.825 165.587C218.12 165.212 217.152 164.943 216.804 164.143C216.463 163.359 217.305 162.821 217.405 162.085C217.44 161.949 217.445 161.807 217.419 161.668C217.394 161.53 217.338 161.399 217.257 161.284C217.175 161.169 217.07 161.073 216.947 161.004C216.825 160.934 216.689 160.892 216.549 160.881C215.821 160.881 215.354 161.734 214.937 162.216C212.546 164.962 209.511 167.071 206.103 168.353C205.715 168.498 205.883 169.126 206.275 168.979C209.124 167.914 211.73 166.288 213.939 164.197C214.478 163.684 214.991 163.145 215.476 162.58C215.71 162.308 215.919 162.002 216.176 161.753C216.275 161.658 216.462 161.474 216.617 161.537C216.772 161.601 216.781 161.814 216.77 161.947C216.7 162.259 216.56 162.55 216.36 162.799C216.155 163.112 216.053 163.482 216.068 163.856C216.119 164.192 216.246 164.512 216.439 164.792C216.632 165.072 216.886 165.305 217.183 165.472C217.818 165.882 218.545 166.113 219.16 166.561C219.715 166.977 220.2 167.48 220.595 168.05C221.37 169.228 221.981 170.507 222.411 171.851C222.575 172.325 223.067 173.264 222.693 173.737C222.248 174.292 221.135 173.464 220.681 173.254C219.438 172.68 218.103 172.328 216.737 172.215C213.585 171.938 210.45 172.909 208.008 174.921C207.687 175.19 208.149 175.646 208.467 175.38C209.632 174.431 210.973 173.721 212.412 173.291C213.852 172.861 215.362 172.718 216.857 172.871Z" fill="black"/>
<path d="M225.512 184.949C224.576 183.375 223.256 182.064 221.675 181.14C220.094 180.215 218.304 179.708 216.473 179.665C215.431 179.639 214.392 179.778 213.393 180.075C213.321 180.106 213.262 180.162 213.227 180.234C213.193 180.305 213.186 180.387 213.207 180.463C213.228 180.54 213.276 180.606 213.342 180.65C213.408 180.693 213.488 180.712 213.566 180.701C215.703 180.109 217.976 180.236 220.033 181.063C222.091 181.891 223.819 183.372 224.951 185.278C225 185.341 225.07 185.384 225.148 185.398C225.226 185.413 225.307 185.399 225.376 185.359C225.444 185.319 225.496 185.255 225.521 185.18C225.546 185.105 225.543 185.023 225.512 184.949Z" fill="black"/>
<path d="M159.906 233.782C159.748 233.402 159.119 233.569 159.279 233.955L160.259 236.303C160.418 236.683 161.046 236.516 160.885 236.13L159.906 233.782Z" fill="black"/>
<path d="M162.046 232.823C162.015 232.75 161.958 232.691 161.887 232.656C161.815 232.622 161.734 232.615 161.657 232.636C161.581 232.657 161.515 232.705 161.471 232.771C161.427 232.837 161.409 232.917 161.419 232.996C161.723 234.131 162.028 235.267 162.333 236.403C162.365 236.475 162.421 236.533 162.492 236.567C162.563 236.6 162.644 236.607 162.72 236.587C162.796 236.566 162.862 236.518 162.905 236.453C162.949 236.388 162.968 236.309 162.959 236.231L162.046 232.823Z" fill="black"/>
<path d="M164.255 232.43V236.5C164.267 236.578 164.306 236.649 164.365 236.7C164.425 236.751 164.501 236.779 164.579 236.779C164.658 236.779 164.734 236.751 164.793 236.7C164.853 236.649 164.892 236.578 164.904 236.5V232.43C164.892 232.352 164.853 232.281 164.793 232.23C164.734 232.179 164.658 232.151 164.579 232.151C164.501 232.151 164.425 232.179 164.365 232.23C164.306 232.281 164.267 232.352 164.255 232.43Z" fill="black"/>
<path d="M167.897 231.814C167.593 233.333 167.289 234.852 166.985 236.371C166.903 236.781 167.529 236.953 167.611 236.543C167.915 235.024 168.218 233.505 168.522 231.986C168.604 231.58 167.979 231.404 167.897 231.814Z" fill="black"/>
<path d="M171.401 232.32L169.863 236.242C169.711 236.631 170.338 236.8 170.489 236.415C171.002 235.106 171.515 233.798 172.028 232.49C172.18 232.103 171.552 231.935 171.401 232.32Z" fill="black"/>
<path d="M175.145 233.946L173.751 236.193C173.53 236.549 174.091 236.875 174.312 236.521L175.706 234.274C175.927 233.917 175.366 233.591 175.145 233.946Z" fill="black"/>
<path d="M67.1918 225.669C67.0335 225.289 66.4054 225.456 66.5661 225.842L67.5452 228.19C67.7035 228.57 68.3324 228.403 68.1709 228.017L67.1918 225.669Z" fill="black"/>
<path d="M69.3317 224.707C69.2999 224.635 69.2434 224.577 69.1723 224.543C69.1012 224.509 69.0204 224.502 68.9446 224.523C68.8687 224.544 68.8029 224.592 68.7591 224.657C68.7153 224.722 68.6965 224.801 68.706 224.879C69.0105 226.015 69.315 227.15 69.6195 228.286C69.6513 228.358 69.7078 228.416 69.7789 228.45C69.85 228.484 69.9308 228.491 70.0066 228.47C70.0825 228.449 70.1483 228.402 70.1921 228.337C70.2359 228.271 70.2547 228.192 70.2452 228.114C69.9407 226.979 69.6362 225.843 69.3317 224.707Z" fill="black"/>
<path d="M71.5415 224.313V228.384C71.5532 228.461 71.5924 228.532 71.6519 228.583C71.7114 228.635 71.7873 228.663 71.8658 228.663C71.9443 228.663 72.0202 228.635 72.0797 228.583C72.1392 228.532 72.1784 228.461 72.1901 228.384V224.313C72.1784 224.236 72.1392 224.165 72.0797 224.114C72.0202 224.063 71.9443 224.034 71.8658 224.034C71.7873 224.034 71.7114 224.063 71.6519 224.114C71.5924 224.165 71.5532 224.236 71.5415 224.313Z" fill="black"/>
<path d="M75.1834 223.696C74.8794 225.215 74.5755 226.734 74.2716 228.253C74.1896 228.663 74.8152 228.835 74.8972 228.426C75.2017 226.907 75.5057 225.387 75.8091 223.868C75.8911 223.464 75.2654 223.286 75.1834 223.696Z" fill="black"/>
<path d="M78.688 224.204L77.1497 228.129C76.9972 228.518 77.6245 228.686 77.7754 228.301L79.3137 224.377C79.4662 223.987 78.8389 223.819 78.688 224.204Z" fill="black"/>
<path d="M82.4321 225.828L81.0381 228.075C80.8167 228.431 81.3776 228.757 81.5982 228.403L82.9922 226.155C83.2136 225.801 82.656 225.475 82.4321 225.828Z" fill="black"/>
<path d="M41.3724 238.872C41.2142 238.492 40.5861 238.658 40.7468 239.044L41.7259 241.392C41.8841 241.772 42.5122 241.606 42.3515 241.219L41.3724 238.872Z" fill="black"/>
<path d="M43.5124 237.909C43.4806 237.837 43.424 237.779 43.353 237.745C43.2819 237.711 43.2011 237.704 43.1252 237.725C43.0494 237.746 42.9836 237.793 42.9398 237.859C42.896 237.924 42.8772 238.003 42.8867 238.081L43.8002 241.489C43.8319 241.561 43.8886 241.619 43.9597 241.653C44.0309 241.687 44.1119 241.694 44.1878 241.673C44.2638 241.652 44.3296 241.604 44.3733 241.539C44.417 241.473 44.4357 241.394 44.4258 241.316C44.1219 240.181 43.8174 239.045 43.5124 237.909Z" fill="black"/>
<path d="M45.7222 237.516V241.587C45.7339 241.664 45.7731 241.735 45.8326 241.786C45.8921 241.837 45.968 241.866 46.0465 241.866C46.125 241.866 46.2009 241.837 46.2604 241.786C46.3199 241.735 46.359 241.664 46.3708 241.587V237.516C46.359 237.439 46.3199 237.368 46.2604 237.317C46.2009 237.265 46.125 237.237 46.0465 237.237C45.968 237.237 45.8921 237.265 45.8326 237.317C45.7731 237.368 45.7339 237.439 45.7222 237.516Z" fill="black"/>
<path d="M49.3641 236.898C49.0601 238.417 48.7562 239.936 48.4522 241.456C48.3702 241.866 48.9959 242.038 49.0779 241.628C49.3818 240.109 49.6858 238.59 49.9897 237.071C50.0717 236.666 49.4461 236.488 49.3641 236.898Z" fill="black"/>
<path d="M52.8685 237.406L51.3318 241.331C51.1793 241.72 51.8066 241.888 51.9575 241.503C52.4697 240.195 52.9825 238.887 53.4958 237.579C53.6467 237.19 53.0194 237.021 52.8685 237.406Z" fill="black"/>
<path d="M56.6119 239.03L55.2179 241.278C54.9974 241.633 55.5582 241.959 55.7788 241.606L57.1728 239.359C57.3942 239.003 56.8325 238.677 56.6119 239.03Z" fill="black"/>
<path d="M201.431 237.58C201.272 237.2 200.644 237.367 200.805 237.752L201.784 240.101C201.942 240.481 202.57 240.314 202.41 239.928L201.431 237.58Z" fill="black"/>
<path d="M203.571 236.617C203.539 236.545 203.483 236.487 203.412 236.454C203.34 236.42 203.26 236.413 203.184 236.434C203.108 236.455 203.042 236.502 202.998 236.567C202.955 236.633 202.936 236.712 202.945 236.79L203.858 240.197C203.89 240.269 203.946 240.327 204.017 240.361C204.088 240.394 204.169 240.401 204.245 240.381C204.321 240.36 204.387 240.312 204.431 240.247C204.474 240.182 204.493 240.103 204.484 240.025L203.571 236.617Z" fill="black"/>
<path d="M205.78 236.224V240.294C205.791 240.373 205.83 240.444 205.89 240.496C205.949 240.548 206.026 240.576 206.105 240.576C206.183 240.576 206.26 240.548 206.319 240.496C206.379 240.444 206.418 240.373 206.429 240.294V236.224C206.418 236.146 206.379 236.074 206.319 236.022C206.26 235.971 206.183 235.942 206.105 235.942C206.026 235.942 205.949 235.971 205.89 236.022C205.83 236.074 205.791 236.146 205.78 236.224Z" fill="black"/>
<path d="M209.422 235.61C209.118 237.128 208.814 238.647 208.51 240.167C208.428 240.577 209.054 240.75 209.136 240.34C209.439 238.82 209.743 237.301 210.048 235.782C210.129 235.375 209.503 235.2 209.422 235.61Z" fill="black"/>
<path d="M212.927 236.115L211.388 240.039C211.235 240.428 211.864 240.597 212.014 240.212L213.553 236.287C213.705 235.898 213.078 235.729 212.927 236.115Z" fill="black"/>
<path d="M216.67 237.739L215.276 239.986C215.055 240.342 215.617 240.668 215.836 240.314L217.23 238.067C217.452 237.711 216.89 237.385 216.67 237.739Z" fill="black"/>
<path d="M92.4658 84.1624C92.7127 84.474 92.9751 84.7728 93.2522 85.0579C94.6647 86.4323 96.3129 87.5413 98.1181 88.3321L109.168 71.4746C107.559 71.1162 105.988 70.5225 104.407 70.0371C101.947 74.4348 98.4871 78.1715 94.9988 81.7787C94.2243 82.6444 93.3769 83.4419 92.4658 84.1624Z" fill="#84D0AB"/>
<path d="M117.171 36.3261C116.018 34.2383 113.01 33.8562 110.839 34.8427C108.669 35.8291 107.127 37.7881 105.615 39.6315C104.103 41.4748 102.417 43.3559 100.139 44.0718C96.0334 45.3649 88.3049 40.9451 83.5661 41.3018C83.0902 41.2669 82.6122 41.2704 82.1368 41.3125C78.2918 41.6618 75.5383 44.7737 73.6088 47.8405C71.3581 51.4556 69.5863 55.3476 68.3379 59.4189C66.9337 63.701 66.2411 68.1844 66.2879 72.6906C66.34 76.8899 67.4365 81.0101 69.4785 84.6798C71.2571 87.7565 74.2271 91.1504 78.0737 91.257C78.8845 91.2818 79.692 91.1437 80.4483 90.8507C81.2047 90.5577 81.8946 90.1159 82.4771 89.5514C83.0277 89.0116 83.424 88.3344 83.6251 87.59C83.8399 86.5385 83.7645 85.4483 83.407 84.4363C83.0716 83.3088 82.6132 82.2149 82.1975 81.1153L80.9675 77.8664C80.1311 75.6535 79.2944 73.4395 78.4575 71.2244C78.3099 70.8325 78.9364 70.666 79.084 71.0522C80.1021 73.9117 81.4045 76.6618 82.9716 79.2613C83.6782 80.388 84.4854 81.4485 85.3832 82.4297C86.2361 83.4623 87.307 84.2934 88.5189 84.8635C89.1786 85.1119 89.8931 85.1777 90.5871 85.054C91.2811 84.9303 91.9289 84.6218 92.4623 84.1608C93.3733 83.4402 94.2207 82.6427 94.9952 81.777C98.4835 78.169 101.944 74.4331 104.403 70.0354C104.635 69.6205 104.871 69.2081 105.084 68.78C105.04 68.785 104.996 68.7811 104.953 68.7686C104.911 68.756 104.872 68.7351 104.838 68.707C104.1 68.1183 103.416 67.4637 102.797 66.7513C100.971 64.5308 99.5088 62.0353 98.4638 59.3574C99.8246 59.2716 101.164 58.9779 102.436 58.4866C110.119 54.9942 114.446 49.4666 117.075 41.4453C117.629 39.7758 118.022 37.8644 117.171 36.3261ZM79.8679 64.024C79.8437 64.0557 79.8127 64.0816 79.7773 64.0999C79.7418 64.1182 79.7027 64.1284 79.6629 64.1298C79.4752 66.0965 78.9626 68.0184 78.1459 69.8173C77.9729 70.197 77.4136 69.8673 77.585 69.4893C79.0305 66.301 79.463 62.746 78.824 59.3041C78.7478 58.8941 79.3734 58.7219 79.4505 59.1319C79.6949 60.4462 79.7906 61.7838 79.7359 63.1196C80.4443 62.0438 80.7482 60.7517 80.5936 59.473C80.5452 59.0581 81.1946 59.063 81.2422 59.473C81.3329 60.2851 81.2579 61.1072 81.0217 61.8894C80.7854 62.6717 80.3929 63.3979 79.8679 64.024ZM87.5045 56.0766C87.1662 55.5676 86.8269 55.0587 86.4869 54.5497C86.2549 54.2012 86.8149 53.8765 87.0478 54.2217L88.0654 55.7478C88.295 56.0979 87.7325 56.4226 87.5013 56.0766H87.5045ZM89.8284 60.8842C89.5734 60.5562 90.1376 60.2282 90.3893 60.5562L91.7259 62.2873C91.9809 62.6153 91.4168 62.9433 91.165 62.6153C90.7173 62.0358 90.2707 61.4588 89.8251 60.8842H89.8284ZM94.5975 68.5635L93.5734 67.0416C93.3388 66.6931 93.9014 66.3692 94.1334 66.7136L95.1576 68.2355C95.3888 68.5832 94.8263 68.9079 94.5943 68.5635H94.5975ZM97.6816 74.1395C97.3421 73.6306 97.0029 73.1217 96.6639 72.6127C96.4311 72.2642 96.9919 71.9395 97.224 72.2847L98.2416 73.8107C98.4712 74.1609 97.9079 74.4856 97.6783 74.1395H97.6816ZM97.9981 68.3438C97.06 67.2827 96.167 66.1842 95.3191 65.0482C94.9698 64.5803 94.6295 64.1058 94.2982 63.6247C94.0473 63.2631 93.8062 62.8941 93.566 62.5259C93.4971 62.4209 93.4258 62.3184 93.3585 62.2126C93.0617 61.7507 92.7728 61.2833 92.4918 60.8104L92.4795 60.7908C90.7967 57.9735 89.3912 54.9997 88.2827 51.911C88.1417 51.5166 88.769 51.3485 88.9092 51.7388C89.3821 53.0606 89.9104 54.3611 90.4943 55.6403C91.0789 56.9163 91.7243 58.1635 92.4122 59.3845C92.8337 60.1296 93.2738 60.864 93.7324 61.5878L93.7677 61.6444C94.228 62.3676 94.7058 63.0783 95.2011 63.7764L95.2453 63.8362C95.6832 64.4504 96.1383 65.0515 96.6033 65.6452C96.7148 65.7878 96.8263 65.9297 96.9395 66.0707C97.4315 66.6857 97.9349 67.2925 98.4565 67.8829C98.7279 68.1962 98.272 68.657 97.9948 68.3438H97.9981Z" fill="#FCAA2A"/>
<path d="M53.775 129.603C52.7696 129.712 51.7526 129.635 50.7754 129.375C51.0258 131.139 51.2761 132.903 51.5265 134.668C52.4974 134.383 53.4527 134.054 54.3817 133.698C56.3202 132.952 58.2259 132.094 60.1406 131.272C59.7815 129.76 59.4551 128.241 59.1615 126.715C57.7986 128.327 55.8724 129.36 53.775 129.603Z" fill="black"/>
<path d="M50.9009 134.842L50.0948 129.166C48.4982 128.57 47.1002 127.54 46.0591 126.19C45.0181 124.841 44.3758 123.228 44.2047 121.532C43.6447 116.545 47.0214 112.072 51.7487 111.541C53.6526 111.363 55.562 111.818 57.1813 112.835C58.8005 113.852 60.0393 115.374 60.7056 117.167C60.7212 117.167 60.7359 117.162 60.7515 117.162C61.3092 117.159 61.8486 117.36 62.268 117.728C62.6875 118.095 62.958 118.604 63.0285 119.157C63.0991 119.71 62.9649 120.27 62.6512 120.731C62.3375 121.192 61.866 121.523 61.3255 121.66C61.1657 123.234 60.6047 124.74 59.6962 126.034C60.0061 127.702 60.3579 129.362 60.7515 131.014C62.6947 130.162 64.6949 129.446 66.7375 128.871C66.685 127.997 66.6227 127.124 66.5358 126.252C66.2863 123.393 65.7251 120.571 64.8622 117.834C64.1429 115.379 62.8599 113.127 61.1156 111.256C59.3214 109.461 56.9155 108.41 54.3793 108.312C52.6204 108.223 50.8616 108.49 49.2086 109.098C47.5555 109.706 46.0423 110.641 44.7599 111.848C42.0539 114.465 40.5221 118.056 39.4881 121.613C38.458 125.573 37.8381 129.629 37.6382 133.716C38.1592 134.044 38.7029 134.335 39.2651 134.586C42.8993 136.185 47.0034 135.899 50.9009 134.842Z" fill="black"/>
<path d="M41.4011 158.579C40.1662 156.831 38.1556 155.884 36.2105 154.935C36.1909 155.115 36.1753 155.296 36.1572 155.477C36.08 158.277 36.3554 161.075 36.9772 163.806C37.2219 164.467 37.5237 165.106 37.8792 165.715C38.7826 167.19 40.0872 168.377 41.6406 169.138C42.2072 169.422 42.7957 169.66 43.4003 169.85C43.2795 168.204 43.1595 166.559 43.0403 164.913C42.8788 162.71 42.6762 160.384 41.4011 158.579Z" fill="black"/>
<path d="M79.2857 208.875C77.0002 207.62 74.8597 206.117 72.9029 204.394C71.5859 203.309 70.3035 202.18 69.0374 201.039C70.2502 199.539 71.4392 198.02 72.5724 196.459C74.2124 194.201 75.7567 191.877 77.2054 189.489C77.9161 188.317 78.598 187.13 79.2513 185.927L79.3161 185.805V184.453C79.2677 184.535 79.2119 184.626 79.1832 184.68C79.0192 184.987 78.8552 185.293 78.6912 185.599C78.3687 186.191 78.0407 186.779 77.7072 187.363C76.3406 189.743 74.8728 192.061 73.3038 194.315C70.1304 198.856 66.6345 203.164 62.8431 207.203C59.0759 211.226 55.0895 215.038 50.9023 218.622C50.4228 219.043 49.9115 219.427 49.373 219.77C47.5651 218.259 45.7371 216.774 43.8888 215.314C43.9257 215.311 43.9615 215.3 43.994 215.282C44.0266 215.265 44.0552 215.241 44.0782 215.212C48.7664 209.614 53.3398 203.923 57.7985 198.139C62.2691 192.34 66.6203 186.451 70.852 180.473C73.1546 177.22 75.4203 173.94 77.649 170.633L76.7601 170.785C72.8668 176.539 68.8663 182.216 64.7586 187.815C60.4257 193.714 55.9737 199.523 51.4025 205.24C48.8441 208.441 46.249 211.611 43.6174 214.752C43.5821 214.793 43.5577 214.842 43.5467 214.895C43.5356 214.948 43.5382 215.003 43.5542 215.054C42.07 213.88 40.5785 212.716 39.0795 211.56C39.7412 210.345 40.594 209.214 41.3607 208.068C42.207 206.802 43.0543 205.537 43.9027 204.271L49.0228 196.616L59.2622 181.302L64.7799 173.056L64.5471 173.109C64.3166 173.161 64.087 173.219 63.8566 173.273L62.6381 175.095L60.0141 179.018C58.4561 181.349 56.8981 183.679 55.3401 186.009C53.9756 184.193 52.7146 182.301 51.5632 180.343C50.9275 179.256 50.3915 178.115 49.9617 176.931C49.7502 176.987 49.5386 177.045 49.3262 177.1C50.4573 179.893 51.9507 182.525 53.7682 184.928C54.156 185.482 54.566 186.02 54.9703 186.562L54.7243 186.927L44.1856 202.681L41.2238 207.109L39.7429 209.323C39.2482 210.015 38.7932 210.735 38.38 211.478C38.3397 211.553 38.3292 211.64 38.3509 211.723C38.3725 211.805 38.4245 211.876 38.4965 211.922C42.0905 214.682 45.6477 217.491 49.1237 220.4C49.1755 220.448 49.2413 220.48 49.3118 220.489C49.3824 220.498 49.454 220.484 49.5165 220.451C50.693 219.687 51.7916 218.809 52.7965 217.831C53.8351 216.918 54.8604 215.992 55.8723 215.053C57.919 213.157 59.9116 211.204 61.8501 209.194C64.2133 206.737 66.4727 204.187 68.6282 201.542C69.3473 202.193 70.0665 202.843 70.8028 203.473C72.9232 205.387 75.1928 207.128 77.59 208.68C78.1498 209.02 78.7265 209.332 79.3177 209.614V208.037C79.3161 208.298 79.289 208.591 79.2857 208.875Z" fill="#FF9052"/>
<path d="M47.8478 203.36L40.9746 212.486C40.7237 212.82 41.287 213.142 41.5355 212.814L53.7691 196.567L66.0026 180.318L72.6364 171.508C72.3232 171.564 72.0116 171.624 71.6992 171.681L60.0814 187.111L47.8478 203.36Z" fill="#FF9052"/>
<path d="M54.0495 208.297C51.6305 211.249 49.1664 214.162 46.6572 217.034C46.3842 217.348 46.8409 217.808 47.1164 217.493C51.5991 212.354 55.9399 207.096 60.1388 201.718C64.3378 196.341 68.3859 190.849 72.283 185.244C74.4746 182.092 76.6176 178.907 78.7118 175.689C78.9398 175.337 78.3781 175.012 78.151 175.361C74.4446 181.057 70.5848 186.649 66.5717 192.137C62.5472 197.637 58.3731 203.024 54.0495 208.297Z" fill="#FF9052"/>
<path d="M76.9808 182.897C73.8702 187.892 70.5356 192.736 66.9768 197.429C63.4234 202.111 59.655 206.621 55.6714 210.959C53.4268 213.405 51.1196 215.791 48.7498 218.117C48.4513 218.41 48.9138 218.869 49.209 218.576C53.4233 214.437 57.4413 210.11 61.263 205.594C65.0634 201.096 68.6518 196.43 72.028 191.595C73.9413 188.854 75.7814 186.064 77.5482 183.225C77.763 182.869 77.2013 182.543 76.9808 182.897Z" fill="#FF9052"/>
<path d="M53.5519 152.539L52.4695 146.25C52.3211 146.868 52.0294 147.443 51.6179 147.928C51.2064 148.413 50.6866 148.795 50.1005 149.042C48.6245 149.656 47.1124 149.136 45.7808 148.403C46.1919 150.319 46.6019 152.235 47.0108 154.151C49.0256 153.192 51.2089 152.638 53.4371 152.52C53.4762 152.519 53.5152 152.525 53.5519 152.539Z" fill="#DE9E55"/>
<path d="M49.7421 148.49C50.2864 148.285 50.769 147.943 51.1435 147.498C51.5179 147.053 51.7718 146.519 51.8807 145.948L45.6626 147.588C46.8852 148.327 48.3202 149.006 49.7421 148.49Z" fill="#DE9E55"/>
<path d="M63.8558 173.272C64.0862 173.218 64.3158 173.161 64.5462 173.108L64.7791 173.054C65.0079 173.002 65.2367 172.947 65.4663 172.899C67.5376 172.457 69.6163 172.06 71.6983 171.679C72.0107 171.623 72.3223 171.563 72.6355 171.506C74.0082 171.26 75.382 171.02 76.7568 170.786L77.6457 170.635L79.3152 170.349V129.913C76.1336 128.247 72.4825 127.704 68.9537 128.373C68.2034 128.502 67.4662 128.677 66.7348 128.872C64.6921 129.446 62.692 130.162 60.7488 131.015C60.5463 131.097 60.3437 131.185 60.142 131.272C58.2273 132.092 56.3216 132.952 54.3831 133.698C53.4541 134.054 52.4971 134.383 51.5279 134.668C51.3204 134.729 51.1113 134.786 50.9022 134.842C47.0048 135.899 42.9007 136.185 39.2623 134.586C38.7001 134.335 38.1565 134.044 37.6355 133.716C33.141 130.928 30.5064 125.688 27.4494 121.221C26.8587 120.31 26.1638 119.47 25.3789 118.719C22.9189 119.822 20.4589 120.933 17.935 121.857C17.9177 121.985 17.8997 122.113 17.8858 122.24C16.4795 135.185 23.7734 148.64 35.3878 154.526C35.6601 154.664 35.9356 154.799 36.2078 154.936C38.1529 155.886 40.1635 156.832 41.3984 158.581C42.6735 160.385 42.8744 162.712 43.0384 164.915C43.1582 166.561 43.2782 168.206 43.3984 169.851L43.8084 175.444C43.8483 176.413 44.0165 177.373 44.3086 178.298C45.9896 177.937 47.66 177.53 49.3262 177.099C49.5386 177.044 49.7501 176.987 49.9617 176.931C54.5931 175.716 59.1941 174.346 63.8558 173.272ZM46.9761 154.884C46.9269 154.908 46.8727 154.92 46.818 154.918C46.7634 154.916 46.7099 154.902 46.6621 154.875C46.6144 154.848 46.5738 154.811 46.5438 154.765C46.5138 154.719 46.4953 154.667 46.4898 154.613C46.4548 154.573 46.4308 154.525 46.4201 154.474L45.0261 147.961L45.0138 147.953C44.97 147.928 44.9335 147.891 44.9077 147.847C44.8818 147.804 44.8676 147.754 44.8662 147.703C44.8129 147.67 44.77 147.623 44.7427 147.567C44.7154 147.51 44.7048 147.447 44.7122 147.385C44.7195 147.323 44.7445 147.264 44.7841 147.216C44.8238 147.168 44.8764 147.131 44.9359 147.112C44.9825 147.038 45.0554 146.984 45.14 146.962C45.2246 146.939 45.3146 146.949 45.3918 146.991L52.0338 145.237C52.0729 145.205 52.1186 145.181 52.1677 145.168C52.2169 145.155 52.2683 145.153 52.3184 145.162L52.5759 145.094C52.6187 145.082 52.6637 145.079 52.7076 145.086C52.7516 145.093 52.7936 145.109 52.8308 145.134C52.8679 145.158 52.8994 145.19 52.923 145.228C52.9467 145.266 52.962 145.308 52.9678 145.352C52.9719 145.361 52.9754 145.37 52.9785 145.379C53.4016 147.839 53.825 150.299 54.2487 152.759C54.3102 153.118 53.8387 153.296 53.6747 153.059C53.6459 153.093 53.6103 153.121 53.5702 153.14C53.5301 153.16 53.4863 153.17 53.4418 153.172C51.1911 153.288 48.9893 153.871 46.9761 154.884Z" fill="#DE9E55"/>
<path d="M53.6698 153.058C53.8338 153.294 54.307 153.116 54.2438 152.758C53.8196 150.298 53.3962 147.838 52.9737 145.378C52.9706 145.368 52.967 145.359 52.963 145.351C52.9571 145.307 52.9419 145.264 52.9182 145.226C52.8946 145.189 52.8631 145.157 52.8259 145.132C52.7888 145.108 52.7468 145.091 52.7028 145.085C52.6588 145.078 52.6139 145.08 52.571 145.092L52.3136 145.16C52.2635 145.151 52.2121 145.154 52.1629 145.167C52.1137 145.18 52.068 145.203 52.029 145.236L45.387 146.989C45.3098 146.948 45.2198 146.937 45.1352 146.96C45.0506 146.982 44.9776 147.036 44.9311 147.11C44.8716 147.13 44.8189 147.166 44.7793 147.214C44.7396 147.263 44.7147 147.322 44.7073 147.384C44.7 147.446 44.7106 147.509 44.7379 147.565C44.7652 147.621 44.8081 147.669 44.8614 147.702C44.8627 147.752 44.877 147.802 44.9028 147.846C44.9287 147.889 44.9652 147.926 45.009 147.952L45.0213 147.959L46.4153 154.472C46.4259 154.524 46.45 154.572 46.485 154.611C46.4904 154.665 46.509 154.718 46.539 154.763C46.569 154.809 46.6096 154.847 46.6573 154.873C46.7051 154.9 46.7585 154.915 46.8132 154.916C46.8679 154.918 46.9221 154.906 46.9713 154.882C48.9828 153.87 51.183 153.286 53.432 153.169C53.4773 153.168 53.5219 153.158 53.5629 153.139C53.6039 153.12 53.6404 153.092 53.6698 153.058ZM51.8806 145.948C51.7717 146.52 51.5179 147.054 51.1434 147.499C50.7689 147.944 50.2864 148.285 49.742 148.49C48.3202 149.006 46.8852 148.326 45.6625 147.588L51.8806 145.948ZM45.7806 148.403C47.1123 149.136 48.6211 149.656 50.1004 149.042C50.6865 148.795 51.2063 148.413 51.6178 147.928C52.0293 147.443 52.321 146.868 52.4694 146.249L53.5518 152.539C53.515 152.526 53.476 152.52 53.437 152.521C51.2099 152.639 49.0277 153.193 47.0139 154.151C46.6023 152.235 46.1912 150.319 45.7806 148.403Z" fill="white"/>
<path d="M182.122 174.644C179.637 172.393 177.491 169.793 175.751 166.926V179.608C178.011 178.136 180.143 176.476 182.122 174.644Z" fill="#FCAFB7"/>
<path d="M220.088 118.534C218.644 119.851 217.358 121.33 216.254 122.943C213.826 126.446 211.17 129.913 207.617 132.266C204.064 134.619 199.424 135.71 195.463 134.133C192.197 132.833 189.832 129.958 186.806 128.168C183.582 126.281 179.761 125.692 176.119 126.519C175.994 126.548 175.873 126.587 175.75 126.624V165.666C175.77 165.701 175.789 165.735 175.81 165.769C176.452 166.871 177.147 167.94 177.894 168.976C180.801 173.194 184.817 176.528 189.498 178.61C193.94 180.467 198.911 180.621 203.459 179.042C205.686 178.256 207.694 176.952 209.317 175.237C210.829 173.606 212.208 170.88 211.138 168.677C210.058 166.453 207.284 166.235 205.12 166.012C202.712 165.805 200.361 165.164 198.182 164.12C193.683 161.804 190.075 158.07 187.914 153.495C185.559 148.332 184.476 142.68 184.755 137.013C184.767 136.935 184.806 136.864 184.865 136.813C184.925 136.762 185.001 136.734 185.079 136.734C185.158 136.734 185.234 136.762 185.293 136.813C185.353 136.864 185.392 136.935 185.404 137.013C185.366 138.436 185.388 139.862 185.486 141.283C185.874 146.91 187.471 152.593 190.889 157.152C191.575 158.065 192.33 158.924 193.146 159.722C194.777 156.324 195.989 152.74 196.754 149.05C203.337 150.034 210.12 147.445 215.204 143.151C220.288 138.858 223.847 133.008 226.52 126.915C226.766 126.351 226.999 125.776 227.215 125.198C228.827 120.85 223.167 115.762 220.088 118.534ZM203 169.166C203.254 170.437 203.509 171.71 203.763 172.982C203.845 173.392 203.219 173.564 203.137 173.154L202.374 169.338C202.294 168.929 202.918 168.756 203 169.166ZM192.864 176.338L195.917 172.14C196.163 171.806 196.723 172.129 196.477 172.468L193.424 176.666C193.183 177 192.618 176.676 192.864 176.338ZM184.848 169.938L186.406 164.603C186.438 164.531 186.495 164.472 186.566 164.439C186.637 164.405 186.718 164.398 186.794 164.419C186.869 164.44 186.935 164.487 186.979 164.552C187.023 164.618 187.042 164.697 187.032 164.775L185.479 170.11C185.449 170.184 185.392 170.245 185.32 170.28C185.248 170.315 185.166 170.323 185.089 170.302C185.011 170.281 184.944 170.232 184.901 170.165C184.857 170.098 184.839 170.017 184.851 169.938H184.848ZM183.126 157.987L179.349 155.262C179.012 155.02 179.336 154.458 179.677 154.702L183.454 157.426C183.794 157.669 183.47 158.231 183.13 157.987H183.126ZM192.69 139.283C192.435 139.792 192.181 140.301 191.927 140.81C191.74 141.183 191.18 140.854 191.366 140.482C191.62 139.973 191.875 139.464 192.129 138.955C192.32 138.58 192.88 138.908 192.694 139.283H192.69ZM203.228 140.91L199.416 143.582C199.073 143.822 198.749 143.259 199.088 143.021L202.904 140.35C203.248 140.11 203.572 140.673 203.232 140.91H203.228ZM208.857 141.862L207.709 138.809C207.562 138.416 208.19 138.249 208.335 138.636C208.717 139.653 209.1 140.671 209.483 141.689C209.635 142.081 209.006 142.249 208.861 141.86L208.857 141.862ZM218.322 135.679L214.507 135.29C214.097 135.248 214.091 134.599 214.507 134.641L218.322 135.03C218.738 135.072 218.741 135.721 218.327 135.679H218.322ZM221.401 126.607L221.018 124.699C220.936 124.289 221.561 124.118 221.644 124.527L222.027 126.434C222.113 126.843 221.487 127.018 221.405 126.608L221.401 126.607Z" fill="#FCAFB7"/>
<path d="M175.75 145.894V119.228C175.75 118.444 175.762 117.66 175.75 116.876C175.705 116.436 175.52 116.022 175.224 115.694C172.395 111.389 169.567 107.084 166.738 102.779L158.252 89.8638L157.77 89.1307L157.49 88.7043V64.5627H146.805V72.4396L133.01 51.4476L127.814 43.5395C127.784 43.4915 127.743 43.4518 127.694 43.4243C127.645 43.3968 127.59 43.3823 127.533 43.3823C127.477 43.3823 127.422 43.3968 127.373 43.4243C127.324 43.4518 127.283 43.4915 127.253 43.5395C125.4 46.3592 123.547 49.179 121.695 51.9987C117.359 58.5991 113.022 65.1993 108.685 71.7992L93.7655 94.5042L82.3511 111.876C81.4535 113.243 80.5553 114.609 79.6566 115.976C79.3824 116.361 79.2611 116.834 79.3163 117.303V218.479C79.3163 218.566 79.3508 218.65 79.4123 218.711C79.4738 218.773 79.5573 218.807 79.6443 218.807H171.527C172.77 218.871 174.016 218.871 175.259 218.807C175.313 218.804 175.368 218.804 175.423 218.807C175.51 218.807 175.593 218.773 175.655 218.711C175.716 218.65 175.751 218.566 175.751 218.479V145.894H175.75ZM175.101 117.873V215.843C175.061 216.613 175.061 217.384 175.101 218.154H81.0981C80.7229 218.122 80.346 218.114 79.9698 218.131V119.166C79.9129 118.347 79.9096 117.525 79.96 116.706C79.9715 116.681 79.9858 116.658 80.0026 116.637C80.0985 116.512 80.1781 116.369 80.2642 116.238C80.6228 115.692 80.9814 115.145 81.34 114.598L91.1103 99.7284L105.74 77.4629C110.367 70.4219 114.994 63.38 119.621 56.3373L127.451 44.421L127.533 44.2898L139.906 63.1195L150.03 78.5273L157.21 89.4546C159.332 92.6854 161.455 95.9162 163.578 99.147C166.827 104.09 170.075 109.033 173.323 113.977L174.681 116.043C174.787 116.229 174.905 116.409 175.034 116.581C175.068 116.622 175.096 116.667 175.116 116.716C175.13 117.102 175.126 117.488 175.101 117.873Z" fill="black"/>
<path d="M132.285 78.7774C130.155 77.9939 127.835 77.8879 125.642 78.4738C123.449 79.0597 121.491 80.3088 120.035 82.0504C118.58 83.7919 117.698 85.9408 117.51 88.2028C117.323 90.4648 117.839 92.7295 118.988 94.6869C120.137 96.6443 121.863 98.1989 123.929 99.1378C125.996 100.077 128.302 100.354 130.532 99.9321C132.762 99.5101 134.807 98.4092 136.388 96.7801C137.968 95.151 139.007 93.0733 139.361 90.8314C139.448 90.2631 139.494 89.6892 139.497 89.1143C139.481 86.8643 138.783 84.672 137.495 82.8266C136.208 80.9812 134.392 79.5694 132.285 78.7774Z" fill="black"/>
<path d="M146.124 100.3C145.286 98.9527 144.276 97.7198 143.12 96.6322C139.761 93.003 136.125 89.6401 132.245 86.5741C129.302 84.3087 126.019 82.5239 122.517 81.2859C118.799 84.3059 118.335 89.5679 120.26 93.8524C121.822 94.1378 123.344 95.4785 124.699 96.3124C126.698 97.6252 128.499 99.2174 130.047 101.041C131.546 102.876 133.189 104.59 134.96 106.166C136.758 107.753 139.062 108.65 141.46 108.697C143.838 108.624 146.255 107.139 146.886 104.858C147.236 103.298 146.963 101.662 146.124 100.3Z" fill="#84D0AB"/>
<path d="M145.975 115.358C150.686 113.085 155.657 111.396 160.777 110.326C161.874 110.164 162.95 109.887 163.988 109.498C164.422 109.352 164.789 109.053 165.018 108.656C165.206 108.262 165.288 107.826 165.255 107.391C165.222 106.956 165.077 106.537 164.832 106.175C163.356 104.024 159.778 103.688 156.693 104.006C152.261 104.461 143.857 109.015 143.857 109.015L145.975 115.358Z" fill="black"/>
<path d="M114.321 166.234C113.747 165.236 112.593 164.671 111.646 164.091C110.554 163.42 109.455 162.759 108.333 162.138C106.13 160.859 103.77 159.872 101.312 159.204C100.733 158.971 100.103 158.895 99.4848 158.983C99.2622 159.059 99.0644 159.193 98.9126 159.373C98.7608 159.552 98.6607 159.77 98.623 160.002C98.6156 160.262 98.6629 160.522 98.7617 160.763C98.8606 161.004 99.0089 161.222 99.197 161.403C99.2199 161.433 99.2511 161.456 99.279 161.485C99.0145 161.439 98.7447 161.434 98.4787 161.469C98.1185 161.504 97.776 161.642 97.492 161.867C97.208 162.091 96.9946 162.392 96.8772 162.735C96.801 163.089 96.8177 163.456 96.9256 163.802C97.0335 164.147 97.229 164.459 97.493 164.707C97.7109 164.915 97.9599 165.087 98.231 165.218C97.7799 165.321 97.3799 165.581 97.1019 165.951C96.8692 166.271 96.7406 166.655 96.7332 167.051C96.7259 167.447 96.8403 167.836 97.0609 168.165C97.6972 169.072 98.8928 169.345 99.9087 169.623L107.535 171.703L109.868 172.339C110.35 172.466 110.857 172.46 111.337 172.323C111.816 172.185 112.249 171.92 112.59 171.556C112.927 171.128 113.21 170.66 113.431 170.162C113.698 169.659 113.939 169.127 114.237 168.64C114.447 168.354 114.585 168.021 114.641 167.669C114.687 167.169 114.575 166.667 114.321 166.234ZM113.691 168.284C113.482 168.618 113.317 168.99 113.133 169.339C112.9 169.779 112.675 170.225 112.434 170.661C112.211 171.08 111.854 171.411 111.42 171.602C110.986 171.794 110.5 171.833 110.041 171.715L104.72 170.264C102.922 169.772 101.119 169.302 99.3265 168.793C98.4778 168.552 97.2552 168.022 97.3815 166.945C97.5307 165.678 98.9879 165.701 99.9538 165.784C100.32 165.816 100.392 165.232 100.04 165.147C99.0387 164.901 97.2413 164.409 97.475 163.008C97.5519 162.737 97.7173 162.499 97.9448 162.333C98.1723 162.167 98.4488 162.082 98.7304 162.091C99.4136 162.119 100.079 162.316 100.667 162.665C101.04 162.844 101.362 162.317 100.995 162.105C100.565 161.858 100.177 161.544 99.8472 161.173C99.5939 160.889 99.1453 160.419 99.2847 159.998C99.4487 159.497 99.9407 159.564 100.351 159.647C100.879 159.757 101.402 159.887 101.919 160.038C103.974 160.675 105.954 161.533 107.823 162.596C108.788 163.125 109.735 163.685 110.675 164.257C111.603 164.738 112.479 165.315 113.287 165.979C113.623 166.272 113.861 166.663 113.968 167.096C114.011 167.303 114.009 167.516 113.961 167.721C113.913 167.927 113.821 168.119 113.691 168.285V168.284Z" fill="black"/>
<path d="M124.297 141.04C124.21 140.63 123.584 140.805 123.671 141.213C124.266 144.018 125.439 146.668 127.115 148.994C127.361 149.33 127.921 149.006 127.676 148.666C126.031 146.387 124.88 143.79 124.297 141.04Z" fill="black"/>
<path d="M140.418 151.429C137.617 144.906 136.528 137.775 137.256 130.714C137.259 130.68 137.256 130.646 137.247 130.613C137.614 130.622 137.98 130.559 138.323 130.425C138.666 130.291 138.979 130.09 139.243 129.834C139.571 129.471 139.817 129.041 139.964 128.574C140.11 128.107 140.154 127.614 140.092 127.128C140.029 126.643 139.863 126.177 139.603 125.762C139.343 125.347 138.996 124.993 138.587 124.725C138.432 124.626 138.271 124.538 138.104 124.463C138.194 124.23 138.237 123.981 138.229 123.731L138.249 121.161C138.295 120.194 138.223 119.225 138.035 118.276C137.841 117.319 137.304 116.466 136.524 115.877C135.532 115.36 134.443 115.053 133.326 114.975C133.056 114.925 132.719 114.774 132.752 114.501C132.769 114.365 132.881 114.26 132.916 114.128C132.998 113.832 132.696 113.579 132.424 113.432C130.328 112.307 127.892 111.986 125.576 112.53C124.86 112.808 124.078 112.867 123.329 112.7C122.773 112.4 122.286 111.989 121.895 111.492C120.635 110.439 119.016 109.915 117.378 110.03C111.173 109.972 111.92 114.476 111.802 115.777C111.749 117.085 111.928 118.392 112.332 119.637C112.466 120.434 112.86 121.165 113.454 121.713C113.494 121.743 113.54 121.756 113.581 121.781C113.435 123.585 113.208 125.389 113.018 127.187C112.636 129.614 112.657 132.088 113.08 134.509C113.304 135.57 113.771 136.565 114.446 137.414C115.121 138.264 115.984 138.944 116.968 139.402C120.219 140.91 124.064 140.632 127.532 140.352C128.69 140.307 129.833 140.075 130.916 139.663C131.901 139.228 132.753 138.54 133.387 137.671C134.087 136.713 134.583 135.622 134.845 134.465C135.126 133.932 135.245 133.328 135.188 132.728V132.279C135.228 131.822 135.256 131.366 135.266 130.913C135.275 130.56 135.266 130.208 135.266 129.855C135.656 130.215 136.139 130.458 136.66 130.557C136.63 130.602 136.611 130.654 136.605 130.708C135.869 137.885 136.988 145.13 139.856 151.75C140.023 152.139 140.582 151.808 140.418 151.429ZM133.59 136.095C133.137 137.076 132.443 137.927 131.572 138.568C130.608 139.182 129.506 139.546 128.366 139.628C126.291 139.886 124.197 139.968 122.108 139.874C120.622 139.826 119.153 139.545 117.754 139.041C116.791 138.688 115.927 138.106 115.237 137.347C114.547 136.587 114.051 135.671 113.792 134.678C113.318 132.417 113.255 130.089 113.606 127.806C113.793 125.888 114.05 123.975 114.216 122.054C114.719 122.169 115.237 122.204 115.75 122.157C117.58 122.036 119.382 121.656 121.104 121.027C121.468 120.867 121.856 120.768 122.252 120.734C122.451 120.721 122.65 120.762 122.827 120.854C123.004 120.946 123.152 121.086 123.255 121.257C123.335 121.498 123.397 121.744 123.439 121.995C123.692 122.791 124.681 123.053 125.515 123.093C127.353 123.176 129.182 122.796 130.834 121.987C130.905 121.939 130.986 121.906 131.071 121.891C131.156 121.875 131.243 121.878 131.326 121.898C131.451 121.97 131.542 122.087 131.58 122.226C131.77 122.861 131.886 123.516 131.926 124.177C131.954 124.373 131.991 124.568 132.038 124.76C132.043 127.784 132.048 130.808 132.054 133.832C132.026 134.038 132.044 134.247 132.107 134.445C132.17 134.643 132.276 134.824 132.418 134.976C132.644 135.131 132.905 135.225 133.178 135.251C133.45 135.276 133.725 135.232 133.976 135.122C133.867 135.454 133.739 135.78 133.59 136.096V136.095ZM135.224 128.715C135.211 128.684 135.193 128.657 135.17 128.633C135.164 127.372 135.158 126.111 135.152 124.85C135.186 124.869 135.223 124.882 135.262 124.887C135.301 124.892 135.34 124.89 135.378 124.879C137.456 124.268 139.928 125.786 139.42 128.137C139.342 128.604 139.116 129.033 138.777 129.362C138.437 129.691 138.002 129.903 137.533 129.967C137.065 130.031 136.588 129.944 136.172 129.718C135.757 129.492 135.425 129.139 135.224 128.711V128.715Z" fill="black"/>
<path d="M106.933 161.42C110.821 163.032 115.069 163.577 119.238 163C119.624 158.341 120.989 153.816 123.244 149.721C121.686 150.856 119.944 151.713 118.094 152.255C115.039 153.047 111.91 153.514 108.757 153.649C108.15 153.698 107.535 153.751 106.933 153.851V149.412C106.933 149.311 106.94 149.204 106.942 149.096H123.63C123.771 148.877 123.913 148.659 124.061 148.447H111.81C110.104 148.447 108.385 148.385 106.68 148.447C106.657 148.447 106.632 148.447 106.608 148.447C106.521 148.447 106.438 148.482 106.376 148.543C106.315 148.605 106.28 148.688 106.28 148.775V161.435C106.498 161.542 106.713 161.657 106.93 161.769L106.933 161.42Z" fill="black"/>
<path d="M148.515 190.363C148.515 190.463 148.508 190.571 148.505 190.679H127.786C128.17 190.161 128.512 189.612 128.807 189.039C127.72 188.705 126.685 188.22 125.735 187.596C122.633 185.5 121.061 181.95 120.159 178.43C115.652 178.856 111.212 179.819 106.934 181.3V171.205L106.285 171.029V185.802C106.285 187.508 106.223 189.226 106.285 190.93C106.285 190.955 106.285 190.979 106.285 191.003C106.286 191.09 106.321 191.172 106.383 191.233C106.444 191.293 106.527 191.327 106.613 191.327H143.643C145.349 191.327 147.068 191.39 148.772 191.327C148.796 191.327 148.821 191.327 148.845 191.327C148.931 191.327 149.014 191.293 149.075 191.233C149.137 191.172 149.172 191.09 149.173 191.003V189.185C148.961 189.268 148.744 189.348 148.523 189.422L148.515 190.363Z" fill="black"/>
<path d="M137.9 167.203C137.732 167.209 137.573 167.28 137.456 167.401C137.339 167.522 137.274 167.684 137.274 167.852C137.274 168.02 137.339 168.182 137.456 168.303C137.573 168.424 137.732 168.495 137.9 168.501C138.068 168.495 138.228 168.424 138.345 168.303C138.461 168.182 138.527 168.02 138.527 167.852C138.527 167.684 138.461 167.522 138.345 167.401C138.228 167.28 138.068 167.209 137.9 167.203Z" fill="white"/>
<path d="M133.321 162.624C133.153 162.63 132.994 162.701 132.877 162.822C132.76 162.943 132.695 163.105 132.695 163.273C132.695 163.441 132.76 163.603 132.877 163.724C132.994 163.845 133.153 163.916 133.321 163.922C133.489 163.916 133.649 163.845 133.765 163.724C133.882 163.603 133.948 163.441 133.948 163.273C133.948 163.105 133.882 162.943 133.765 162.822C133.649 162.701 133.489 162.63 133.321 162.624Z" fill="white"/>
<path d="M119.121 172.02C119.187 172.046 119.258 172.061 119.329 172.063C119.497 172.057 119.656 171.986 119.773 171.865C119.89 171.744 119.955 171.582 119.955 171.414C119.955 171.246 119.89 171.084 119.773 170.963C119.656 170.842 119.497 170.771 119.329 170.765C119.229 170.764 119.131 170.787 119.041 170.831C118.933 170.892 118.844 170.983 118.785 171.092C118.726 171.202 118.699 171.326 118.707 171.45C118.715 171.575 118.759 171.694 118.832 171.795C118.905 171.896 119.005 171.974 119.121 172.02Z" fill="white"/>
<path d="M129.25 174.326C129.082 174.332 128.922 174.403 128.806 174.524C128.689 174.645 128.624 174.807 128.624 174.975C128.624 175.143 128.689 175.305 128.806 175.426C128.922 175.547 129.082 175.618 129.25 175.624C129.418 175.618 129.577 175.547 129.694 175.426C129.811 175.305 129.876 175.143 129.876 174.975C129.876 174.807 129.811 174.645 129.694 174.524C129.577 174.403 129.418 174.332 129.25 174.326Z" fill="white"/>
<path d="M133.578 168.73C133.41 168.736 133.251 168.807 133.134 168.928C133.017 169.049 132.952 169.211 132.952 169.379C132.952 169.547 133.017 169.709 133.134 169.83C133.251 169.951 133.41 170.022 133.578 170.028C133.746 170.022 133.905 169.951 134.022 169.83C134.139 169.709 134.204 169.547 134.204 169.379C134.204 169.211 134.139 169.049 134.022 168.928C133.905 168.807 133.746 168.736 133.578 168.73Z" fill="white"/>
<path d="M156.837 167.335C156.664 161.014 154.977 154.658 151.374 149.745C147.771 144.832 142.125 141.526 136.26 141.73C133.833 141.772 131.454 142.406 129.328 143.576C127.202 144.747 125.394 146.419 124.061 148.447C123.913 148.659 123.771 148.877 123.63 149.096C123.498 149.301 123.371 149.511 123.244 149.721C120.989 153.816 119.624 158.341 119.238 163C119.174 163.603 119.12 164.206 119.079 164.808C122.119 165.951 125.019 167.436 127.723 169.236C127.79 167.979 127.934 166.727 128.154 165.487C129.1 160.381 131.28 155.584 134.504 151.512C134.532 151.478 134.566 151.45 134.606 151.43C134.616 151.426 134.627 151.423 134.638 151.421C134.663 151.412 134.689 151.406 134.715 151.405C134.73 151.406 134.745 151.409 134.76 151.414C134.78 151.416 134.799 151.421 134.818 151.428C134.84 151.439 134.86 151.452 134.879 151.467C134.889 151.473 134.898 151.479 134.907 151.486C134.933 151.51 134.956 151.538 134.975 151.568C135.008 151.619 135.028 151.678 135.031 151.739C135.034 151.801 135.02 151.861 134.992 151.916C134.984 151.936 134.974 151.955 134.962 151.974C134.061 153.118 133.241 154.324 132.508 155.582C129.978 159.906 128.544 164.784 128.33 169.789C128.329 169.846 128.313 169.901 128.285 169.95C128.256 169.999 128.215 170.039 128.166 170.068C128.116 170.096 128.061 170.111 128.004 170.111C127.948 170.112 127.892 170.097 127.842 170.07C127.268 169.714 126.699 169.359 126.124 169.009C123.893 167.591 121.517 166.413 119.036 165.497C116.315 164.466 113.355 164.239 110.508 164.841C109.36 165.011 108.286 165.509 107.415 166.276C107.227 166.481 107.065 166.708 106.931 166.952C106.625 167.487 106.459 168.09 106.449 168.707C106.447 169.338 106.613 169.958 106.931 170.503C107.062 170.737 107.221 170.954 107.404 171.15C107.842 171.575 108.315 171.962 108.818 172.307C109.318 172.68 109.83 173.036 110.352 173.377C113.3 175.292 116.541 176.712 119.946 177.582C120.52 177.731 121.104 177.86 121.687 177.979C122.724 178.194 123.771 178.355 124.824 178.462C125.308 178.51 125.799 178.539 126.289 178.567C128.393 178.709 130.506 178.602 132.585 178.251C133.922 178.046 135.207 177.585 136.369 176.892C137.437 176.177 138.338 175.241 139.013 174.148C140.475 171.793 141.643 169.267 142.489 166.627C143.411 163.939 144.06 161.164 144.426 158.345C144.435 158.285 144.46 158.228 144.499 158.181C144.539 158.131 144.592 158.093 144.652 158.069C144.712 158.046 144.776 158.038 144.84 158.048C144.854 158.049 144.869 158.051 144.883 158.054C144.899 158.059 144.914 158.065 144.929 158.072C144.948 158.08 144.965 158.091 144.981 158.103C144.992 158.11 145.002 158.119 145.011 158.129C145.027 158.147 145.04 158.168 145.05 158.19C145.055 158.201 145.061 158.209 145.065 158.221C145.077 158.262 145.08 158.305 145.075 158.348C144.982 159.064 144.875 159.777 144.747 160.488C144.216 163.456 143.372 166.359 142.23 169.149C141.686 170.489 141.073 171.801 140.392 173.077C139.788 174.273 139.009 175.373 138.082 176.34C136.074 178.335 133.263 178.931 130.538 179.159C129.459 179.243 128.377 179.27 127.295 179.241C125.657 179.211 124.023 179.058 122.408 178.783C121.771 178.673 121.14 178.537 120.511 178.387C120.393 178.399 120.275 178.41 120.157 178.423C121.064 181.942 122.633 185.492 125.733 187.588C126.684 188.212 127.718 188.698 128.806 189.031C131.188 189.698 133.64 190.079 136.112 190.167C139.285 190.514 142.488 190.496 145.657 190.113C146.627 189.96 147.582 189.728 148.514 189.418C148.732 189.344 148.949 189.265 149.163 189.181C150.522 188.716 151.745 187.921 152.72 186.867C153.696 185.812 154.393 184.532 154.751 183.14C156.191 177.997 156.893 172.676 156.837 167.335ZM126.961 161.887C126.793 161.881 126.633 161.81 126.516 161.689C126.4 161.568 126.334 161.406 126.334 161.238C126.334 161.07 126.4 160.908 126.516 160.787C126.633 160.666 126.793 160.595 126.961 160.589C127.129 160.595 127.288 160.666 127.405 160.787C127.522 160.908 127.587 161.07 127.587 161.238C127.587 161.406 127.522 161.568 127.405 161.689C127.288 161.81 127.129 161.881 126.961 161.887ZM129.25 150.692C129.082 150.686 128.923 150.615 128.806 150.494C128.689 150.373 128.624 150.211 128.624 150.043C128.624 149.875 128.689 149.713 128.806 149.592C128.923 149.471 129.082 149.4 129.25 149.394C129.418 149.4 129.578 149.471 129.694 149.592C129.811 149.713 129.877 149.875 129.877 150.043C129.877 150.211 129.811 150.373 129.694 150.494C129.578 150.615 129.418 150.686 129.25 150.692ZM141.714 156.798C141.602 156.796 141.492 156.765 141.395 156.707C141.299 156.649 141.219 156.567 141.164 156.469C141.109 156.371 141.081 156.26 141.083 156.147C141.084 156.035 141.115 155.925 141.173 155.828C141.185 155.803 141.199 155.779 141.214 155.756C141.235 155.726 141.26 155.699 141.286 155.674C141.341 155.626 141.401 155.586 141.465 155.553C141.543 155.521 141.626 155.503 141.711 155.502C141.797 155.503 141.882 155.52 141.962 155.554C141.983 155.563 142.003 155.574 142.022 155.587C142.07 155.612 142.112 155.644 142.15 155.682C142.203 155.733 142.245 155.795 142.271 155.865C142.281 155.888 142.294 155.908 142.302 155.932C142.319 155.99 142.329 156.05 142.331 156.111C142.333 156.166 142.328 156.221 142.318 156.275C142.318 156.29 142.318 156.305 142.31 156.321C142.298 156.372 142.279 156.422 142.255 156.469L142.237 156.499C142.187 156.592 142.111 156.669 142.019 156.722C141.927 156.775 141.823 156.801 141.717 156.798H141.714ZM143.5 149.93C143.4 149.93 143.301 149.906 143.212 149.86C143.123 149.814 143.046 149.748 142.987 149.666C142.929 149.585 142.891 149.49 142.876 149.391C142.862 149.292 142.871 149.191 142.903 149.096C142.936 148.962 143.013 148.844 143.121 148.759C143.229 148.675 143.363 148.629 143.5 148.629C143.638 148.629 143.771 148.675 143.879 148.759C143.987 148.844 144.064 148.962 144.097 149.096C144.129 149.191 144.139 149.292 144.124 149.391C144.109 149.49 144.071 149.585 144.013 149.666C143.955 149.748 143.878 149.814 143.788 149.86C143.699 149.906 143.6 149.93 143.5 149.93ZM147.316 174.352C147.148 174.346 146.989 174.275 146.872 174.154C146.755 174.033 146.69 173.872 146.69 173.703C146.69 173.535 146.755 173.374 146.872 173.252C146.989 173.131 147.148 173.06 147.316 173.054C147.485 173.061 147.644 173.132 147.76 173.253C147.877 173.375 147.942 173.536 147.942 173.705C147.941 173.873 147.876 174.034 147.759 174.155C147.642 174.276 147.482 174.347 147.314 174.352H147.316ZM149.167 165.688C149.144 165.694 149.12 165.699 149.097 165.702C148.971 165.707 148.846 165.672 148.742 165.601C148.638 165.53 148.559 165.427 148.518 165.308C148.458 165.144 148.458 164.964 148.518 164.799C148.559 164.68 148.638 164.577 148.742 164.506C148.846 164.435 148.971 164.399 149.097 164.404C149.12 164.408 149.144 164.413 149.167 164.419C149.32 164.441 149.459 164.518 149.56 164.635C149.661 164.751 149.716 164.901 149.716 165.055C149.715 165.209 149.66 165.358 149.558 165.474C149.457 165.591 149.317 165.667 149.165 165.688H149.167ZM150.878 153.237C150.71 153.231 150.55 153.16 150.433 153.039C150.317 152.918 150.251 152.756 150.251 152.588C150.251 152.419 150.317 152.258 150.433 152.137C150.55 152.016 150.71 151.945 150.878 151.939C151.046 151.945 151.205 152.016 151.322 152.137C151.438 152.259 151.503 152.421 151.503 152.589C151.503 152.757 151.437 152.919 151.32 153.039C151.203 153.16 151.043 153.231 150.875 153.237H150.878ZM152.404 178.932C152.232 178.932 152.067 178.864 151.945 178.742C151.823 178.62 151.755 178.455 151.755 178.283C151.755 178.11 151.823 177.945 151.945 177.824C152.067 177.702 152.232 177.633 152.404 177.633C152.577 177.634 152.742 177.702 152.863 177.824C152.985 177.946 153.053 178.112 153.053 178.284C153.052 178.456 152.984 178.621 152.862 178.743C152.74 178.864 152.574 178.932 152.402 178.932H152.404ZM153.167 167.229C152.999 167.223 152.84 167.152 152.723 167.031C152.606 166.91 152.541 166.748 152.541 166.58C152.541 166.412 152.606 166.25 152.723 166.129C152.84 166.008 152.999 165.937 153.167 165.931C153.335 165.937 153.494 166.009 153.611 166.13C153.728 166.251 153.793 166.413 153.792 166.581C153.792 166.75 153.726 166.911 153.609 167.032C153.492 167.153 153.333 167.223 153.165 167.229H153.167Z" fill="#FEE253"/>
<path d="M118.155 186.915C113.789 189.032 109.912 192.496 108.552 196.93C107.454 200.508 108.076 204.319 108.821 207.96C109.672 212.122 110.675 216.255 111.676 220.386C111.978 222.072 112.59 223.688 113.48 225.151C113.962 225.897 114.624 226.509 115.407 226.929C116.189 227.349 117.064 227.564 117.952 227.555C121.15 227.34 122.718 223.783 123.264 220.805C124.432 214.434 124.3 207.892 122.875 201.572C130.793 200.973 138.516 198.826 145.607 195.252C148.814 193.627 152.171 191.27 152.584 187.872C153.056 183.979 149.156 180.632 145.063 179.975C140.969 179.318 122.523 184.798 118.155 186.915Z" fill="#E9686D"/>
<path d="M118.59 124.573C117.287 123.881 115.47 123.443 114.376 124.751C114.11 125.069 114.566 125.531 114.835 125.21C115.737 124.135 117.207 124.572 118.263 125.133C118.632 125.329 118.96 124.769 118.59 124.573Z" fill="black"/>
<path d="M126.715 125.564C126.326 125.708 126.494 126.335 126.887 126.19C127.484 125.956 128.14 125.921 128.759 126.09C129.377 126.259 129.925 126.623 130.32 127.128C130.572 127.456 131.135 127.128 130.88 126.8C130.412 126.172 129.754 125.712 129.003 125.489C128.252 125.267 127.449 125.293 126.715 125.564Z" fill="black"/>
<path d="M122.642 132.922C123.038 133.056 123.209 132.43 122.814 132.296C122.076 132.05 121.302 132.166 120.559 131.978C120.263 131.918 119.99 131.776 119.77 131.568C119.647 131.4 119.566 131.206 119.531 131.002C119.496 130.797 119.509 130.587 119.569 130.388C119.81 128.666 120.073 126.944 120.326 125.222C120.386 124.812 119.761 124.637 119.7 125.049L119.256 128.073L119.04 129.549C118.94 130.022 118.885 130.502 118.876 130.985C118.898 131.323 119.02 131.647 119.228 131.915C119.435 132.183 119.718 132.383 120.04 132.488C120.875 132.826 121.798 132.641 122.642 132.922Z" fill="black"/>
<path d="M126.978 133.283C124.861 134.4 122.399 134.672 120.09 134.045C120.011 134.035 119.932 134.053 119.867 134.097C119.801 134.141 119.754 134.207 119.733 134.283C119.712 134.359 119.719 134.44 119.752 134.511C119.786 134.582 119.844 134.639 119.917 134.67C122.254 135.298 124.738 135.068 126.92 134.023C127.283 135.966 125.198 137.31 123.484 137.626C123.074 137.702 123.247 138.328 123.657 138.252C125.831 137.851 128.289 135.956 127.45 133.477C127.436 133.43 127.412 133.387 127.379 133.351C127.346 133.314 127.306 133.286 127.26 133.267C127.215 133.248 127.166 133.24 127.117 133.243C127.068 133.246 127.021 133.259 126.978 133.283Z" fill="black"/>
<path d="M117.993 126.491C117.742 126.502 117.505 126.609 117.33 126.79C117.156 126.972 117.059 127.213 117.059 127.465C117.059 127.716 117.156 127.958 117.33 128.139C117.505 128.321 117.742 128.428 117.993 128.438C118.245 128.428 118.482 128.321 118.656 128.139C118.83 127.958 118.927 127.716 118.927 127.465C118.927 127.213 118.83 126.972 118.656 126.79C118.482 126.609 118.245 126.502 117.993 126.491Z" fill="black"/>
<path d="M128.774 127.35C128.522 127.36 128.285 127.467 128.111 127.649C127.937 127.83 127.839 128.072 127.839 128.323C127.839 128.575 127.937 128.817 128.111 128.998C128.285 129.179 128.522 129.286 128.774 129.297C129.025 129.286 129.262 129.179 129.436 128.998C129.611 128.817 129.708 128.575 129.708 128.323C129.708 128.072 129.611 127.83 129.436 127.649C129.262 127.467 129.025 127.36 128.774 127.35Z" fill="black"/>
<path d="M84.9136 108.829V217.207C84.9253 217.285 84.9645 217.356 85.024 217.407C85.0835 217.458 85.1594 217.486 85.2379 217.486C85.3164 217.486 85.3923 217.458 85.4518 217.407C85.5113 217.356 85.5505 217.285 85.5622 217.207V108.829C85.5505 108.752 85.5113 108.681 85.4518 108.63C85.3923 108.579 85.3164 108.551 85.2379 108.551C85.1594 108.551 85.0835 108.579 85.024 108.63C84.9645 108.681 84.9253 108.752 84.9136 108.829Z" fill="black"/>
<path d="M91.7827 101.706V215.426C91.7945 215.504 91.8336 215.575 91.8931 215.626C91.9526 215.677 92.0285 215.705 92.107 215.705C92.1855 215.705 92.2614 215.677 92.3209 215.626C92.3804 215.575 92.4196 215.504 92.4313 215.426V101.706C92.4196 101.629 92.3804 101.558 92.3209 101.507C92.2614 101.455 92.1855 101.427 92.107 101.427C92.0285 101.427 91.9526 101.455 91.8931 101.507C91.8336 101.558 91.7945 101.629 91.7827 101.706Z" fill="black"/>
<path d="M99.6694 94.3278V120.277C99.6812 120.355 99.7204 120.426 99.7799 120.477C99.8394 120.528 99.9153 120.556 99.9937 120.556C100.072 120.556 100.148 120.528 100.208 120.477C100.267 120.426 100.306 120.355 100.318 120.277V94.3278C100.306 94.2502 100.267 94.1793 100.208 94.1282C100.148 94.077 100.072 94.0488 99.9937 94.0488C99.9153 94.0488 99.8394 94.077 99.7799 94.1282C99.7204 94.1793 99.6812 94.2502 99.6694 94.3278Z" fill="black"/>
<path d="M99.4146 129.691V151.946C99.4257 152.024 99.4647 152.096 99.5243 152.147C99.584 152.199 99.6603 152.228 99.7393 152.228C99.8182 152.228 99.8946 152.199 99.9542 152.147C100.014 152.096 100.053 152.024 100.064 151.946V150.809C100.053 150.73 100.014 150.659 99.9542 150.607C99.8946 150.555 99.8182 150.527 99.7393 150.527C99.6603 150.527 99.584 150.555 99.5243 150.607C99.4647 150.659 99.4257 150.73 99.4146 150.809V151.946C99.4257 152.024 99.4647 152.096 99.5243 152.147C99.584 152.199 99.6603 152.228 99.7393 152.228C99.8182 152.228 99.8946 152.199 99.9542 152.147C100.014 152.096 100.053 152.024 100.064 151.946V129.691C100.053 129.613 100.014 129.541 99.9542 129.49C99.8946 129.438 99.8182 129.409 99.7393 129.409C99.6603 129.409 99.584 129.438 99.5243 129.49C99.4647 129.541 99.4257 129.613 99.4146 129.691Z" fill="black"/>
<path d="M98.6519 172.177V215.168C98.6636 215.246 98.7028 215.317 98.7623 215.368C98.8218 215.419 98.8977 215.447 98.9762 215.447C99.0547 215.447 99.1305 215.419 99.19 215.368C99.2496 215.317 99.2887 215.246 99.3005 215.168V172.177C99.2887 172.1 99.2496 172.029 99.19 171.978C99.1305 171.926 99.0547 171.898 98.9762 171.898C98.8977 171.898 98.8218 171.926 98.7623 171.978C98.7028 172.029 98.6636 172.1 98.6519 172.177Z" fill="black"/>
<path d="M107.301 79.3179V98.9077C107.312 98.9858 107.351 99.0574 107.411 99.1091C107.471 99.1609 107.547 99.1894 107.626 99.1894C107.705 99.1894 107.781 99.1609 107.841 99.1091C107.901 99.0574 107.94 98.9858 107.951 98.9077V79.3179C107.94 79.2397 107.901 79.1681 107.841 79.1164C107.781 79.0646 107.705 79.0361 107.626 79.0361C107.547 79.0361 107.471 79.0646 107.411 79.1164C107.351 79.1681 107.312 79.2397 107.301 79.3179Z" fill="black"/>
<path d="M107.301 108.322V144.194C107.312 144.272 107.351 144.343 107.411 144.395C107.471 144.447 107.547 144.475 107.626 144.475C107.705 144.475 107.781 144.447 107.841 144.395C107.901 144.343 107.94 144.272 107.951 144.194V108.322C107.94 108.244 107.901 108.172 107.841 108.121C107.781 108.069 107.705 108.04 107.626 108.04C107.547 108.04 107.471 108.069 107.411 108.121C107.351 108.172 107.312 108.244 107.301 108.322Z" fill="black"/>
<path d="M115.948 67.1063V105.522C115.96 105.599 115.999 105.67 116.059 105.721C116.118 105.772 116.194 105.801 116.273 105.801C116.351 105.801 116.427 105.772 116.486 105.721C116.546 105.67 116.585 105.599 116.597 105.522V67.1063C116.585 67.0287 116.546 66.9579 116.486 66.9067C116.427 66.8555 116.351 66.8274 116.273 66.8274C116.194 66.8274 116.118 66.8555 116.059 66.9067C115.999 66.9579 115.96 67.0287 115.948 67.1063Z" fill="black"/>
<path d="M125.87 52.8597V73.4672C125.882 73.5448 125.921 73.6156 125.981 73.6668C126.04 73.718 126.116 73.7461 126.194 73.7461C126.273 73.7461 126.349 73.718 126.408 73.6668C126.468 73.6156 126.507 73.5448 126.519 73.4672V52.8597C126.507 52.7821 126.468 52.7113 126.408 52.6601C126.349 52.609 126.273 52.5808 126.194 52.5808C126.116 52.5808 126.04 52.609 125.981 52.6601C125.921 52.7113 125.882 52.7821 125.87 52.8597Z" fill="black"/>
<path d="M134.522 59.7287V74.9931C134.534 75.0712 134.573 75.1428 134.632 75.1945C134.692 75.2463 134.768 75.2748 134.847 75.2748C134.926 75.2748 135.002 75.2463 135.062 75.1945C135.122 75.1428 135.161 75.0712 135.172 74.9931V59.7287C135.161 59.6506 135.122 59.579 135.062 59.5273C135.002 59.4755 134.926 59.447 134.847 59.447C134.768 59.447 134.692 59.4755 134.632 59.5273C134.573 59.579 134.534 59.6506 134.522 59.7287Z" fill="black"/>
<path d="M142.918 76.7741V93.5619C142.93 93.6395 142.969 93.7103 143.029 93.7615C143.088 93.8127 143.164 93.8409 143.243 93.8409C143.321 93.8409 143.397 93.8127 143.457 93.7615C143.516 93.7103 143.555 93.6395 143.567 93.5619V76.7741C143.555 76.6964 143.516 76.6256 143.457 76.5744C143.397 76.5233 143.321 76.4951 143.243 76.4951C143.164 76.4951 143.088 76.5233 143.029 76.5744C142.969 76.6256 142.93 76.6964 142.918 76.7741Z" fill="black"/>
<path d="M143.427 118.497V138.85C143.438 138.928 143.477 139 143.537 139.051C143.597 139.103 143.673 139.132 143.752 139.132C143.831 139.132 143.907 139.103 143.967 139.051C144.027 139 144.066 138.928 144.077 138.85V118.497C144.066 118.418 144.027 118.347 143.967 118.295C143.907 118.243 143.831 118.215 143.752 118.215C143.673 118.215 143.597 118.243 143.537 118.295C143.477 118.347 143.438 118.418 143.427 118.497Z" fill="black"/>
<path d="M155.636 117.225V150.044C155.647 150.122 155.686 150.193 155.746 150.245C155.806 150.297 155.882 150.325 155.961 150.325C156.04 150.325 156.116 150.297 156.176 150.245C156.236 150.193 156.275 150.122 156.286 150.044V117.225C156.275 117.147 156.236 117.075 156.176 117.023C156.116 116.972 156.04 116.943 155.961 116.943C155.882 116.943 155.806 116.972 155.746 117.023C155.686 117.075 155.647 117.147 155.636 117.225Z" fill="black"/>
<path d="M165.558 120.532V142.411C165.569 142.489 165.608 142.561 165.668 142.612C165.728 142.664 165.804 142.693 165.883 142.693C165.962 142.693 166.038 142.664 166.098 142.612C166.157 142.561 166.196 142.489 166.208 142.411V120.532C166.196 120.454 166.157 120.382 166.098 120.33C166.038 120.278 165.962 120.25 165.883 120.25C165.804 120.25 165.728 120.278 165.668 120.33C165.608 120.382 165.569 120.454 165.558 120.532Z" fill="black"/>
<path d="M165.558 148.517V215.429C165.569 215.507 165.608 215.579 165.668 215.63C165.728 215.682 165.804 215.711 165.883 215.711C165.962 215.711 166.038 215.682 166.098 215.63C166.157 215.579 166.196 215.507 166.208 215.429V148.517C166.196 148.439 166.157 148.367 166.098 148.315C166.038 148.264 165.962 148.235 165.883 148.235C165.804 148.235 165.728 148.264 165.668 148.315C165.608 148.367 165.569 148.439 165.558 148.517Z" fill="black"/>
<path d="M153.603 192.53V217.971C153.614 218.049 153.653 218.121 153.713 218.172C153.772 218.224 153.849 218.253 153.928 218.253C154.007 218.253 154.083 218.224 154.143 218.172C154.202 218.121 154.241 218.049 154.252 217.971V192.53C154.241 192.451 154.202 192.38 154.143 192.328C154.083 192.276 154.007 192.248 153.928 192.248C153.849 192.248 153.772 192.276 153.713 192.328C153.653 192.38 153.614 192.451 153.603 192.53Z" fill="black"/>
<path d="M141.901 205V217.464C141.913 217.541 141.952 217.612 142.011 217.663C142.071 217.715 142.147 217.743 142.225 217.743C142.304 217.743 142.38 217.715 142.439 217.663C142.499 217.612 142.538 217.541 142.549 217.464V205C142.538 204.922 142.499 204.851 142.439 204.8C142.38 204.749 142.304 204.721 142.225 204.721C142.147 204.721 142.071 204.749 142.011 204.8C141.952 204.851 141.913 204.922 141.901 205Z" fill="black"/>
<path d="M130.198 207.031V217.716C130.209 217.794 130.248 217.866 130.308 217.917C130.367 217.969 130.443 217.998 130.522 217.998C130.601 217.998 130.678 217.969 130.737 217.917C130.797 217.866 130.836 217.794 130.847 217.716V207.031C130.836 206.953 130.797 206.882 130.737 206.83C130.678 206.778 130.601 206.75 130.522 206.75C130.443 206.75 130.367 206.778 130.308 206.83C130.248 206.882 130.209 206.953 130.198 207.031Z" fill="black"/>
</svg>
