<svg width="16" height="16" viewBox="0 0 16 16" fill="none" xmlns="http://www.w3.org/2000/svg">
<path d="M2.44677 10.4796L11.7461 1.18032C11.7648 1.17454 11.7858 1.16843 11.8087 1.16221C11.939 1.12692 12.1266 1.09025 12.3469 1.08721C12.7725 1.08134 13.3364 1.19784 13.8878 1.7492C14.4391 2.30056 14.5556 2.86443 14.5497 3.29005C14.5467 3.51033 14.51 3.69798 14.4748 3.82824C14.4685 3.8512 14.4624 3.87214 14.4566 3.89089L5.15735 13.1902L2.07715 13.5598L2.44677 10.4796ZM14.4182 4.00032L14.419 3.99845C14.4183 4.00002 14.418 4.00076 14.4181 4.00064L14.4182 4.00032Z" stroke="#8675A9" stroke-width="1.5" stroke-linecap="round"/>
<path d="M9.51147 2.35449L13.1031 5.94615" stroke="#8675A9" stroke-width="1.5"/>
</svg>
