<svg width="18" height="22" viewBox="0 0 18 22" fill="none" xmlns="http://www.w3.org/2000/svg">
<path d="M11.1688 1.30054L11.2176 1.31413C11.8571 1.50433 12.2455 1.88091 12.4783 2.38705L12.4787 2.38786C12.7168 2.90377 12.7927 3.5567 12.8058 4.28012L12.8058 4.28201C12.8203 4.98685 12.6701 5.87583 12.4775 6.70059C12.3876 7.08058 12.2905 7.44563 12.1952 7.77182L11.9148 8.73207H12.9152H14.9912H14.9916C15.3414 8.73186 15.6864 8.81322 15.9993 8.96969C16.3122 9.12615 16.5843 9.35341 16.7939 9.63342C17.0036 9.91342 17.1451 10.2385 17.2072 10.5827C17.2693 10.927 17.2502 11.281 17.1516 11.6166L17.1515 11.6168L15.1055 18.5858L15.1055 18.5858C14.9932 18.9684 14.8058 19.3248 14.5542 19.6341C14.3025 19.9434 13.9918 20.1994 13.6401 20.3873C13.2884 20.5751 12.9027 20.6909 12.5057 20.7279C12.1087 20.765 11.7083 20.7225 11.3279 20.603L3.29399 18.0786L3.29375 18.0785C2.96789 17.9762 2.66959 17.8011 2.42146 17.5664C2.17341 17.3318 1.982 17.0438 1.86174 16.7243C1.8617 16.7242 1.86166 16.7241 1.86163 16.724L1.08174 14.6483C0.895567 14.1528 0.890062 13.6075 1.0662 13.1083C1.24233 12.6091 1.58882 12.188 2.04474 11.919L2.0449 11.9189L4.8529 10.2614L4.88855 10.2404L4.92166 10.2156L4.94367 10.1991C5.00814 10.1513 5.07101 10.1015 5.1322 10.0496L5.13222 10.0496L5.13749 10.0451C5.37967 9.83585 5.60688 9.60988 5.81743 9.36884C6.38414 8.731 7.13178 7.70044 7.87273 6.12651L7.87288 6.12619C8.17607 5.48135 8.43051 4.97242 8.66361 4.50921L8.66395 4.50854C8.67741 4.48172 8.69082 4.45502 8.70417 4.42843C9.06641 3.70705 9.389 3.06466 9.74902 2.16461C9.85594 1.89848 10.064 1.6196 10.3254 1.44395C10.57 1.27957 10.8471 1.21087 11.1688 1.30054Z" stroke="#6F69AC" stroke-width="1.5"/>
</svg>
