<svg width="20" height="20" viewBox="0 0 20 20" fill="none" xmlns="http://www.w3.org/2000/svg">
<path d="M10 0C4.47715 0 0 4.47715 0 10C0 15.5228 4.47715 20 10 20C15.5228 20 20 15.5228 20 10C19.9941 4.47962 15.5204 0.00590124 10 0ZM10 18.5714C5.26612 18.5714 1.42856 14.7339 1.42856 10C1.42856 5.26612 5.26612 1.42856 10 1.42856C14.7339 1.42856 18.5714 5.26612 18.5714 10C18.5663 14.7318 14.7318 18.5663 10 18.5714Z" fill="#838B9F"/>
<path d="M6.42856 10.0002C7.21753 10.0002 7.85712 9.3606 7.85712 8.57163C7.85712 7.78265 7.21753 7.14307 6.42856 7.14307C5.63959 7.14307 5 7.78265 5 8.57163C5 9.3606 5.63959 10.0002 6.42856 10.0002Z" fill="#838B9F"/>
<path d="M13.5716 10.0002C14.3606 10.0002 15.0002 9.3606 15.0002 8.57163C15.0002 7.78265 14.3606 7.14307 13.5716 7.14307C12.7827 7.14307 12.1431 7.78265 12.1431 8.57163C12.1431 9.3606 12.7827 10.0002 13.5716 10.0002Z" fill="#838B9F"/>
<path d="M12.7352 12.4143C12.4992 12.0982 12.0517 12.0331 11.7355 12.2691C11.7218 12.2793 11.7086 12.29 11.6956 12.3012C10.6855 13.0389 9.31429 13.0389 8.30418 12.3012C8.00573 12.0432 7.55464 12.076 7.2967 12.3745C7.03872 12.6729 7.07157 13.124 7.37002 13.382C7.38292 13.3931 7.39622 13.4038 7.40991 13.414C8.93883 14.5826 11.061 14.5826 12.5899 13.414C12.9061 13.1781 12.9711 12.7305 12.7352 12.4143Z" fill="#838B9F"/>
</svg>
